<svg width="72" height="83" viewBox="0 0 72 83" fill="none" xmlns="http://www.w3.org/2000/svg">
<path d="M11.5409 10.6048C10.9827 11.611 10.1763 12.388 9.12194 12.947C8.06753 13.506 6.81013 13.7855 5.35539 13.7855H0.59082V0.498047H5.35539C6.81013 0.498047 8.06753 0.771936 9.12194 1.31417C10.1763 1.86199 10.9883 2.63342 11.5409 3.62845C12.0991 4.62347 12.3754 5.79179 12.3754 7.12222C12.3754 8.44146 12.0991 9.60418 11.5409 10.6048ZM8.47351 10.2862C9.2629 9.5315 9.6576 8.48059 9.6576 7.12222C9.6576 5.75266 9.2629 4.69614 8.47351 3.94149C7.68411 3.18684 6.56768 2.81229 5.12421 2.81229H3.26349V11.4154H5.12421C6.56768 11.4154 7.68411 11.0408 8.47351 10.2862Z" fill="#7D7D7D"/>
<path d="M5.35028 13.9644H0.405273V0.324707H5.35028C6.82758 0.324707 8.12444 0.604208 9.20141 1.16321C10.284 1.72221 11.1242 2.52715 11.6936 3.55013C12.2631 4.56752 12.5507 5.77497 12.5507 7.12776C12.5507 8.46937 12.2631 9.67123 11.6936 10.6942C11.1242 11.7228 10.284 12.5389 9.20141 13.1091C8.12444 13.6737 6.83322 13.9644 5.35028 13.9644ZM0.76614 13.6122H5.35592C6.77683 13.6122 8.01731 13.3383 9.04353 12.7961C10.0641 12.2538 10.8535 11.488 11.3948 10.5209C11.9361 9.54825 12.2068 8.40228 12.2068 7.12217C12.2068 5.83087 11.9305 4.67931 11.3948 3.71782C10.8591 2.75634 10.0641 2.00171 9.04917 1.47066C8.02295 0.939603 6.78247 0.671286 5.36156 0.671286H0.77178V13.6122H0.76614ZM5.12474 11.5886H3.08922V2.63336H5.12474C6.60768 2.63336 7.77485 3.03028 8.59808 3.81288C9.42131 4.59548 9.83856 5.70789 9.83856 7.12217C9.83856 8.51967 9.42131 9.6265 8.59808 10.4091C7.77485 11.1917 6.60768 11.5886 5.12474 11.5886ZM3.43881 11.242H5.12474C6.51182 11.242 7.60006 10.8787 8.35562 10.1631C9.10555 9.44762 9.48897 8.42465 9.48897 7.12776C9.48897 5.81411 9.10555 4.79112 8.35562 4.07559C7.60006 3.36007 6.51746 2.99672 5.12474 2.99672H3.43881V11.242Z" fill="#7D7D7D"/>
<path d="M24.6627 2.60577V6.04925H29.4103V8.084H24.6627V11.6616H29.9798V13.7914H21.9844V0.503906H29.9798V2.61136H24.6627V2.60577Z" fill="#7D7D7D"/>
<path d="M30.1602 13.9644H21.8096V0.324707H30.1602V2.7843H24.8431V5.88116H29.5908V8.26252H24.8431V11.488H30.1602V13.9644ZM22.1648 13.6122H29.805V11.8346H24.4879V7.90478H29.2355V6.22218H24.4879V2.42653H29.805V0.671286H22.1648V13.6122Z" fill="#7D7D7D"/>
<path d="M9.28767 34.6136C8.94371 35.1838 8.44188 35.6422 7.7709 35.9888C7.09991 36.3354 6.28232 36.5087 5.32377 36.5087C4.3765 36.5087 3.52508 36.3466 2.78079 36.0279C2.0365 35.7093 1.43318 35.2453 0.987733 34.6416C0.536649 34.0379 0.282915 33.3391 0.220891 32.5342H3.06836C3.13038 33.0764 3.35028 33.5236 3.72242 33.8814C4.09457 34.2391 4.59076 34.418 5.211 34.418C5.76921 34.418 6.19775 34.2726 6.49095 33.9764C6.78979 33.6801 6.9364 33.3 6.9364 32.836C6.9364 32.4224 6.81799 32.0814 6.57553 31.8074C6.33307 31.5391 6.02859 31.3211 5.66208 31.159C5.29558 30.9969 4.78811 30.8068 4.14531 30.5944C3.31081 30.3205 2.62855 30.0466 2.09289 29.7727C1.56286 29.5044 1.10614 29.1131 0.734 28.5988C0.361856 28.0845 0.175781 27.4137 0.175781 26.5864C0.175781 25.446 0.593033 24.546 1.4219 23.8864C2.25076 23.2268 3.35028 22.897 4.71481 22.897C6.13008 22.897 7.26343 23.238 8.10357 23.9144C8.94372 24.5907 9.42299 25.4964 9.53576 26.6255H6.64883C6.57553 26.1504 6.37254 25.7591 6.03986 25.4516C5.70719 25.1442 5.26175 24.9877 4.69225 24.9877C4.19606 24.9877 3.80136 25.1162 3.49688 25.3734C3.1924 25.6305 3.04016 26.005 3.04016 26.4914C3.04016 26.8827 3.15857 27.2069 3.38975 27.4584C3.62657 27.7156 3.91978 27.928 4.28064 28.0901C4.64151 28.2522 5.13206 28.4367 5.7523 28.6379C6.61499 28.9398 7.31417 29.2193 7.84984 29.4876C8.3855 29.7503 8.84786 30.1472 9.22564 30.6727C9.60342 31.1982 9.79514 31.8913 9.79514 32.741C9.79514 33.423 9.62598 34.0435 9.28767 34.6136Z" fill="#7D7D7D"/>
<path d="M5.31715 36.6821C4.34732 36.6821 3.46771 36.5144 2.70086 36.1901C1.92838 35.8603 1.30251 35.374 0.834507 34.7479C0.366507 34.1218 0.0958539 33.384 0.0338299 32.5511L0.0169149 32.361H3.21397L3.23089 32.5175C3.28727 33.0206 3.48462 33.4287 3.83421 33.7585C4.17253 34.0827 4.62925 34.2448 5.20438 34.2448C5.71185 34.2448 6.10091 34.1107 6.36028 33.8535C6.62529 33.5908 6.75498 33.261 6.75498 32.8361C6.75498 32.4616 6.65348 32.1653 6.43922 31.925C6.21932 31.679 5.93175 31.4722 5.5878 31.3212C5.22693 31.1591 4.71946 30.9747 4.08795 30.7622C3.2478 30.4827 2.54862 30.2088 2.01296 29.9349C1.45474 29.6554 0.981109 29.2418 0.592049 28.7051C0.197351 28.1629 0 27.453 0 26.5865C0 25.3959 0.439806 24.44 1.30814 23.7468C2.1652 23.0648 3.30983 22.7183 4.71382 22.7183C6.16857 22.7183 7.34702 23.076 8.21536 23.7747C9.08934 24.4791 9.59681 25.4294 9.71522 26.6033L9.73213 26.7934H6.50124L6.47869 26.648C6.41103 26.212 6.22496 25.8486 5.92611 25.5691C5.63291 25.2952 5.22129 25.1555 4.69691 25.1555C4.25146 25.1555 3.88496 25.2729 3.61431 25.5021C3.3493 25.7257 3.21961 26.0499 3.21961 26.4859C3.21961 26.8325 3.3211 27.112 3.52409 27.3356C3.73836 27.5759 4.02029 27.7716 4.3586 27.9225C4.71383 28.0847 5.20438 28.2635 5.81334 28.4592C6.68168 28.761 7.39777 29.0517 7.93343 29.3145C8.49729 29.5884 8.9822 30.0076 9.3769 30.5554C9.77724 31.1088 9.98022 31.8411 9.98022 32.7299C9.98022 33.4343 9.79979 34.0995 9.44456 34.692C9.08934 35.2902 8.55367 35.7709 7.85449 36.1343C7.15531 36.5032 6.30389 36.6821 5.31715 36.6821ZM0.400336 32.7131C0.484914 33.4007 0.721736 34.0156 1.11643 34.5411C1.54496 35.1169 2.12573 35.5641 2.83619 35.8659C3.55792 36.1734 4.39243 36.3299 5.31151 36.3299C6.24187 36.3299 7.03691 36.1622 7.6797 35.8324C8.31686 35.5026 8.80741 35.0666 9.12881 34.5243C9.4502 33.9821 9.61372 33.384 9.61372 32.7411C9.61372 31.9306 9.43329 31.2654 9.07806 30.7734C8.71719 30.2703 8.27738 29.8902 7.76428 29.6442C7.23425 29.3871 6.53508 29.102 5.68366 28.8057C5.06342 28.6045 4.56158 28.42 4.19508 28.2523C3.81166 28.0791 3.4959 27.8554 3.24216 27.5815C2.97715 27.2964 2.84747 26.9275 2.84747 26.4971C2.84747 25.9548 3.02226 25.5356 3.36621 25.2449C3.70453 24.9598 4.14433 24.8145 4.67999 24.8145C5.2946 24.8145 5.78515 24.9878 6.15166 25.3232C6.47305 25.625 6.68731 26.0052 6.78317 26.4524H9.32052C9.17955 25.4629 8.72847 24.658 7.9729 24.0542C7.16659 23.4058 6.06144 23.076 4.69691 23.076C3.37749 23.076 2.30617 23.3946 1.51113 24.0263C0.716096 24.658 0.332676 25.4965 0.332676 26.5921C0.332676 27.3803 0.507467 28.0232 0.857057 28.5039C1.21229 28.9902 1.64646 29.3704 2.15392 29.6275C2.67831 29.8958 3.36058 30.1641 4.17816 30.438C4.82096 30.6505 5.3397 30.8405 5.71185 31.0082C6.1009 31.1815 6.42794 31.4163 6.68168 31.7014C6.95233 32.0032 7.08765 32.389 7.08765 32.8417C7.08765 33.3504 6.9185 33.7753 6.59146 34.1051C6.25879 34.4349 5.78515 34.597 5.18182 34.597C4.51648 34.597 3.97518 34.4013 3.5692 34.01C3.2027 33.6579 2.97151 33.2218 2.8813 32.7131H0.400336Z" fill="#7D7D7D"/>
<path d="M25.0797 23.0869V36.3745H22.4014V23.0869H25.0797Z" fill="#7D7D7D"/>
<path d="M25.2601 36.5533H22.2266V22.9136H25.2601V36.5533ZM22.5818 36.2011H24.9049V23.2602H22.5818V36.2011Z" fill="#7D7D7D"/>
<path d="M47.2801 24.1494C48.357 24.9488 49.0449 26.0221 49.3494 27.3804H46.5414C46.2764 26.7767 45.8535 26.296 45.2784 25.9382C44.7033 25.5804 44.021 25.4016 43.2372 25.4016C42.4648 25.4016 41.7825 25.5749 41.1848 25.927C40.5871 26.2792 40.1248 26.7823 39.7977 27.4308C39.4707 28.0848 39.3015 28.8506 39.3015 29.7283C39.3015 31.1202 39.6793 32.2047 40.4293 32.9873C41.1848 33.7643 42.211 34.1556 43.5135 34.1556C44.4777 34.1556 45.301 33.8705 45.9889 33.3059C46.6768 32.7413 47.1222 31.9587 47.3252 30.9525H42.7862V29.0519H49.5637V31.6121C49.372 32.4898 49.0055 33.3003 48.4529 34.0382C47.9003 34.7761 47.1786 35.3742 46.2877 35.8159C45.3968 36.2631 44.3706 36.4866 43.2203 36.4866C41.9009 36.4866 40.745 36.2016 39.7357 35.6314C38.732 35.0612 37.9483 34.2618 37.4013 33.2388C36.8488 32.2158 36.5781 31.0475 36.5781 29.7283C36.5781 28.409 36.8544 27.2407 37.4013 26.2177C37.9539 25.1947 38.7264 24.3954 39.7301 23.8196C40.7281 23.2438 41.8896 22.9531 43.2034 22.9531C44.8499 22.9531 46.2031 23.3556 47.2801 24.1494Z" fill="#7D7D7D"/>
<path d="M43.2367 36.6654C41.8947 36.6654 40.6937 36.3691 39.6619 35.7878C38.63 35.2008 37.8237 34.3735 37.2598 33.3282C36.696 32.2828 36.4141 31.0754 36.4141 29.7338C36.4141 28.3922 36.7016 27.1847 37.2598 26.1394C37.8237 25.0885 38.63 24.2611 39.6506 23.6686C40.6712 23.076 41.8722 22.7798 43.2142 22.7798C44.8775 22.7798 46.2815 23.1935 47.381 24.0096C48.4862 24.8313 49.2079 25.9493 49.518 27.3412L49.5631 27.5537H46.4168L46.3717 27.4474C46.1236 26.8829 45.7177 26.4245 45.1764 26.0835C44.6294 25.7425 43.9754 25.5748 43.2311 25.5748C42.4924 25.5748 41.8383 25.7425 41.2688 26.0779C40.705 26.4077 40.2596 26.894 39.9494 27.5089C39.6337 28.135 39.4758 28.8785 39.4758 29.7282C39.4758 31.0698 39.8423 32.1207 40.5584 32.8642C41.2745 33.6021 42.2669 33.9766 43.5186 33.9766C44.4321 33.9766 45.2271 33.7027 45.8812 33.1716C46.4845 32.6741 46.9018 31.9866 47.1104 31.1313H42.6165V28.8785H49.7492V31.612C49.5519 32.5456 49.1685 33.3897 48.6046 34.1443C48.0407 34.9046 47.2908 35.5195 46.3774 35.9778C45.4696 36.4306 44.4095 36.6654 43.2367 36.6654ZM43.2142 23.132C41.9342 23.132 40.7952 23.4171 39.8254 23.9761C38.8612 24.5351 38.1 25.3177 37.5643 26.3071C37.0287 27.3021 36.758 28.4537 36.758 29.7338C36.758 31.0139 37.0287 32.171 37.5643 33.1605C38.0944 34.1499 38.8612 34.9269 39.831 35.4803C40.8065 36.0337 41.9455 36.3132 43.2254 36.3132C44.3475 36.3132 45.3512 36.0952 46.2139 35.6648C47.0765 35.2344 47.7814 34.653 48.317 33.9375C48.8527 33.2219 49.2136 32.4282 49.3996 31.5785L49.394 29.2307H42.9717V30.7791H47.5502L47.5107 30.9859C47.3021 32.0257 46.8285 32.853 46.1124 33.44C45.3906 34.0269 44.5223 34.3288 43.5243 34.3288C42.1767 34.3288 41.0941 33.9151 40.3103 33.1102C39.5265 32.2996 39.1318 31.1648 39.1318 29.7338C39.1318 28.8338 39.3066 28.0344 39.645 27.358C39.9889 26.676 40.4795 26.145 41.0997 25.7816C41.7199 25.4127 42.4417 25.2282 43.2423 25.2282C44.0599 25.2282 44.776 25.4183 45.3794 25.7928C45.9488 26.145 46.383 26.6201 46.6593 27.2071H49.129C48.8132 25.9996 48.1592 25.0214 47.178 24.2947C46.1349 23.5176 44.8042 23.132 43.2142 23.132Z" fill="#7D7D7D"/>
<path d="M70.1588 36.3745H67.4805L61.481 27.3409V36.3745H58.8027V23.0869H61.481L67.4805 32.1987V23.0869H70.1588V36.3745Z" fill="#7D7D7D"/>
<path d="M70.3343 36.5533H67.3853L61.6566 27.9278V36.5533H58.623V22.9136H61.572L67.3008 31.6117V22.9136H70.3343V36.5533ZM67.5771 36.2011H69.9847V23.2602H67.6616V32.7856L61.3916 23.2602H58.9896V36.2011H61.3126V26.7539L67.5771 36.2011Z" fill="#7D7D7D"/>
<path d="M9.28767 57.2031C8.94371 57.7733 8.44188 58.2316 7.7709 58.5782C7.09991 58.9248 6.28232 59.0981 5.32377 59.0981C4.3765 59.0981 3.52508 58.936 2.78079 58.6173C2.0365 58.2987 1.43318 57.8348 0.987733 57.231C0.536649 56.6273 0.282915 55.9285 0.220891 55.1236H3.06836C3.13038 55.6658 3.35028 56.113 3.72242 56.4708C4.09457 56.8285 4.59076 57.0074 5.211 57.0074C5.76921 57.0074 6.19775 56.8621 6.49095 56.5658C6.78979 56.2695 6.9364 55.8894 6.9364 55.4254C6.9364 55.0118 6.81799 54.6708 6.57553 54.3969C6.33307 54.1285 6.02859 53.9105 5.66208 53.7484C5.29558 53.5863 4.78811 53.3963 4.14531 53.1838C3.31081 52.9099 2.62855 52.636 2.09289 52.3621C1.56286 52.0938 1.10614 51.7025 0.734 51.1882C0.361856 50.6739 0.175781 50.0031 0.175781 49.1757C0.175781 48.0354 0.593033 47.1354 1.4219 46.4758C2.25076 45.8162 3.35028 45.4863 4.71481 45.4863C6.13008 45.4863 7.26343 45.8273 8.10357 46.5037C8.94372 47.1801 9.42299 48.0857 9.53576 49.2149H6.64883C6.57553 48.7397 6.37254 48.3484 6.03986 48.041C5.71283 47.7335 5.26175 47.577 4.69225 47.577C4.19606 47.577 3.80136 47.7056 3.49688 47.9627C3.1924 48.2199 3.04016 48.5944 3.04016 49.0807C3.04016 49.472 3.15857 49.7962 3.38975 50.0478C3.62657 50.3049 3.91978 50.5174 4.28064 50.6795C4.64151 50.8416 5.13206 51.0261 5.7523 51.2273C6.61499 51.5292 7.31417 51.8087 7.84984 52.077C8.3855 52.3397 8.84786 52.7366 9.22564 53.2621C9.60342 53.7875 9.79514 54.4807 9.79514 55.3304C9.79514 56.0124 9.62598 56.6329 9.28767 57.2031Z" fill="#7D7D7D"/>
<path d="M5.31715 59.2716C4.34732 59.2716 3.46771 59.1039 2.70086 58.7797C1.92838 58.4499 1.30251 57.9636 0.834507 57.3375C0.366507 56.7114 0.0958539 55.9735 0.0338299 55.1406L0.0169149 54.9505H3.21397L3.23089 55.107C3.28727 55.6101 3.48462 56.0182 3.83421 56.348C4.17253 56.6722 4.62925 56.8343 5.20438 56.8343C5.71185 56.8343 6.10091 56.7002 6.36028 56.443C6.62529 56.1803 6.75498 55.8505 6.75498 55.4256C6.75498 55.0511 6.65348 54.7548 6.43922 54.5145C6.21932 54.2685 5.93175 54.0617 5.5878 53.9107C5.22693 53.7486 4.71946 53.5642 4.08795 53.3517C3.2478 53.0722 2.54862 52.7983 2.01296 52.5244C1.45474 52.2449 0.981109 51.8312 0.592049 51.2946C0.197351 50.7524 0 50.0424 0 49.1759C0 47.9853 0.439806 47.0294 1.30814 46.3362C2.1652 45.6542 3.30983 45.3076 4.71382 45.3076C6.16857 45.3076 7.34702 45.6654 8.21536 46.3641C9.08934 47.0685 9.59681 48.0188 9.71522 49.1927L9.73213 49.3828H6.50124L6.47869 49.2375C6.41103 48.8014 6.22496 48.438 5.92611 48.1585C5.63291 47.8846 5.22129 47.7449 4.69691 47.7449C4.25146 47.7449 3.88496 47.8623 3.61431 48.0915C3.3493 48.3151 3.21961 48.6393 3.21961 49.0753C3.21961 49.4219 3.3211 49.7014 3.52409 49.925C3.73836 50.1654 4.02029 50.361 4.3586 50.512C4.71383 50.6741 5.20438 50.853 5.81334 51.0486C6.68168 51.3505 7.39777 51.6412 7.93343 51.9039C8.49729 52.1778 8.9822 52.5971 9.3769 53.1449C9.77724 53.6983 9.98022 54.4306 9.98022 55.3194C9.98022 56.0238 9.79979 56.689 9.44456 57.2815C9.08934 57.8797 8.55367 58.3604 7.85449 58.7238C7.15531 59.0927 6.30389 59.2716 5.31715 59.2716ZM0.400336 55.3027C0.484914 55.9902 0.721736 56.6052 1.11643 57.1306C1.54496 57.7064 2.12573 58.1536 2.83619 58.4555C3.55792 58.7629 4.39243 58.9194 5.31151 58.9194C6.24187 58.9194 7.03691 58.7518 7.6797 58.4219C8.31686 58.0921 8.80741 57.6561 9.12881 57.1138C9.4502 56.5716 9.61372 55.9735 9.61372 55.3306C9.61372 54.5201 9.43329 53.8548 9.07806 53.3629C8.71719 52.8598 8.27738 52.4797 7.76428 52.2337C7.23425 51.9766 6.53508 51.6915 5.68366 51.3952C5.06342 51.194 4.56158 51.0095 4.19508 50.8418C3.81166 50.6685 3.4959 50.4449 3.24216 50.171C2.97715 49.8859 2.84747 49.5169 2.84747 49.0865C2.84747 48.5443 3.02226 48.125 3.36621 47.8343C3.70453 47.5492 4.14433 47.4039 4.67999 47.4039C5.2946 47.4039 5.78515 47.5772 6.15166 47.9126C6.47305 48.2144 6.68731 48.5946 6.78317 49.0418H9.32052C9.17955 48.0523 8.72847 47.2474 7.9729 46.6437C7.16659 45.9952 6.06144 45.6654 4.69691 45.6654C3.37749 45.6654 2.30617 45.984 1.51113 46.6157C0.716096 47.2474 0.332676 48.0859 0.332676 49.1815C0.332676 49.9697 0.507467 50.6126 0.857057 51.0933C1.21229 51.5797 1.64646 51.9598 2.15392 52.2169C2.67831 52.4853 3.36058 52.7536 4.17816 53.0275C4.82096 53.2399 5.3397 53.43 5.71185 53.5977C6.1009 53.771 6.42794 54.0058 6.68168 54.2909C6.95233 54.5927 7.08765 54.9784 7.08765 55.4312C7.08765 55.9399 6.9185 56.3648 6.59146 56.6946C6.25879 57.0244 5.78515 57.1865 5.18182 57.1865C4.51648 57.1865 3.97518 56.9909 3.5692 56.5996C3.2027 56.2474 2.97151 55.8114 2.8813 55.3027H0.400336Z" fill="#7D7D7D"/>
<path d="M28.4808 45.6768V47.7842H24.7763V58.9643H22.098V47.7842H18.416V45.6768H28.4808Z" fill="#7D7D7D"/>
<path d="M24.9567 59.1432H21.9232V47.9631H18.2412V45.5034H28.6556V47.9631H24.9511V59.1432H24.9567ZM22.2784 58.791H24.6015V47.6109H28.306V45.8556H18.5964V47.6109H22.2784V58.791Z" fill="#7D7D7D"/>
<path d="M40.1419 45.6772V53.4698C40.1419 54.5095 40.3731 55.2921 40.8354 55.812C41.2978 56.3319 41.9631 56.5946 42.8371 56.5946C43.6998 56.5946 44.3595 56.3319 44.8219 55.812C45.2842 55.2921 45.5154 54.5095 45.5154 53.4698V45.6772H48.1712V53.4698C48.1712 54.6996 47.94 55.7393 47.4776 56.5834C47.0153 57.4331 46.3781 58.0592 45.5605 58.4785C44.7429 58.8921 43.8182 59.0989 42.7807 59.0989C41.1737 59.0989 39.8881 58.6238 38.9239 57.6679C37.9598 56.712 37.4805 55.3145 37.4805 53.4698V45.6772H40.1419Z" fill="#7D7D7D"/>
<path d="M42.7797 59.2719C41.1333 59.2719 39.7913 58.7744 38.7989 57.7905C37.8065 56.8067 37.3047 55.3532 37.3047 53.4694V45.498H40.3157V53.4694C40.3157 54.4644 40.5356 55.2135 40.9641 55.6998C41.3926 56.1862 42.0072 56.4209 42.8361 56.4209C43.6537 56.4209 44.257 56.1862 44.6855 55.6998C45.1141 55.2135 45.334 54.4644 45.334 53.4694V45.498H48.345V53.4694C48.345 54.7216 48.1025 55.8005 47.6289 56.6669C47.1496 57.5445 46.4786 58.2042 45.6385 58.629C44.8039 59.0595 43.8398 59.2719 42.7797 59.2719ZM37.6599 45.8502V53.4694C37.6599 55.2582 38.1279 56.6278 39.0526 57.5446C39.9774 58.4613 41.2291 58.9253 42.7797 58.9253C43.7834 58.9253 44.6912 58.7241 45.4806 58.3216C46.2587 57.9247 46.8789 57.3154 47.3244 56.4992C47.7698 55.6831 47.9954 54.6601 47.9954 53.4694V45.8502H45.6892V53.4694C45.6892 54.5483 45.4411 55.3756 44.9506 55.929C44.4544 56.488 43.7439 56.7675 42.8361 56.7675C41.9114 56.7675 41.1953 56.4824 40.6991 55.929C40.2085 55.3812 39.9604 54.5539 39.9604 53.4694V45.8502H37.6599Z" fill="#7D7D7D"/>
<path d="M11.5409 78.373C10.9827 79.3792 10.1763 80.1562 9.12194 80.7152C8.06753 81.2742 6.81013 81.5537 5.35539 81.5537H0.59082V68.2661H5.35539C6.81013 68.2661 8.06753 68.54 9.12194 69.0823C10.1763 69.6301 10.9883 70.4015 11.5409 71.3965C12.0991 72.3972 12.3754 73.5599 12.3754 74.8903C12.3754 76.2096 12.0991 77.3723 11.5409 78.373ZM8.47351 78.0543C9.2629 77.2997 9.6576 76.2487 9.6576 74.8903C9.6576 73.5208 9.2629 72.4642 8.47351 71.7096C7.68411 70.9549 6.56768 70.5804 5.12421 70.5804H3.26349V79.1835H5.12421C6.56768 79.1835 7.68411 78.809 8.47351 78.0543Z" fill="#7D7D7D"/>
<path d="M5.35028 81.7325H0.405273V68.0928H5.35028C6.82758 68.0928 8.12444 68.3723 9.20141 68.9313C10.284 69.4903 11.1242 70.2953 11.6936 71.3182C12.2631 72.3356 12.5507 73.5431 12.5507 74.8959C12.5507 76.2375 12.2631 77.4393 11.6936 78.4623C11.1242 79.4909 10.284 80.307 9.20141 80.8772C8.12444 81.4418 6.83322 81.7325 5.35028 81.7325ZM0.76614 81.3803H5.35592C6.77683 81.3803 8.01731 81.1064 9.04353 80.5642C10.0641 80.0219 10.8535 79.2561 11.3948 78.289C11.9361 77.3164 12.2068 76.1704 12.2068 74.8903C12.2068 73.599 11.9305 72.4474 11.3948 71.4803C10.8591 70.5189 10.0641 69.7642 9.04917 69.2331C8.02295 68.7021 6.78247 68.4338 5.36156 68.4338H0.77178V81.3803H0.76614ZM5.12474 79.3567H3.08922V70.4071H5.12474C6.60768 70.4071 7.77485 70.8039 8.59808 71.5866C9.42131 72.3692 9.83856 73.4816 9.83856 74.8959C9.83856 76.2934 9.42131 77.4002 8.59808 78.1828C7.77485 78.9598 6.60768 79.3567 5.12474 79.3567ZM3.43881 79.0101H5.12474C6.51182 79.0101 7.60006 78.6468 8.35562 77.9313C9.10555 77.2157 9.48897 76.1928 9.48897 74.8959C9.48897 73.5822 9.10555 72.5592 8.35562 71.8437C7.60006 71.1282 6.51746 70.7648 5.12474 70.7648H3.43881V79.0101Z" fill="#7D7D7D"/>
<path d="M24.6627 68.2661V81.5537H21.9844V68.2661H24.6627Z" fill="#7D7D7D"/>
<path d="M24.8431 81.7325H21.8096V68.0928H24.8431V81.7325ZM22.1648 81.3803H24.4879V68.4394H22.1648V81.3803Z" fill="#7D7D7D"/>
<path d="M46.2798 68.9422C47.3004 69.5179 48.1011 70.3285 48.6931 71.3626C49.2795 72.3968 49.5784 73.5707 49.5784 74.8732C49.5784 76.1813 49.2852 77.3496 48.6931 78.3949C48.1067 79.4347 47.3004 80.2453 46.2798 80.821C45.2593 81.3968 44.1259 81.6875 42.8742 81.6875C41.6224 81.6875 40.4834 81.3968 39.4685 80.821C38.4479 80.2453 37.6472 79.4347 37.0552 78.3949C36.4688 77.3552 36.1699 76.1813 36.1699 74.8732C36.1699 73.5707 36.4631 72.3968 37.0552 71.3626C37.6416 70.3285 38.4479 69.5235 39.4685 68.9422C40.4891 68.3664 41.6224 68.0757 42.8742 68.0757C44.1259 68.0757 45.2593 68.3664 46.2798 68.9422ZM40.8048 71.0496C40.2071 71.4018 39.7448 71.9049 39.4065 72.5645C39.0738 73.2241 38.9046 73.99 38.9046 74.8732C38.9046 75.7509 39.0738 76.5223 39.4065 77.1819C39.7391 77.8415 40.2071 78.3446 40.8048 78.6968C41.3969 79.049 42.0904 79.2223 42.8742 79.2223C43.6579 79.2223 44.3515 79.049 44.9435 78.6968C45.5355 78.3446 46.0035 77.8415 46.3419 77.1819C46.6745 76.5223 46.8437 75.7564 46.8437 74.8732C46.8437 73.9956 46.6745 73.2241 46.3419 72.5645C46.0035 71.9049 45.5412 71.4018 44.9435 71.0496C44.3458 70.6974 43.6579 70.5241 42.8742 70.5241C42.0848 70.5241 41.3969 70.6974 40.8048 71.0496Z" fill="#7D7D7D"/>
<path d="M42.8749 81.8607C41.595 81.8607 40.4221 81.5588 39.379 80.9719C38.3359 80.3793 37.5014 79.5409 36.898 78.4787C36.2947 77.4166 35.9902 76.2036 35.9902 74.8732C35.9902 73.5427 36.2947 72.3353 36.898 71.2732C37.5014 70.2166 38.3359 69.3781 39.3734 68.7912C40.4165 68.2042 41.5893 67.9023 42.8693 67.9023C44.1492 67.9023 45.322 68.2042 46.3652 68.7912C47.4083 69.3837 48.2428 70.2166 48.8405 71.2732C49.4438 72.3297 49.7483 73.5427 49.7483 74.8732C49.7483 76.2036 49.4438 77.4166 48.8405 78.4787C48.2372 79.5464 47.4027 80.3849 46.3595 80.9719C45.3277 81.5644 44.1492 81.8607 42.8749 81.8607ZM42.8749 68.2545C41.657 68.2545 40.5405 68.5396 39.5538 69.0986C38.5671 69.6576 37.7777 70.4458 37.2082 71.452C36.6387 72.4583 36.3455 73.6098 36.3455 74.8788C36.3455 76.1477 36.633 77.3048 37.2082 78.311C37.7777 79.3172 38.5671 80.1166 39.5538 80.6756C40.5405 81.2346 41.657 81.5197 42.8749 81.5197C44.0928 81.5197 45.2093 81.2346 46.196 80.6756C47.1828 80.1166 47.9721 79.3228 48.5416 78.311C49.1111 77.2992 49.4043 76.1421 49.4043 74.8788C49.4043 73.6098 49.1168 72.4583 48.5416 71.452C47.9721 70.4514 47.1828 69.6576 46.196 69.0986C45.2036 68.534 44.0872 68.2545 42.8749 68.2545ZM42.8749 79.3955C42.063 79.3955 41.3356 79.211 40.7153 78.8421C40.0951 78.4731 39.5989 77.9421 39.255 77.2545C38.911 76.5725 38.7306 75.7731 38.7306 74.8676C38.7306 73.9676 38.9054 73.1626 39.255 72.4806C39.6045 71.793 40.0951 71.262 40.7153 70.893C41.3356 70.5241 42.063 70.3396 42.8749 70.3396C43.6869 70.3396 44.4142 70.5241 45.0345 70.893C45.6547 71.262 46.1453 71.793 46.4948 72.4806C46.8388 73.1626 47.0192 73.962 47.0192 74.8676C47.0192 75.7676 46.8444 76.5725 46.4948 77.2545C46.1453 77.9421 45.6547 78.4731 45.0345 78.8421C44.4142 79.211 43.6869 79.3955 42.8749 79.3955ZM42.8749 70.6974C42.125 70.6974 41.4596 70.8651 40.8958 71.2005C40.3319 71.5303 39.8865 72.0166 39.5651 72.6427C39.2437 73.2744 39.0802 74.0235 39.0802 74.8676C39.0802 75.7117 39.2437 76.4607 39.5651 77.0924C39.8808 77.7185 40.3319 78.2048 40.8958 78.5346C41.4596 78.87 42.125 79.0377 42.8749 79.0377C43.6248 79.0377 44.2902 78.87 44.854 78.5346C45.4179 78.2048 45.8633 77.7185 46.1847 77.0924C46.5061 76.4607 46.6696 75.7117 46.6696 74.8676C46.6696 74.0235 46.5061 73.2744 46.1847 72.6427C45.8633 72.0166 45.4179 71.5303 44.854 71.2005C44.2845 70.8707 43.6192 70.6974 42.8749 70.6974Z" fill="#7D7D7D"/>
<path d="M70.8983 59.8305L64.9271 43.966C64.8482 43.7592 64.6508 43.625 64.4309 43.625C64.211 43.625 64.0137 43.7592 63.9347 43.966L57.9635 59.8305C57.9579 59.8417 57.9635 59.8529 57.9579 59.8585C57.9522 59.8864 57.9466 59.9144 57.941 59.9423C57.9353 59.9647 57.9297 59.987 57.9297 60.015V81.4975C57.9297 81.7882 58.1665 82.023 58.4597 82.023C58.7529 82.023 58.9897 81.7882 58.9897 81.4975V61.0715L61.0985 62.6479V81.4975C61.0985 81.7882 61.3354 82.023 61.6286 82.023C61.9218 82.023 62.1586 81.7882 62.1586 81.4975V62.6144L64.4027 60.5572L66.6469 62.6199V81.4975C66.6469 81.7882 66.8837 82.023 67.1769 82.023C67.4701 82.023 67.7069 81.7882 67.7069 81.4975V62.6367L69.8609 60.8479V81.5031C69.8609 81.7938 70.0977 82.0286 70.3909 82.0286C70.6841 82.0286 70.9209 81.7938 70.9209 81.5031V60.0206C70.9322 59.9535 70.9209 59.8864 70.8983 59.8305ZM64.4309 45.6542L65.7842 49.2542H63.0777L64.4309 45.6542ZM64.0475 59.456L61.6004 61.7032L59.0969 59.8305L62.683 50.3051H66.1845L69.6917 59.6237L67.2051 61.692L64.7692 59.456C64.5663 59.2659 64.2505 59.2659 64.0475 59.456Z" fill="#7D7D7D"/>
<path d="M53.7851 0.855338V2.14107H55.5556V2.89571H53.7851V4.23174H55.7643V5.02551H52.7871V0.0727539H55.7643V0.860933H53.7851V0.855338Z" fill="#7D7D7D"/>
<path d="M63.2862 4.3658C63.1565 4.57822 62.9705 4.7515 62.7224 4.88007C62.4743 5.00864 62.1698 5.07574 61.8089 5.07574C61.4537 5.07574 61.1379 5.01425 60.8616 4.89686C60.5854 4.77947 60.3598 4.60615 60.1907 4.38255C60.0215 4.15895 59.9257 3.89624 59.9031 3.59438H60.9631C60.9857 3.79562 61.0703 3.96333 61.2056 4.09749C61.3466 4.23165 61.527 4.29872 61.7638 4.29872C61.9724 4.29872 62.1303 4.24283 62.2431 4.13103C62.3559 4.01923 62.4122 3.87947 62.4122 3.70618C62.4122 3.54966 62.3671 3.42669 62.2769 3.32607C62.1867 3.22545 62.0739 3.14716 61.9386 3.08567C61.8033 3.02418 61.6116 2.95713 61.3748 2.87328C61.0646 2.77266 60.8109 2.66642 60.6136 2.5658C60.4162 2.46518 60.247 2.31985 60.1061 2.1242C59.9651 1.93414 59.8975 1.68257 59.8975 1.37512C59.8975 0.950281 60.0497 0.614887 60.3598 0.368926C60.6699 0.122965 61.0759 0 61.589 0C62.119 0 62.5363 0.128566 62.8521 0.380117C63.1678 0.631668 63.3426 0.967067 63.3877 1.39191H62.3108C62.2826 1.21303 62.2093 1.06767 62.0852 0.955871C61.9612 0.838481 61.7976 0.782582 61.5834 0.782582C61.3973 0.782582 61.2507 0.832897 61.1379 0.927928C61.0252 1.02296 60.9688 1.16271 60.9688 1.34718C60.9688 1.49252 61.0139 1.61551 61.0985 1.71054C61.183 1.80557 61.2958 1.88382 61.4311 1.94531C61.5665 2.00681 61.7469 2.07388 61.9781 2.14655C62.2995 2.25835 62.5589 2.36456 62.7618 2.45959C62.9648 2.56021 63.134 2.70557 63.2749 2.90122C63.4159 3.09687 63.4892 3.35401 63.4892 3.67265C63.4779 3.91861 63.4103 4.15338 63.2862 4.3658Z" fill="#7D7D7D"/>
<path d="M71.1469 0.0673828V0.855552H69.7654V5.02008H68.7674V0.855552H67.3916V0.0673828H71.1469Z" fill="#7D7D7D"/>
<path d="M46.3371 9.92784C46.3371 9.70983 46.2864 9.53654 46.1792 9.40797C46.0721 9.2794 45.9086 9.2179 45.6774 9.2179C45.2094 9.2179 44.9613 9.53094 44.9331 10.1626H43.9633C43.9915 9.58125 44.1719 9.13404 44.499 8.83218C44.8316 8.53032 45.2489 8.37939 45.7507 8.37939C46.2638 8.37939 46.6585 8.51357 46.9348 8.7763C47.2111 9.03903 47.3464 9.39117 47.3464 9.83278C47.3464 10.1794 47.2449 10.526 47.0363 10.8726C46.8333 11.2191 46.5683 11.5433 46.2525 11.834C45.9368 12.1247 45.6041 12.3762 45.2545 12.5887H47.4423V13.3936H43.9238V12.6558C45.5364 11.5601 46.3371 10.6489 46.3371 9.92784Z" fill="#7D7D7D"/>
<path d="M51.5527 10.9235C51.5527 9.2465 52.1899 8.41357 53.4642 8.41357C54.1408 8.41357 54.6257 8.63719 54.9246 9.08999C55.2234 9.53721 55.37 10.1521 55.37 10.9291C55.37 11.7118 55.2234 12.3267 54.9246 12.7739C54.6257 13.2211 54.1408 13.4447 53.4642 13.4447C52.1899 13.4391 51.5527 12.6006 51.5527 10.9235ZM54.3833 10.9235C54.3833 10.4204 54.3213 10.0291 54.1972 9.75522C54.0732 9.48131 53.8307 9.34712 53.4642 9.34712C53.0977 9.34712 52.8496 9.48131 52.7256 9.75522C52.6015 10.0291 52.5395 10.4204 52.5395 10.9235C52.5395 11.4322 52.6015 11.8236 52.7256 12.0975C52.8496 12.3714 53.0977 12.5056 53.4642 12.5056C53.8251 12.5056 54.0732 12.3714 54.1972 12.0975C54.3213 11.8236 54.3833 11.4322 54.3833 10.9235Z" fill="#7D7D7D"/>
<path d="M61.894 9.92782C61.894 9.70981 61.8432 9.53653 61.7361 9.40796C61.629 9.27939 61.4654 9.21789 61.2399 9.21789C60.7719 9.21789 60.5238 9.53092 60.4956 10.1626H59.5258C59.554 9.58123 59.7344 9.13404 60.0615 8.83218C60.3941 8.53032 60.8114 8.37939 61.3132 8.37939C61.8263 8.37939 62.221 8.51357 62.4973 8.77629C62.7736 9.03902 62.9089 9.39116 62.9089 9.83277C62.9089 10.1793 62.8074 10.5259 62.5988 10.8725C62.3958 11.2191 62.1308 11.5433 61.815 11.834C61.4993 12.1247 61.1666 12.3762 60.817 12.5886H63.0048V13.3936H59.4863V12.6557C61.0933 11.5601 61.894 10.6489 61.894 9.92782Z" fill="#7D7D7D"/>
<path d="M67.1035 10.9235C67.1035 9.2465 67.7407 8.41357 69.015 8.41357C69.6916 8.41357 70.1765 8.63719 70.4754 9.08999C70.7742 9.53721 70.9208 10.1521 70.9208 10.9291C70.9208 11.7118 70.7742 12.3267 70.4754 12.7739C70.1765 13.2211 69.6916 13.4447 69.015 13.4447C67.7407 13.4391 67.1035 12.6006 67.1035 10.9235ZM69.9341 10.9235C69.9341 10.4204 69.872 10.0291 69.748 9.75522C69.6239 9.48131 69.3758 9.34712 69.015 9.34712C68.6485 9.34712 68.4004 9.48131 68.2763 9.75522C68.1523 10.0291 68.0903 10.4204 68.0903 10.9235C68.0903 11.4322 68.1523 11.8236 68.2763 12.0975C68.4004 12.3714 68.6485 12.5056 69.015 12.5056C69.3758 12.5056 69.6239 12.3714 69.748 12.0975C69.872 11.8236 69.9341 11.4322 69.9341 10.9235Z" fill="#7D7D7D"/>
</svg>
