<svg width="101" height="101" viewBox="0 0 101 101" fill="none" xmlns="http://www.w3.org/2000/svg">
<path d="M19.1642 43.1687L18.4435 43.1416L17.4498 43.1578C16.953 43.1741 16.5926 43.1849 16.3687 43.1849C16.3141 43.1849 16.2595 43.1633 16.2049 43.1254C16.1503 43.0821 16.123 43.0388 16.123 42.9792C16.123 42.8222 16.2104 42.7248 16.3851 42.6761C16.7455 42.6057 16.9857 42.5083 17.1113 42.3946C17.2369 42.2809 17.2969 42.0861 17.2969 41.81V35.5852C17.2969 35.2929 17.2369 35.0872 17.1167 34.9681C16.9966 34.849 16.7509 34.7462 16.3851 34.665C16.2104 34.6217 16.123 34.5188 16.123 34.3619C16.123 34.3077 16.1503 34.259 16.2049 34.2157C16.2595 34.1724 16.3141 34.1562 16.3687 34.1562C16.7073 34.1562 17.0676 34.1724 17.4498 34.1995C17.9467 34.2157 18.2797 34.2265 18.4435 34.2265C18.5909 34.2265 19.0059 34.2103 19.6884 34.1724C20.7039 34.1291 21.2608 34.1021 21.3646 34.1021C22.2218 34.1021 23.0244 34.2915 23.7669 34.665C24.5095 35.0385 25.0991 35.5635 25.5468 36.2401C25.9891 36.9168 26.213 37.6854 26.213 38.546C26.213 39.3688 26.0219 40.1374 25.6342 40.8574C25.2465 41.5773 24.6787 42.151 23.9253 42.5841C23.1718 43.0171 22.2818 43.2336 21.2499 43.2336C20.824 43.239 20.1361 43.2174 19.1642 43.1687ZM23.0134 41.5448C23.4557 40.9169 23.6796 40.0508 23.6796 38.9466C23.6796 37.7016 23.4448 36.7165 22.9752 35.9912C22.5057 35.2658 21.8068 34.9032 20.8895 34.9032C20.42 34.9032 20.0979 34.9302 19.9231 34.9789C19.7484 35.0277 19.6611 35.1576 19.6611 35.3578V41.3066C19.6611 41.7288 19.7703 42.0265 19.9887 42.2106C20.2071 42.3946 20.551 42.4866 21.0315 42.4866C21.9051 42.4866 22.5712 42.1727 23.0134 41.5448Z" fill="#7D7D7D"/>
<path d="M30.16 43.1414C30.1163 43.0981 30.089 43.0439 30.089 42.9898C30.089 42.9357 30.1163 42.8815 30.1655 42.8274C30.2146 42.7733 30.2856 42.73 30.3675 42.7029C30.6896 42.6109 30.908 42.5135 31.0227 42.3998C31.1373 42.2915 31.1974 42.1021 31.1974 41.8368V35.5848C31.1974 35.2925 31.1428 35.0868 31.0336 34.9623C30.9244 34.8379 30.7006 34.7404 30.3675 34.67C30.1764 34.6267 30.0781 34.5293 30.0781 34.3832C30.0781 34.3182 30.1054 34.2641 30.1546 34.2262C30.2037 34.1829 30.2692 34.1666 30.3566 34.1666C30.6896 34.1666 31.0336 34.1829 31.394 34.2099C31.8526 34.2262 32.1747 34.237 32.3495 34.237C33.5834 34.237 34.659 34.2208 35.5708 34.1937C35.8547 34.1937 36.1004 34.1775 36.297 34.1396C36.4935 34.1017 36.6082 34.0854 36.6355 34.0854C36.7174 34.0854 36.7993 34.1071 36.8703 34.1558C36.9412 34.2045 36.9849 34.2749 36.9958 34.3777C37.0231 34.6809 37.0668 34.9569 37.1214 35.2168C37.1924 35.731 37.2306 36.0666 37.2306 36.229C37.2306 36.3102 37.2142 36.3751 37.1815 36.4293C37.1487 36.478 37.105 36.505 37.0504 36.505C36.9958 36.505 36.9412 36.4834 36.8921 36.4455C36.843 36.4022 36.7993 36.3481 36.7611 36.2723C36.6246 35.9367 36.5208 35.6985 36.4553 35.574C36.3898 35.4441 36.3134 35.3358 36.2205 35.2438C36.0895 35.1139 35.9475 35.0111 35.7892 34.9299C35.6309 34.8487 35.4398 34.8054 35.2104 34.8054H34.3369C34.1075 34.8054 33.9164 34.8649 33.769 34.9786C33.6216 35.0923 33.5452 35.2438 33.5452 35.4387V37.9611C33.5452 38.1831 33.6653 38.2913 33.9055 38.2913H35.0794C35.2924 38.2913 35.4507 38.221 35.5544 38.0856C35.6582 37.9503 35.7674 37.7338 35.882 37.4415C35.953 37.2791 36.0513 37.1925 36.1714 37.1925C36.2151 37.1925 36.2588 37.225 36.297 37.2791C36.3352 37.3386 36.3461 37.4144 36.3407 37.5064C36.297 37.9449 36.2697 38.3238 36.2697 38.6432C36.2697 39.0383 36.2861 39.4172 36.3243 39.7799V39.8882C36.3243 40.0722 36.2806 40.1642 36.1878 40.1642C36.1223 40.1642 36.0567 40.1317 35.9967 40.0668C35.9312 40.0018 35.8875 39.9261 35.8602 39.834C35.7783 39.5255 35.68 39.2927 35.5708 39.1466C35.4616 39.0004 35.3197 38.9246 35.1559 38.9246H33.8564C33.6544 38.9246 33.5506 39.0275 33.5506 39.2386V41.8314C33.5506 42.0804 33.6052 42.259 33.709 42.3673C33.8127 42.4756 33.9874 42.5297 34.2277 42.5297H35.4561C35.882 42.5297 36.2151 42.4268 36.4662 42.2157C36.7338 41.9938 36.9958 41.6311 37.2525 41.1169C37.3071 41.0086 37.3944 40.9545 37.5145 40.9545C37.6074 40.9545 37.651 41.0465 37.651 41.2306C37.651 41.393 37.6292 41.5716 37.5801 41.7665C37.5364 41.9559 37.4599 42.2103 37.3562 42.5189L37.2033 43.0385C37.1651 43.1468 37.0559 43.2009 36.8703 43.2009L36.3297 43.1847C34.5334 43.1576 33.2012 43.1414 32.3331 43.1414C32.0219 43.1414 31.6833 43.1576 31.323 43.1847C30.8425 43.2009 30.5149 43.2117 30.3402 43.2117C30.2692 43.2117 30.2092 43.1901 30.16 43.1414Z" fill="#7D7D7D"/>
<path d="M42.0141 42.7736C41.8558 42.6815 41.752 42.5679 41.6974 42.4325C41.5336 42.0049 41.4463 41.4474 41.4463 40.7599C41.4463 40.5705 41.4517 40.4243 41.4627 40.3215C41.4627 40.2024 41.55 40.1429 41.7247 40.1429C41.8176 40.1429 41.8831 40.1537 41.9158 40.1754C41.9541 40.197 41.9868 40.2457 42.025 40.3215C42.2489 41.036 42.5656 41.6044 42.9805 42.0374C43.3955 42.465 43.8759 42.6815 44.4165 42.6815C44.815 42.6815 45.1154 42.5516 45.3283 42.2918C45.5412 42.032 45.645 41.7397 45.645 41.4203C45.645 41.036 45.5303 40.7275 45.301 40.4893C45.0717 40.2511 44.6622 39.9751 44.0725 39.6503C43.5538 39.3742 43.1389 39.1252 42.8276 38.8979C42.5164 38.6706 42.2489 38.3728 42.0305 38.0156C41.8121 37.6529 41.7029 37.2253 41.7029 36.7219C41.7029 36.1914 41.8503 35.7259 42.1452 35.3145C42.44 34.9085 42.8386 34.5946 43.3463 34.3727C43.8541 34.1507 44.4056 34.0425 45.0061 34.0425C45.3392 34.0425 45.6723 34.075 46.0108 34.1453C46.3493 34.2157 46.6277 34.2915 46.8461 34.3835C46.9663 34.4322 47.0482 34.4809 47.0973 34.5351C47.141 34.5892 47.1901 34.692 47.2338 34.8382C47.3266 35.2063 47.3703 35.7584 47.3703 36.5C47.3703 36.5433 47.3485 36.5866 47.2993 36.6245C47.2502 36.6623 47.1901 36.6786 47.1082 36.6786C47.0263 36.6786 46.9499 36.6569 46.8844 36.619C46.8188 36.5757 46.7806 36.527 46.7588 36.4621C46.6114 35.9045 46.382 35.4769 46.0654 35.1846C45.7542 34.8923 45.3665 34.7462 44.9188 34.7462C44.0998 34.7462 43.6903 35.1359 43.6903 35.9099C43.6903 36.1914 43.8377 36.4621 44.1271 36.7111C44.4165 36.9601 44.8915 37.2794 45.5467 37.6637C46.3329 38.1293 46.868 38.5731 47.1574 39.0007C47.4467 39.4284 47.5941 39.9426 47.5941 40.5543C47.5941 41.4961 47.2993 42.1944 46.7042 42.6545C46.109 43.1092 45.2846 43.3419 44.2363 43.3419C43.3846 43.3365 42.642 43.1471 42.0141 42.7736Z" fill="#7D7D7D"/>
<path d="M51.6952 43.1201C51.6406 43.0768 51.6133 43.0335 51.6133 42.974C51.6133 42.817 51.7006 42.7196 51.8754 42.6709C52.2357 42.6005 52.4759 42.503 52.6015 42.3894C52.7271 42.2757 52.7872 42.0808 52.7872 41.8048V35.5799C52.7872 35.2876 52.7271 35.0819 52.607 34.9628C52.4869 34.8437 52.2412 34.7409 51.8754 34.6597C51.7006 34.6164 51.6133 34.5135 51.6133 34.3566C51.6133 34.3024 51.6406 34.2537 51.6952 34.2104C51.7498 34.1671 51.8044 34.1509 51.859 34.1509C52.1975 34.1509 52.5578 34.1671 52.94 34.1942C53.4369 34.2104 53.7699 34.2212 53.9337 34.2212C54.1085 34.2212 54.4524 34.2104 54.9711 34.1942C55.5062 34.1779 55.8775 34.1671 56.0795 34.1671C56.2269 34.1671 56.3033 34.2375 56.3033 34.3728C56.3033 34.454 56.2815 34.519 56.2433 34.5568C56.1996 34.6002 56.1341 34.6326 56.0413 34.6597C55.6645 34.768 55.4188 34.8816 55.3096 35.0007C55.2004 35.1198 55.1458 35.3147 55.1458 35.5907V41.7885C55.1458 42.0429 55.2059 42.2324 55.326 42.3461C55.4461 42.4597 55.6864 42.568 56.0467 42.6709C56.1395 42.6979 56.2051 42.7304 56.2487 42.7737C56.2924 42.817 56.3088 42.8765 56.3088 42.9577C56.3088 43.0931 56.2324 43.1634 56.0849 43.1634C55.8829 43.1634 55.5117 43.1526 54.9766 43.1364C54.4579 43.1201 54.1139 43.1093 53.9392 43.1093C53.7754 43.1093 53.4424 43.1201 52.9455 43.1364C52.5742 43.1634 52.2193 43.1797 51.8644 43.1797C51.8098 43.1851 51.7552 43.1634 51.6952 43.1201Z" fill="#7D7D7D"/>
<path d="M62.5762 42.7681C61.8337 42.3892 61.2494 41.8588 60.8181 41.1713C60.3868 40.4839 60.1738 39.7044 60.1738 38.8275C60.1738 37.9939 60.3868 37.2091 60.8181 36.4783C61.2494 35.7421 61.8609 35.1521 62.6581 34.7083C63.4552 34.2644 64.378 34.0425 65.4317 34.0425C65.8085 34.0425 66.2889 34.0912 66.8622 34.194C67.441 34.2969 67.8887 34.4106 68.2108 34.5351C68.3856 34.6108 68.4893 34.7299 68.5166 34.9031C68.6258 35.6501 68.6804 36.2077 68.6804 36.5649C68.6804 36.6569 68.6586 36.7273 68.6203 36.7706C68.5767 36.8139 68.5221 36.841 68.4456 36.841C68.3419 36.841 68.2654 36.8193 68.2108 36.7706C68.1562 36.7273 68.1071 36.6569 68.058 36.5649C67.8177 36.0507 67.5775 35.6772 67.3373 35.439C67.1352 35.2387 66.9059 35.0818 66.6438 34.9681C66.3872 34.8544 66.0651 34.7949 65.6774 34.7949C65.0495 34.7949 64.509 34.9627 64.0613 35.2929C63.6081 35.6285 63.2696 36.0723 63.0458 36.6245C62.8219 37.1766 62.7072 37.7774 62.7072 38.427C62.7072 39.7152 62.9147 40.7275 63.3351 41.4582C63.7555 42.189 64.3998 42.557 65.2625 42.557C65.5027 42.557 65.7648 42.4542 66.0487 42.2539C66.1415 42.189 66.2125 42.0807 66.2617 41.9291C66.3108 41.7776 66.3436 41.6044 66.349 41.3987C66.3654 41.0901 66.3763 40.6842 66.3763 40.1916C66.3763 39.9534 66.2562 39.791 66.016 39.699C65.7375 39.5907 65.4754 39.5096 65.2297 39.45C65.1369 39.4229 65.055 39.3796 64.9895 39.3255C64.9185 39.2714 64.8857 39.2064 64.8857 39.1361C64.8857 39.0711 64.913 39.0224 64.9731 38.9845C65.0332 38.9466 65.1041 38.9304 65.186 38.9304C65.5355 38.9304 65.9177 38.9466 66.3326 38.9737C66.8677 38.9899 67.2171 39.0007 67.3864 39.0007C67.5611 39.0007 67.8505 38.9899 68.26 38.9737C68.6859 38.9574 68.9971 38.9466 69.1991 38.9466C69.3465 38.9466 69.4229 39.017 69.4229 39.1523C69.4229 39.2335 69.4011 39.2984 69.3629 39.3418C69.3192 39.3851 69.2537 39.4175 69.1609 39.4392C68.8933 39.515 68.7077 39.5962 68.6094 39.6882C68.5057 39.7802 68.4402 39.9209 68.4019 40.1158C68.3364 40.4243 68.3037 40.7708 68.3037 41.1443V41.6098C68.3037 41.6639 68.3364 41.7234 68.391 41.783C68.4511 41.8425 68.4838 41.875 68.4948 41.8858C68.5876 41.9779 68.6313 42.0753 68.6313 42.189C68.6313 42.2647 68.6094 42.3297 68.5603 42.3892C68.5166 42.4488 68.4402 42.4813 68.3364 42.4921C68.2709 42.5029 68.1453 42.5516 67.9488 42.6437C67.5338 42.8331 67.097 43.0009 66.6329 43.1362C66.1743 43.2715 65.6338 43.3419 65.0168 43.3419C64.1323 43.3365 63.3188 43.1471 62.5762 42.7681Z" fill="#7D7D7D"/>
<path d="M81.8659 43.1636C81.5929 43.0013 81.3199 42.7577 81.0414 42.4329L75.6634 36.771C75.5979 36.6789 75.5488 36.6356 75.5105 36.6356C75.445 36.6356 75.4123 36.7222 75.4123 36.8955C75.4123 37.5612 75.4286 38.3191 75.4559 39.1581C75.4669 39.4883 75.4723 39.8618 75.4832 40.284C75.4942 40.7062 75.4996 41.1446 75.4996 41.5993C75.4996 41.9024 75.5924 42.1352 75.7835 42.2976C75.9746 42.46 76.2585 42.5899 76.6462 42.6819C76.8974 42.7468 77.0175 42.8443 77.0175 42.9688C77.0175 43.0337 76.9847 43.0824 76.9137 43.1203C76.8428 43.1582 76.7663 43.1745 76.6844 43.1745C76.3896 43.1745 76.0838 43.1636 75.7726 43.1474L75.0956 43.1312C74.828 43.1312 74.566 43.1366 74.3094 43.1528C74.0527 43.1691 73.8835 43.1799 73.8125 43.1853C73.747 43.1853 73.676 43.1636 73.605 43.1258C73.5286 43.0825 73.4958 43.0391 73.4958 42.9796C73.4958 42.9038 73.5231 42.8497 73.5777 42.8064C73.6323 42.7631 73.7142 42.7198 73.8289 42.6765C74.2438 42.5141 74.4732 42.1406 74.5223 41.5668C74.7134 39.537 74.8117 37.7399 74.8117 36.1809C74.8117 35.7533 74.7079 35.4285 74.5005 35.2066C74.293 34.9847 73.9872 34.8006 73.5832 34.6437C73.332 34.5787 73.2119 34.4813 73.2119 34.3405C73.2119 34.1944 73.332 34.124 73.5723 34.124L74.626 34.1511C75.7344 34.1782 76.3186 34.1944 76.3841 34.1944C76.5042 34.1944 76.5971 34.2431 76.6626 34.3297L81.7676 39.9375C81.8604 40.0458 81.9259 40.0999 81.9587 40.0999C82.0297 40.0999 82.0679 40.035 82.0679 39.9105V38.4706C82.0679 37.047 82.0515 36.0781 82.0242 35.5639C82.0133 35.3095 81.9259 35.12 81.7621 35.0009C81.5983 34.8818 81.3253 34.7736 80.9486 34.6707C80.7357 34.6166 80.6319 34.5192 80.6319 34.3838C80.6319 34.3297 80.6592 34.281 80.7193 34.2377C80.7794 34.1944 80.8449 34.1782 80.9213 34.1782L81.8222 34.1944C81.9423 34.2052 82.1334 34.2106 82.39 34.2106L83.0288 34.1944C83.3237 34.1782 83.6021 34.1673 83.8587 34.1673C83.9625 34.1673 84.0389 34.1836 84.099 34.2215C84.159 34.2594 84.1863 34.3081 84.1863 34.373C84.1863 34.5192 84.0717 34.6166 83.8424 34.6599C83.5093 34.7249 83.2745 34.8169 83.138 34.9414C83.0015 35.0659 82.9306 35.2607 82.9306 35.526C82.9306 36.0727 82.8978 37.1174 82.8323 38.6547C82.7886 39.5532 82.7613 40.2731 82.7613 40.8198C82.7613 41.0309 82.7777 41.2908 82.8104 41.5939C82.8432 41.9024 82.865 42.0973 82.8705 42.1893C82.9087 42.5357 82.9251 42.7198 82.9251 42.736C82.9251 43.1853 82.7886 43.4072 82.5265 43.4072C82.3518 43.4018 82.1389 43.326 81.8659 43.1636Z" fill="#7D7D7D"/>
<path d="M0.0818955 67.8733C0.0382161 67.83 0.010918 67.7759 0.010918 67.7218C0.010918 67.6676 0.0382173 67.6135 0.0873566 67.554C0.136496 67.4998 0.207476 67.4565 0.289375 67.4295C0.61151 67.3375 0.829906 67.24 0.944564 67.1264C1.05922 67.0181 1.11928 66.8286 1.11928 66.5634V60.3115C1.11928 60.0192 1.06468 59.8135 0.955486 59.689C0.846288 59.5645 0.62243 59.467 0.289375 59.3967C0.0982779 59.3534 0 59.2559 0 59.1098C0 59.0448 0.0272993 58.9907 0.0764385 58.9528C0.125578 58.9095 0.196554 58.8933 0.278453 58.8933C0.611508 58.8933 0.977326 58.9095 1.38682 58.9474C1.75809 58.9853 2.04747 59.0015 2.26041 59.0015C2.44604 59.0015 2.71358 58.9853 3.06302 58.9474C3.50527 58.8933 3.92568 58.8662 4.32426 58.8662C5.45992 58.8662 6.30621 59.0232 6.86312 59.3371C7.42003 59.6511 7.69849 60.1761 7.69849 60.9069C7.69849 61.1829 7.63297 61.4428 7.49647 61.6972C7.35997 61.9516 7.17979 62.1681 6.95048 62.363C6.64472 62.6174 6.30621 62.7906 5.92401 62.8718C5.88579 62.8826 5.86941 62.9043 5.86941 62.9422C5.86941 62.98 5.88579 63.0017 5.92401 63.0125C6.56828 63.1316 7.10881 63.3481 7.54015 63.6729C7.97148 63.9923 8.18988 64.5119 8.18988 65.221C8.18988 65.6973 8.11344 66.0871 7.96056 66.3848C7.80768 66.6879 7.63297 66.9152 7.43641 67.0722C7.23985 67.2292 6.99962 67.3753 6.72662 67.5107C6.12603 67.7921 5.31796 67.9383 4.30788 67.9383C4.07856 67.9383 3.74005 67.9275 3.29779 67.9112C2.85554 67.895 2.51156 67.8842 2.27679 67.8842C1.97103 67.8842 1.63251 67.9004 1.25578 67.9275C0.797146 67.9437 0.469552 67.9545 0.289375 67.9545C0.191097 67.9437 0.125575 67.9166 0.0818955 67.8733ZM4.59179 62.7473C4.75559 62.6932 4.91939 62.5957 5.07772 62.4604C5.17054 62.3684 5.2579 62.2222 5.34526 62.0165C5.43262 61.8108 5.4763 61.5456 5.4763 61.2263C5.4763 60.6254 5.3671 60.187 5.14871 59.9163C4.93031 59.6457 4.60817 59.5103 4.17138 59.5103C3.70183 59.5103 3.46705 59.7052 3.46705 60.0841V62.3467C3.46705 62.4929 3.52711 62.612 3.64177 62.6986C3.75642 62.7852 3.87654 62.8285 4.00758 62.8285C4.23144 62.8285 4.42253 62.8014 4.59179 62.7473ZM4.96853 66.8936C5.18692 66.7312 5.35618 66.5147 5.48722 66.244C5.61826 65.968 5.67831 65.6649 5.67831 65.3238C5.67831 64.6364 5.47084 64.1276 5.05588 63.7866C4.97398 63.7162 4.84295 63.6458 4.66823 63.5809C4.49351 63.5159 4.29696 63.4834 4.0731 63.4834C3.92568 63.4834 3.78918 63.5213 3.65814 63.5917C3.52711 63.6621 3.46705 63.7757 3.46705 63.9219V66.2819C3.46705 66.558 3.53803 66.7637 3.67452 66.9152C3.81102 67.0614 4.00758 67.1318 4.25328 67.1318C4.51535 67.1318 4.75559 67.0506 4.96853 66.8936Z" fill="#7D7D7D"/>
<path d="M19.1638 67.8029C18.7597 67.5647 18.3885 67.2291 18.0554 66.7907C17.7224 66.3414 17.4275 65.9138 17.1709 65.5024C16.9143 65.091 16.6631 64.6255 16.4229 64.1059C16.3301 63.9056 16.2209 63.7703 16.0898 63.6945C15.9861 63.6295 15.8769 63.597 15.7568 63.597C15.664 63.597 15.6203 63.6891 15.6203 63.8731V66.5363C15.6203 66.8123 15.6967 67.0018 15.8496 67.11C16.0025 67.2183 16.2864 67.3211 16.7013 67.4132C16.7942 67.4294 16.8597 67.4619 16.9034 67.5106C16.947 67.5539 16.9634 67.6189 16.9634 67.7001C16.9634 67.8354 16.887 67.9057 16.7396 67.9057L15.5384 67.8787L14.4191 67.8516C14.2553 67.8516 13.9222 67.8624 13.4254 67.8787C13.0541 67.9057 12.6992 67.922 12.3443 67.922C12.2897 67.922 12.2351 67.9003 12.1805 67.8624C12.1259 67.8191 12.0986 67.7758 12.0986 67.7163C12.0986 67.5593 12.186 67.4619 12.3607 67.4132C12.7211 67.3428 12.9613 67.2454 13.0869 67.1317C13.2125 67.018 13.2725 66.8232 13.2725 66.5471V60.3222C13.2725 60.0299 13.2179 59.8242 13.1087 59.6997C12.9995 59.5752 12.7757 59.4778 12.4426 59.4074C12.2515 59.3641 12.1532 59.2667 12.1532 59.1205C12.1532 59.0556 12.1805 59.0015 12.2297 58.9636C12.2788 58.9203 12.3498 58.904 12.4317 58.904C12.7647 58.904 13.1306 58.9203 13.5401 58.9582C13.9059 58.996 14.2007 59.0123 14.4136 59.0123C14.5884 59.0123 14.845 58.996 15.1726 58.9582C15.5766 58.904 15.9861 58.877 16.4011 58.877C17.5094 58.877 18.3557 59.061 18.9399 59.4237C19.5241 59.7917 19.819 60.3384 19.819 61.0692C19.819 61.6267 19.6442 62.076 19.2948 62.417C18.9454 62.758 18.514 63.007 18.0063 63.1532C17.979 63.164 17.9626 63.1857 17.9626 63.2235C17.9626 63.2614 17.9735 63.2939 17.9899 63.321C18.4485 64.0084 18.8744 64.5984 19.262 65.1018C19.6497 65.6052 20.0264 66.0275 20.3977 66.3793C20.6816 66.6445 20.9819 66.8123 21.2877 66.8881C21.5989 66.9585 21.9702 66.9964 22.4015 66.9964C22.538 66.9964 22.609 67.083 22.609 67.2562C22.609 67.8679 22.0193 68.1764 20.84 68.1764C20.1302 68.1602 19.5733 68.0411 19.1638 67.8029ZM17.1927 62.6606C17.4384 62.3521 17.5586 61.9244 17.5586 61.3831C17.5586 60.7444 17.4384 60.2681 17.1982 59.965C16.958 59.6564 16.614 59.5049 16.1608 59.5049C15.9697 59.5049 15.8278 59.5915 15.7459 59.7593C15.664 59.9271 15.6203 60.2627 15.6203 60.7661V62.6011C15.6203 62.9475 15.7841 63.1207 16.1062 63.1207C16.5867 63.1261 16.9525 62.9746 17.1927 62.6606Z" fill="#7D7D7D"/>
<path d="M25.793 67.7112C25.793 67.6301 25.8203 67.5651 25.8694 67.5272C25.9186 67.4839 25.995 67.446 26.0987 67.4081C26.3772 67.3378 26.612 67.2187 26.8085 67.0671C27.0051 66.9101 27.1525 66.7315 27.2453 66.5312C28.1189 64.5122 28.9106 62.5256 29.6095 60.5824C29.7187 60.2793 29.806 60.0086 29.8715 59.765C29.9371 59.5214 29.9753 59.4024 29.9971 59.4024C30.3957 59.3103 30.7397 59.2129 31.0345 59.1155C31.1928 59.0613 31.3403 58.9856 31.4768 58.8935C31.6132 58.8015 31.7224 58.7149 31.7934 58.6337C31.8699 58.5958 31.9135 58.5796 31.9299 58.5796C31.9736 58.5796 32.0118 58.6121 32.0391 58.677C32.1046 58.8123 32.1538 58.9423 32.192 59.0613C32.7653 60.9072 33.3932 62.8721 34.0866 64.9561L34.5998 66.5312C34.7309 66.9534 35.0967 67.2457 35.7082 67.4081C35.8119 67.446 35.8884 67.4785 35.9375 67.5164C35.9866 67.5543 36.0139 67.6138 36.0139 67.695C36.0139 67.76 35.9866 67.8087 35.9375 67.8466C35.8884 67.8845 35.8229 67.9007 35.7519 67.9007C35.5662 67.9007 35.2004 67.8899 34.6435 67.8736C34.0702 67.8574 33.6771 67.8466 33.4532 67.8466C33.2676 67.8466 32.9182 67.8574 32.3995 67.8736C31.9736 67.9007 31.5859 67.9169 31.2365 67.9169C31.1546 67.9169 31.0836 67.9007 31.029 67.8628C30.9744 67.8249 30.9471 67.7762 30.9471 67.7112C30.9471 67.5543 31.0509 67.4568 31.2529 67.4081C31.575 67.3432 31.8153 67.262 31.9627 67.17C32.1156 67.0725 32.192 66.9372 32.192 66.764C32.192 66.672 32.1811 66.6016 32.1647 66.542L31.7334 64.9506C31.717 64.8694 31.6897 64.8099 31.6569 64.772C31.6242 64.7341 31.575 64.7179 31.5095 64.7179H29.1017C29.0253 64.7179 28.9761 64.7341 28.9488 64.772C28.9215 64.8099 28.8942 64.8694 28.8669 64.9506L28.6758 65.5407C28.6485 65.6435 28.6048 65.7734 28.5502 65.9412C28.4956 66.1036 28.4465 66.2497 28.4137 66.3797C28.3755 66.4987 28.3591 66.6178 28.3591 66.7369C28.3591 66.9101 28.4247 67.0455 28.5612 67.1429C28.6922 67.2403 28.9324 67.3269 29.2709 67.4081C29.473 67.4514 29.5767 67.5543 29.5767 67.7112C29.5767 67.8412 29.4784 67.9007 29.2873 67.9007C29.0744 67.9007 28.8014 67.8899 28.4738 67.8736L27.7258 67.8574C27.4692 67.8574 27.2126 67.8736 26.9669 67.9007C26.885 67.9115 26.7594 67.9169 26.5956 67.9278C26.4318 67.9386 26.2844 67.9386 26.1533 67.9386C25.9131 67.944 25.793 67.8628 25.793 67.7112ZM31.2256 63.9222C31.3621 63.9222 31.4331 63.8897 31.4331 63.8247C31.4331 63.8139 31.4222 63.7652 31.4058 63.6732L30.5213 60.6419C30.494 60.5499 30.4667 60.5066 30.4394 60.5066C30.423 60.5066 30.3957 60.5499 30.3575 60.6419L29.2928 63.6732C29.2764 63.7111 29.2655 63.7436 29.2655 63.7814C29.2655 63.8302 29.2873 63.8626 29.3365 63.8843C29.3801 63.9059 29.4402 63.9168 29.5003 63.9168H31.2256V63.9222Z" fill="#7D7D7D"/>
<path d="M47.818 67.8947C47.545 67.7323 47.272 67.4887 46.9936 67.1585L41.6156 61.4966C41.55 61.4046 41.5009 61.3613 41.4627 61.3613C41.3972 61.3613 41.3644 61.4479 41.3644 61.6211C41.3644 62.2869 41.3808 63.0447 41.4081 63.8837C41.419 64.2139 41.4245 64.5874 41.4354 65.0096C41.4463 65.4318 41.4518 65.8702 41.4518 66.3249C41.4518 66.628 41.5446 66.8608 41.7357 67.0232C41.9268 67.1856 42.2107 67.3155 42.5984 67.4075C42.8495 67.4724 42.9696 67.5699 42.9696 67.6944C42.9696 67.7593 42.9369 67.808 42.8659 67.8459C42.7949 67.8838 42.7185 67.9001 42.6366 67.9001C42.3417 67.9001 42.036 67.8892 41.7248 67.873L41.0477 67.8568C40.7802 67.8568 40.5181 67.8622 40.2615 67.8784C40.0049 67.8947 39.8356 67.9055 39.7647 67.9109C39.6991 67.9109 39.6282 67.8892 39.5572 67.8513C39.4807 67.808 39.448 67.7647 39.448 67.7052C39.448 67.6348 39.4753 67.5753 39.5299 67.532C39.5845 67.4887 39.6664 67.4454 39.781 67.4021C40.196 67.2397 40.4253 66.8662 40.4744 66.2924C40.6655 64.2626 40.7638 62.4655 40.7638 60.9012C40.7638 60.4736 40.6601 60.1488 40.4526 59.9269C40.2451 59.7049 39.9394 59.5209 39.5353 59.3639C39.2842 59.299 39.1641 59.1961 39.1641 59.0608C39.1641 58.9146 39.2842 58.8389 39.5244 58.8389L40.5782 58.8659C41.6865 58.893 42.2708 58.9092 42.3363 58.9092C42.4564 58.9092 42.5492 58.9525 42.6147 59.0446L47.7197 64.6523C47.8126 64.7606 47.8781 64.8147 47.9108 64.8147C47.9818 64.8147 48.02 64.7498 48.02 64.6198V63.18C48.02 61.7564 48.0037 60.7875 47.9764 60.2733C47.9654 60.0189 47.8781 59.8294 47.7143 59.7103C47.5505 59.5913 47.2775 59.483 46.9008 59.3802C46.6878 59.326 46.5841 59.2286 46.5841 59.0933C46.5841 59.0391 46.6114 58.9904 46.6714 58.9471C46.7315 58.9038 46.797 58.8876 46.8735 58.8876L47.7743 58.8984C47.8945 58.9092 48.0856 58.9146 48.3422 58.9146L48.981 58.8984C49.2758 58.8822 49.5543 58.8713 49.8109 58.8713C49.9146 58.8713 49.9911 58.8876 50.0511 58.9255C50.1112 58.9634 50.1385 59.0121 50.1385 59.077C50.1385 59.2232 50.0238 59.3206 49.7945 59.3639C49.4615 59.4289 49.2267 59.5209 49.0902 59.6454C48.9537 59.7699 48.8827 59.9647 48.8827 60.23C48.8827 60.7767 48.8499 61.8214 48.7844 63.3586C48.7407 64.2572 48.7135 64.9771 48.7135 65.5238C48.7135 65.7349 48.7298 65.9947 48.7626 66.2978C48.7953 66.6064 48.8172 66.8013 48.8226 66.8933C48.8609 67.2397 48.8773 67.4237 48.8773 67.44C48.8773 67.8892 48.7462 68.1112 48.4787 68.1112C48.304 68.1328 48.091 68.0516 47.818 67.8947Z" fill="#7D7D7D"/>
<path d="M56.8273 67.9007L56.1066 67.8736L55.1129 67.8898C54.616 67.9061 54.2557 67.9169 54.0318 67.9169C53.9772 67.9169 53.9226 67.8953 53.868 67.8574C53.8134 67.8141 53.7861 67.7708 53.7861 67.7112C53.7861 67.5542 53.8735 67.4568 54.0482 67.4081C54.4086 67.3377 54.6488 67.2403 54.7744 67.1266C54.9 67.0129 54.96 66.8181 54.96 66.542V60.3171C54.96 60.0248 54.9 59.8191 54.7798 59.7001C54.6597 59.581 54.414 59.4781 54.0482 59.3969C53.8735 59.3536 53.7861 59.2508 53.7861 59.0938C53.7861 59.0397 53.8134 58.991 53.868 58.9477C53.9226 58.9044 53.9772 58.8881 54.0318 58.8881C54.3703 58.8881 54.7307 58.9044 55.1129 58.9314C55.6098 58.9477 55.9428 58.9585 56.1066 58.9585C56.254 58.9585 56.669 58.9422 57.3515 58.9044C58.367 58.8611 58.9239 58.834 59.0277 58.834C59.8849 58.834 60.6875 59.0234 61.43 59.3969C62.1726 59.7704 62.7623 60.2955 63.21 60.9721C63.6522 61.6487 63.8761 62.4174 63.8761 63.2726C63.8761 64.0954 63.685 64.864 63.2973 65.5839C62.9097 66.3038 62.3418 66.8776 61.5884 67.3106C60.8349 67.7437 59.9449 67.9602 58.913 67.9602C58.4871 67.971 57.7937 67.944 56.8273 67.9007ZM60.6711 66.2768C61.1133 65.6489 61.3372 64.7828 61.3372 63.6786C61.3372 62.4336 61.1024 61.4484 60.6329 60.7231C60.1633 59.9978 59.4645 59.6351 58.5472 59.6351C58.0776 59.6351 57.7555 59.6622 57.5808 59.7109C57.4061 59.7596 57.3187 59.8895 57.3187 60.0898V66.0386C57.3187 66.4608 57.4279 66.7585 57.6463 66.9426C57.8647 67.1266 58.2087 67.2186 58.6891 67.2186C59.5682 67.2132 60.2288 66.9047 60.6711 66.2768Z" fill="#7D7D7D"/>
<path d="M67.8231 67.8521C67.7685 67.8088 67.7412 67.7655 67.7412 67.7059C67.7412 67.5489 67.8286 67.4515 68.0033 67.4028C68.3636 67.3324 68.6039 67.235 68.7295 67.1213C68.855 67.0076 68.9151 66.8128 68.9151 66.5367V60.3118C68.9151 60.0195 68.855 59.8138 68.7349 59.6948C68.6148 59.5757 68.3691 59.4728 68.0033 59.3916C67.8286 59.3483 67.7412 59.2455 67.7412 59.0885C67.7412 59.0344 67.7685 58.9857 67.8231 58.9424C67.8777 58.8991 67.9323 58.8828 67.9869 58.8828C68.3254 58.8828 68.6858 58.8991 69.068 58.9261C69.5648 58.9424 69.8979 58.9532 70.0617 58.9532C70.2364 58.9532 70.5804 58.9424 71.0991 58.9261C71.6341 58.9099 72.0054 58.8991 72.2074 58.8991C72.3548 58.8991 72.4313 58.9694 72.4313 59.1047C72.4313 59.1859 72.4094 59.2509 72.3712 59.2888C72.3275 59.3321 72.262 59.3646 72.1692 59.3916C71.7925 59.4999 71.5468 59.6136 71.4376 59.7326C71.3284 59.8517 71.2738 60.0466 71.2738 60.3226V66.5205C71.2738 66.7749 71.3338 66.9589 71.454 67.078C71.5741 67.1917 71.8143 67.2999 72.1747 67.4028C72.2675 67.4298 72.333 67.4623 72.3767 67.5056C72.4204 67.5489 72.4367 67.6085 72.4367 67.6897C72.4367 67.825 72.3603 67.8954 72.2129 67.8954C72.0109 67.8954 71.6396 67.8845 71.1045 67.8683C70.5858 67.8521 70.2419 67.8412 70.0671 67.8412C69.9033 67.8412 69.5703 67.8521 69.0734 67.8683C68.7022 67.8954 68.3473 67.9116 67.9924 67.9116C67.9323 67.917 67.8777 67.8954 67.8231 67.8521Z" fill="#7D7D7D"/>
<path d="M84.7594 67.8947C84.4864 67.7323 84.2134 67.4887 83.935 67.1585L78.557 61.4966C78.4915 61.4046 78.4423 61.3613 78.4041 61.3613C78.3386 61.3613 78.3058 61.4479 78.3058 61.6211C78.3058 62.2869 78.3222 63.0447 78.3495 63.8837C78.3604 64.2139 78.3659 64.5874 78.3768 65.0096C78.3877 65.4318 78.3932 65.8702 78.3932 66.3249C78.3932 66.628 78.486 66.8608 78.6771 67.0232C78.8682 67.1856 79.1521 67.3155 79.5398 67.4075C79.7909 67.4724 79.911 67.5699 79.911 67.6944C79.911 67.7593 79.8783 67.808 79.8073 67.8459C79.7363 67.8838 79.6599 67.9001 79.578 67.9001C79.2831 67.9001 78.9774 67.8892 78.6662 67.873L77.9891 67.8568C77.7216 67.8568 77.4595 67.8622 77.2029 67.8784C76.9463 67.8947 76.777 67.9055 76.7061 67.9109C76.6405 67.9109 76.5696 67.8892 76.4986 67.8513C76.4221 67.808 76.3894 67.7647 76.3894 67.7052C76.3894 67.6348 76.4167 67.5753 76.4713 67.532C76.5259 67.4887 76.6078 67.4454 76.7224 67.4021C77.1374 67.2397 77.3667 66.8662 77.4158 66.2924C77.6069 64.2626 77.7052 62.4655 77.7052 60.9012C77.7052 60.4736 77.6015 60.1488 77.394 59.9269C77.1865 59.7049 76.8808 59.5209 76.4767 59.3639C76.2256 59.299 76.1055 59.1961 76.1055 59.0608C76.1055 58.9146 76.2256 58.8389 76.4658 58.8389L77.5196 58.8659C78.6279 58.893 79.2122 58.9092 79.2777 58.9092C79.3978 58.9092 79.4906 58.9525 79.5561 59.0446L84.6612 64.6523C84.754 64.7606 84.8195 64.8147 84.8523 64.8147C84.9232 64.8147 84.9615 64.7498 84.9615 64.6198V63.18C84.9615 61.7564 84.9451 60.7875 84.9178 60.2733C84.9069 60.0189 84.8195 59.8294 84.6557 59.7103C84.4919 59.5913 84.2189 59.483 83.8422 59.3802C83.6292 59.326 83.5255 59.2286 83.5255 59.0933C83.5255 59.0391 83.5528 58.9904 83.6129 58.9471C83.6729 58.9038 83.7384 58.8876 83.8149 58.8876L84.7158 58.8984C84.8359 58.9092 85.027 58.9146 85.2836 58.9146L85.9224 58.8984C86.2172 58.8822 86.4957 58.8713 86.7523 58.8713C86.856 58.8713 86.9325 58.8876 86.9925 58.9255C87.0526 58.9634 87.0799 59.0121 87.0799 59.077C87.0799 59.2232 86.9652 59.3206 86.7359 59.3639C86.4029 59.4289 86.1681 59.5209 86.0316 59.6454C85.8951 59.7699 85.8241 59.9647 85.8241 60.23C85.8241 60.7767 85.7914 61.8214 85.7258 63.3586C85.6822 64.2572 85.6549 64.9771 85.6549 65.5238C85.6549 65.7349 85.6712 65.9947 85.704 66.2978C85.7368 66.6064 85.7586 66.8013 85.7641 66.8933C85.8023 67.2397 85.8187 67.4237 85.8187 67.44C85.8187 67.8892 85.6876 68.1112 85.4201 68.1112C85.2454 68.1328 85.0324 68.0516 84.7594 67.8947Z" fill="#7D7D7D"/>
<path d="M93.2656 67.4943C92.5231 67.1154 91.9389 66.5849 91.5075 65.8975C91.0762 65.21 90.8633 64.4306 90.8633 63.5536C90.8633 62.72 91.0762 61.9406 91.5075 61.2044C91.9389 60.4682 92.5504 59.8782 93.3475 59.4344C94.1447 58.9905 95.0674 58.7686 96.1212 58.7686C96.4979 58.7686 96.9784 58.8173 97.5517 58.9201C98.1304 59.023 98.5781 59.1366 98.9003 59.2611C99.075 59.3369 99.1787 59.456 99.206 59.6292C99.3152 60.3816 99.3698 60.9338 99.3698 61.291C99.3698 61.383 99.348 61.4534 99.3098 61.4967C99.2661 61.5454 99.2115 61.5671 99.1351 61.5671C99.0313 61.5671 98.9549 61.5454 98.9003 61.4967C98.8457 61.4534 98.7965 61.383 98.7474 61.291C98.5072 60.7768 98.2669 60.4033 98.0267 60.1651C97.8247 59.9648 97.5953 59.8079 97.3333 59.6942C97.0767 59.5805 96.7545 59.521 96.3669 59.521C95.739 59.521 95.1984 59.6888 94.7507 60.019C94.2976 60.3546 93.959 60.793 93.7352 61.3506C93.5113 61.9027 93.3967 62.5035 93.3967 63.1531C93.3967 64.4414 93.6042 65.4536 94.0246 66.1844C94.445 66.9151 95.0892 67.2832 95.9519 67.2832C96.1922 67.2832 96.4542 67.1804 96.7381 66.9801C96.831 66.9151 96.9019 66.8069 96.9511 66.6553C97.0002 66.5037 97.033 66.3305 97.0384 66.1248C97.0548 65.8163 97.0657 65.4103 97.0657 64.9177C97.0657 64.6796 96.9456 64.5172 96.7054 64.4251C96.4269 64.3169 96.1649 64.2357 95.9192 64.1761C95.8263 64.1491 95.7444 64.1058 95.6789 64.0517C95.6079 63.9975 95.5752 63.9326 95.5752 63.8568C95.5752 63.7918 95.6025 63.7431 95.6625 63.7052C95.7226 63.6673 95.7936 63.6511 95.8755 63.6511C96.2249 63.6511 96.6071 63.6673 97.0221 63.6944C97.5571 63.7106 97.9066 63.7215 98.0758 63.7215C98.2505 63.7215 98.5399 63.7106 98.9494 63.6944C99.3753 63.6782 99.6865 63.6673 99.8885 63.6673C100.036 63.6673 100.112 63.7377 100.112 63.873C100.112 63.9542 100.091 64.0192 100.052 64.0679C100.009 64.1112 99.9431 64.1437 99.8503 64.1653C99.5828 64.2411 99.3971 64.3223 99.2988 64.4143C99.1951 64.5063 99.1296 64.6471 99.0914 64.8365C99.0258 65.1451 98.9931 65.4915 98.9931 65.865V66.3305C98.9931 66.3847 99.0259 66.4442 99.0805 66.5037C99.1405 66.5633 99.1733 66.5958 99.1842 66.6066C99.277 66.6986 99.3207 66.796 99.3207 66.9097C99.3207 66.9801 99.2988 67.0505 99.2497 67.11C99.206 67.1695 99.1296 67.202 99.0258 67.2128C98.9603 67.2237 98.8348 67.2724 98.6382 67.3644C98.2232 67.5539 97.7865 67.7217 97.3224 67.857C96.8637 67.9923 96.3232 68.0627 95.7062 68.0627C94.8217 68.0627 94.0027 67.8732 93.2656 67.4943Z" fill="#7D7D7D"/>
<path d="M42.2649 49.5882C42.4615 49.7181 42.598 49.8913 42.6853 50.1078V49.4366H43.5098V52.6682H42.6853V51.9916C42.6034 52.2081 42.4615 52.3813 42.2649 52.5166C42.0683 52.6465 41.8336 52.7115 41.5606 52.7115C41.2876 52.7115 41.0364 52.6465 40.818 52.5112C40.5996 52.3813 40.4249 52.1864 40.3048 51.9374C40.1792 51.6884 40.1191 51.3907 40.1191 51.0551C40.1191 50.7141 40.1792 50.4218 40.3048 50.1728C40.4304 49.9238 40.5996 49.7289 40.818 49.599C41.0364 49.4691 41.2876 49.3988 41.5606 49.3988C41.8336 49.3933 42.0683 49.4583 42.2649 49.5882ZM41.1893 50.3623C41.031 50.5301 40.9545 50.7574 40.9545 51.0497C40.9545 51.342 41.031 51.5694 41.1893 51.7372C41.3476 51.905 41.5551 51.9862 41.8117 51.9862C42.0629 51.9862 42.2704 51.8995 42.4342 51.7317C42.598 51.5639 42.6799 51.3366 42.6799 51.0497C42.6799 50.7628 42.598 50.5355 42.4342 50.3623C42.2704 50.1945 42.0629 50.1078 41.8117 50.1078C41.5551 50.1133 41.3476 50.1945 41.1893 50.3623Z" fill="#7D7D7D"/>
<path d="M50.0458 49.7559C50.2696 49.9995 50.3788 50.3459 50.3788 50.7898V52.668H49.5544V50.8818C49.5544 50.6274 49.4889 50.4271 49.3524 50.2809C49.2213 50.1402 49.0357 50.0698 48.8064 50.0698C48.5716 50.0698 48.3805 50.1456 48.244 50.2972C48.1021 50.4487 48.0311 50.6653 48.0311 50.9521V52.668H47.2012V49.4365H48.0311V50.0861C48.1184 49.8696 48.2604 49.6964 48.457 49.5773C48.6535 49.4528 48.8828 49.3932 49.1449 49.3932C49.5216 49.3878 49.8219 49.5123 50.0458 49.7559Z" fill="#7D7D7D"/>
<path d="M56.0354 49.5882C56.232 49.7181 56.3685 49.8913 56.4558 50.1078V48.3486H57.2803V52.6682H56.4558V51.9916C56.3685 52.2081 56.232 52.3813 56.0354 52.5166C55.8389 52.6465 55.6041 52.7115 55.3311 52.7115C55.0581 52.7115 54.8069 52.6465 54.5885 52.5112C54.3701 52.3813 54.1954 52.1864 54.0753 51.9374C53.9497 51.6884 53.8896 51.3907 53.8896 51.0551C53.8896 50.7141 53.9497 50.4218 54.0753 50.1728C54.2009 49.9238 54.3701 49.7289 54.5885 49.599C54.8069 49.4691 55.0581 49.3988 55.3311 49.3988C55.6041 49.3933 55.8389 49.4583 56.0354 49.5882ZM54.9653 50.3623C54.8069 50.5301 54.7305 50.7574 54.7305 51.0497C54.7305 51.342 54.8069 51.5694 54.9653 51.7372C55.1236 51.905 55.3311 51.9862 55.5877 51.9862C55.8388 51.9862 56.0463 51.8995 56.2101 51.7317C56.3739 51.5639 56.4558 51.3366 56.4558 51.0497C56.4558 50.7628 56.3739 50.5355 56.2101 50.3623C56.0463 50.1945 55.8388 50.1078 55.5877 50.1078C55.3311 50.1133 55.1236 50.1945 54.9653 50.3623Z" fill="#7D7D7D"/>
<path d="M9.76828 25.712L9.37517 26.3723L6.23026 26.5131L8.49066 27.8447L8.09754 28.5051L4.77246 26.5456L5.16558 25.8852L8.33232 25.7553L6.05008 24.4128L6.44319 23.7524L9.76828 25.712Z" fill="#7D7D7D"/>
<path d="M12.8039 20.3637L11.8266 21.56L12.2579 22.2583L11.7447 22.8862L9.66992 19.4002L10.2268 18.7236L14.0925 20.0227L13.5792 20.6506L12.8039 20.3637ZM12.2142 20.1581L10.5872 19.5789L11.4935 21.035L12.2142 20.1581Z" fill="#7D7D7D"/>
<path d="M15.7532 12.9536L16.1736 13.3975L15.3929 14.1228L17.6205 16.4721L17.0581 16.9971L14.8305 14.6425L14.0552 15.3624L13.6348 14.9185L15.7532 12.9536Z" fill="#7D7D7D"/>
<path d="M19.4443 10.0035L20.7601 11.8331C20.9348 12.0767 21.1205 12.2228 21.317 12.2661C21.5136 12.3094 21.7156 12.2607 21.9176 12.1145C22.1196 11.9738 22.2288 11.8006 22.2507 11.6003C22.2725 11.4 22.1906 11.1781 22.0159 10.9345L20.7001 9.10498L21.3225 8.66113L22.6383 10.4907C22.8458 10.7776 22.9659 11.0645 23.0041 11.3405C23.0369 11.6166 22.9932 11.871 22.8731 12.1037C22.753 12.3365 22.5674 12.5422 22.3271 12.71C21.9504 12.9752 21.5682 13.078 21.1805 13.0131C20.7929 12.9481 20.4435 12.6991 20.1322 12.2661L18.8164 10.4366L19.4443 10.0035Z" fill="#7D7D7D"/>
<path d="M28.5505 8.94295L27.049 8.03359L26.7487 8.19056L27.4476 9.51672L26.7651 9.87396L24.9688 6.47468L26.2737 5.79807C26.6722 5.59238 27.0271 5.52743 27.3384 5.61403C27.6496 5.70064 27.8844 5.8955 28.0536 6.21486C28.1901 6.46927 28.2283 6.72367 28.1792 6.97267C28.1246 7.22166 27.9772 7.44358 27.7369 7.64386L29.3094 8.55864L28.5505 8.94295ZM26.503 7.71964L27.0654 7.42735C27.4585 7.22707 27.5622 6.95101 27.382 6.61C27.2947 6.44761 27.18 6.34477 27.0381 6.30147C26.8961 6.25816 26.7214 6.29064 26.5194 6.39349L25.957 6.68578L26.503 7.71964Z" fill="#7D7D7D"/>
<path d="M34.5177 5.62464L33.0544 6.13887L33.0599 6.95622L32.29 7.22687L32.3501 3.18341L33.18 2.89111L35.8008 5.99272L35.0309 6.26337L34.5177 5.62464ZM34.1246 5.14289L33.038 3.8059L33.049 5.5218L34.1246 5.14289Z" fill="#7D7D7D"/>
<path d="M39.7817 4.37955L41.0538 4.10891L41.1794 4.68267L39.1538 5.11029L38.3457 1.35917L39.0992 1.19678L39.7817 4.37955Z" fill="#7D7D7D"/>
<path d="M51.5477 3.88702L50.9689 3.19416C50.9362 3.26453 50.9143 3.32407 50.887 3.36196C50.8161 3.52976 50.7014 3.65968 50.5376 3.75711C50.3738 3.85454 50.1773 3.90326 49.9589 3.89785C49.7132 3.89243 49.5002 3.8383 49.3201 3.73546C49.1399 3.63261 48.9979 3.49187 48.8996 3.31325C48.8014 3.13462 48.7577 2.93434 48.7631 2.71241C48.7686 2.49047 48.8123 2.29561 48.8996 2.13322C48.987 1.96542 49.1071 1.84092 49.2545 1.7489C49.402 1.65688 49.5712 1.61357 49.7514 1.60816L49.6859 1.51073C49.6149 1.40788 49.5603 1.30503 49.5221 1.2076C49.4839 1.11017 49.4675 0.996494 49.4675 0.871996C49.4675 0.71502 49.5112 0.568872 49.5985 0.438961C49.6804 0.303637 49.806 0.195374 49.9698 0.114179C50.1336 0.0329848 50.3301 -0.0049055 50.554 0.000507471C50.8816 0.00592044 51.1273 0.0817051 51.302 0.227855C51.4767 0.374005 51.5859 0.563456 51.635 0.7908C51.6678 0.89906 51.6842 1.01814 51.6842 1.13723L51.6787 1.24008L50.9635 1.22925C50.9635 1.13723 50.9635 1.07769 50.958 1.04521C50.958 0.915299 50.9198 0.812454 50.8543 0.742086C50.7833 0.671717 50.6905 0.633828 50.5649 0.633828C50.4503 0.633828 50.3629 0.660892 50.2974 0.725847C50.2319 0.790803 50.1991 0.866582 50.1936 0.964015C50.1936 1.04521 50.21 1.12099 50.2373 1.18053C50.2701 1.24008 50.3247 1.32127 50.3957 1.41329L52.323 3.89785L51.5477 3.88702ZM50.3629 3.12379C50.4666 3.03177 50.5158 2.90727 50.5212 2.75571C50.5212 2.59873 50.4666 2.46341 50.3574 2.35515C50.2428 2.24689 50.1063 2.19276 49.9534 2.19276C49.806 2.19276 49.6804 2.23606 49.5821 2.32267C49.4839 2.40928 49.4347 2.53919 49.4293 2.70699C49.4293 2.87479 49.4784 3.01012 49.5821 3.10755C49.6859 3.2104 49.8224 3.25911 49.9752 3.26453C50.1336 3.26453 50.2646 3.21581 50.3629 3.12379Z" fill="#7D7D7D"/>
<path d="M64.0177 1.88427L63.095 5.60834L62.3415 5.4243L62.7401 3.80584L61.1349 3.41612L60.7363 5.03457L59.9883 4.85053L60.911 1.12646L61.659 1.31051L61.2877 2.8207L62.893 3.21043L63.2642 1.70023L64.0177 1.88427Z" fill="#7D7D7D"/>
<path d="M68.5717 4.04369L68.2059 4.96931L69.4781 5.46731L69.2597 6.01402L67.9875 5.51603L67.6053 6.47413L69.0303 7.03167L68.801 7.60004L66.6553 6.76102L68.0749 3.19385L70.2206 4.03287L69.9968 4.60123L68.5717 4.04369Z" fill="#7D7D7D"/>
<path d="M74.5177 9.58699L73.1637 8.83458L72.5467 9.37588L71.8369 8.98073L74.9491 6.36084L75.7189 6.78847L75.091 10.7833L74.3812 10.3881L74.5177 9.58699ZM74.6215 8.98073L74.9218 7.29188L73.6278 8.42861L74.6215 8.98073Z" fill="#7D7D7D"/>
<path d="M78.9289 12.6941L79.9717 13.4627L79.6168 13.9337L77.957 12.7049L80.2666 9.63037L80.889 10.0905L78.9289 12.6941Z" fill="#7D7D7D"/>
<path d="M86.8953 15.2219L86.4694 15.6604L85.6941 14.9296L83.4446 17.2626L82.8877 16.7322L85.1372 14.3991L84.3673 13.6738L84.7932 13.2354L86.8953 15.2219Z" fill="#7D7D7D"/>
<path d="M91.5964 20.6183L88.5716 23.0109L88.0856 22.41L89.4015 21.3707L88.3696 20.0879L87.0537 21.1272L86.5732 20.5263L89.598 18.1338L90.0785 18.7346L88.8555 19.7035L89.8874 20.9864L91.1104 20.0175L91.5964 20.6183Z" fill="#7D7D7D"/>
<path d="M95.6042 26.8003L92.7705 26.9464L91.6021 27.6284L91.209 26.9626L92.3774 26.2806L93.8789 23.8936L94.3266 24.6514L93.2837 26.2048L95.162 26.0533L95.6042 26.8003Z" fill="#7D7D7D"/>
<path d="M12.137 78.0223C12.1697 78.3579 12.1151 78.6772 11.9677 78.9912C11.8203 79.2997 11.591 79.5649 11.2852 79.7869C10.974 80.0034 10.6464 80.1333 10.3024 80.1712C9.95846 80.2091 9.63086 80.1549 9.32511 80.0142C9.01935 79.8735 8.75727 79.6569 8.5498 79.3646C8.34232 79.0724 8.21674 78.7584 8.18398 78.4282C8.15122 78.0926 8.20582 77.7733 8.35324 77.4593C8.50066 77.1508 8.72998 76.8856 9.04119 76.6636C9.35241 76.4471 9.68 76.3172 10.0185 76.2793C10.3625 76.2414 10.6901 76.2956 10.9958 76.4363C11.3016 76.577 11.5637 76.7935 11.7712 77.0858C11.9786 77.3727 12.1042 77.6867 12.137 78.0223ZM10.7174 77.0967C10.5318 77.0155 10.3352 76.9938 10.1223 77.0263C9.90932 77.0588 9.70184 77.1454 9.48891 77.2969C9.28143 77.4431 9.12855 77.6109 9.02481 77.8003C8.92653 77.9898 8.88285 78.1792 8.89923 78.3795C8.91561 78.5798 8.98659 78.7692 9.12309 78.9479C9.25413 79.1319 9.41247 79.2618 9.59265 79.343C9.77828 79.4242 9.97484 79.4459 10.1878 79.4134C10.4007 79.3809 10.6082 79.2889 10.8211 79.1427C11.0286 78.9966 11.1815 78.8288 11.2852 78.6393C11.3835 78.4499 11.4272 78.2604 11.4108 78.0602C11.3944 77.8599 11.3234 77.6704 11.1869 77.4918C11.0559 77.3078 10.903 77.1779 10.7174 77.0967Z" fill="#7D7D7D"/>
<path d="M13.4253 85.1346L13.9058 83.4566L13.671 83.213L12.5736 84.236L12.0439 83.6785L14.8613 81.0532L15.8714 82.1196C16.1771 82.4444 16.3354 82.7637 16.3354 83.0831C16.3354 83.4024 16.2099 83.6839 15.9478 83.9275C15.7349 84.1278 15.5001 84.2306 15.2435 84.2523C14.9868 84.2685 14.7302 84.1873 14.4736 84.0141L14.0095 85.7571L13.4253 85.1346ZM14.0587 82.8503L14.4955 83.3104C14.7957 83.6298 15.0906 83.6568 15.3745 83.3916C15.511 83.2671 15.5765 83.1264 15.582 82.9802C15.582 82.8341 15.5055 82.6771 15.3527 82.5147L14.9159 82.0546L14.0587 82.8503Z" fill="#7D7D7D"/>
<path d="M21.1456 87.2841C21.2384 87.6576 21.1947 88.0202 21.0146 88.3829L20.3867 87.8741C20.4358 87.69 20.4303 87.506 20.3703 87.322C20.3048 87.1379 20.1901 86.9755 20.0099 86.8348C19.8352 86.6941 19.6496 86.6129 19.453 86.5804C19.2565 86.5533 19.0599 86.5804 18.8688 86.667C18.6777 86.7536 18.4975 86.8944 18.3337 87.0946C18.0771 87.4086 17.9625 87.7171 17.9898 88.0256C18.0171 88.3342 18.1754 88.6102 18.4648 88.843C18.6777 89.0162 18.918 89.1028 19.1746 89.1028C19.4312 89.1028 19.6769 89.0054 19.9062 88.8159L18.8907 87.9986L19.2401 87.571L20.7579 88.7943L20.2884 89.368C20.0864 89.5304 19.8516 89.6441 19.595 89.709C19.3384 89.774 19.0654 89.7794 18.7815 89.7145C18.4975 89.6549 18.23 89.5196 17.9734 89.3085C17.6786 89.0703 17.4711 88.7997 17.351 88.4857C17.2308 88.1772 17.2035 87.8578 17.2691 87.5277C17.3346 87.1975 17.4875 86.8889 17.7277 86.5912C17.9679 86.2989 18.2464 86.0824 18.5576 85.9525C18.8688 85.8226 19.191 85.7847 19.5185 85.8334C19.8461 85.8821 20.1628 86.0283 20.4576 86.2664C20.8235 86.5804 21.0528 86.9106 21.1456 87.2841Z" fill="#7D7D7D"/>
<path d="M24.8363 93.0594L23.5096 92.2637L22.8707 92.7834L22.1719 92.3666L25.3714 89.855L26.1248 90.3097L25.3605 94.2828L24.6616 93.866L24.8363 93.0594ZM24.9619 92.4532L25.3222 90.7752L23.99 91.8686L24.9619 92.4532Z" fill="#7D7D7D"/>
<path d="M31.4977 97.1353L30.7879 96.8322L30.2364 93.7576L29.1991 96.1556L28.4893 95.8524L30.018 92.3286L30.7278 92.6317L31.2684 95.7279L32.3167 93.3138L33.0265 93.6169L31.4977 97.1353Z" fill="#7D7D7D"/>
<path d="M36.8763 94.884L35.7625 98.554L35.0254 98.3321L36.1392 94.6621L36.8763 94.884Z" fill="#7D7D7D"/>
<path d="M42.8766 96.5505C43.1441 96.8482 43.2915 97.2163 43.3188 97.6493L42.5217 97.5086C42.478 97.292 42.3743 97.108 42.2214 96.9564C42.0685 96.8103 41.8719 96.7128 41.6262 96.6695C41.4242 96.6316 41.2331 96.6533 41.053 96.7237C40.8728 96.794 40.7199 96.9131 40.5998 97.0863C40.4742 97.2541 40.3923 97.4653 40.3486 97.7142C40.3049 97.9578 40.3104 98.1852 40.365 98.3854C40.4196 98.5857 40.5233 98.7535 40.6653 98.878C40.8073 99.0025 40.982 99.0891 41.184 99.127C41.4297 99.1703 41.6481 99.1487 41.8446 99.0621C42.0412 98.9755 42.1995 98.8401 42.3197 98.6507L43.1168 98.7914C42.9421 99.192 42.6745 99.4843 42.3197 99.6683C41.9648 99.8578 41.5443 99.9065 41.0748 99.8199C40.709 99.7549 40.4032 99.6196 40.1575 99.4031C39.9064 99.192 39.7316 98.9267 39.6334 98.6074C39.5351 98.288 39.5187 97.9416 39.5842 97.5735C39.6498 97.2 39.7863 96.8807 39.9937 96.6154C40.2012 96.3502 40.4578 96.1607 40.7636 96.0471C41.0693 95.9334 41.4078 95.9117 41.7737 95.9767C42.2378 96.0633 42.609 96.2527 42.8766 96.5505Z" fill="#7D7D7D"/>
<path d="M51.3445 99.1484L51.3937 100.572L50.6238 100.599L50.4873 96.7668L51.896 96.718C52.3546 96.7018 52.6986 96.7992 52.9388 97.0103C53.179 97.2214 53.3046 97.5083 53.3155 97.8818C53.3265 98.2499 53.2173 98.5422 52.9879 98.7695C52.7586 98.9969 52.4201 99.1159 51.9779 99.1322L51.3445 99.1484ZM52.5348 97.9034C52.5293 97.714 52.4693 97.5679 52.3601 97.4704C52.2509 97.373 52.0761 97.3297 51.8359 97.3351L51.2844 97.3568L51.3281 98.5368L51.8796 98.5151C52.3328 98.4989 52.5512 98.2986 52.5348 97.9034Z" fill="#7D7D7D"/>
<path d="M58.9394 99.831L57.8092 98.4994L57.4761 98.5535L57.7163 100.031L56.9519 100.15L56.335 96.3612L57.7928 96.1285C58.235 96.0581 58.5899 96.1122 58.8575 96.2909C59.125 96.4695 59.2888 96.7347 59.3434 97.0812C59.3925 97.3681 59.3488 97.6171 59.2178 97.839C59.0868 98.0555 58.8793 98.2233 58.5845 98.337L59.7802 99.6957L58.9394 99.831ZM57.3887 98.0339L58.0166 97.931C58.4534 97.8607 58.6391 97.6333 58.579 97.2544C58.5517 97.0703 58.4753 96.9404 58.3497 96.8538C58.2296 96.7672 58.0548 96.7456 57.831 96.778L57.2031 96.8755L57.3887 98.0339Z" fill="#7D7D7D"/>
<path d="M64.8749 94.6291C65.2024 94.7049 65.4973 94.8619 65.7484 95.0947C65.9996 95.3328 66.1798 95.6305 66.289 95.9932C66.3982 96.3558 66.42 96.7023 66.3436 97.0379C66.2671 97.3735 66.1143 97.6658 65.8849 97.9094C65.6502 98.1529 65.3663 98.3261 65.0168 98.4344C64.6728 98.5372 64.3343 98.5535 64.0013 98.4777C63.6682 98.4019 63.3788 98.2449 63.1277 98.0068C62.8765 97.7686 62.6964 97.4709 62.5872 97.1083C62.478 96.7456 62.4561 96.3991 62.5326 96.0635C62.609 95.7279 62.7619 95.4411 62.9912 95.1921C63.226 94.9485 63.5153 94.7753 63.8593 94.667C64.2087 94.5696 64.5418 94.5534 64.8749 94.6291ZM63.5426 95.663C63.4061 95.8091 63.3242 95.9878 63.286 96.1989C63.2478 96.41 63.2696 96.6319 63.3406 96.8755C63.4171 97.1191 63.5263 97.3139 63.6737 97.4709C63.8211 97.6225 63.9958 97.7253 64.1869 97.774C64.3835 97.8227 64.5855 97.8119 64.8039 97.747C65.0223 97.682 65.197 97.5738 65.328 97.4276C65.4645 97.2815 65.5464 97.1028 65.5846 96.8917C65.6229 96.6806 65.601 96.4587 65.53 96.2151C65.4536 95.9715 65.3444 95.7767 65.197 95.6197C65.0496 95.4681 64.8749 95.3653 64.6838 95.3166C64.4872 95.2678 64.2852 95.2787 64.0668 95.3436C63.8539 95.414 63.6737 95.5169 63.5426 95.663Z" fill="#7D7D7D"/>
<path d="M72.7519 94.3364C72.7301 94.6666 72.6154 94.9697 72.408 95.2404C72.2005 95.5164 71.9057 95.7383 71.5289 95.917L70.2841 96.4962L68.6406 93.0265L69.8855 92.4473C70.2677 92.2687 70.628 92.1875 70.972 92.2037C71.316 92.2199 71.6217 92.3228 71.8893 92.5122C72.1568 92.7071 72.3752 92.9777 72.539 93.3242C72.7028 93.6652 72.7738 94.0062 72.7519 94.3364ZM71.9111 94.6233C72.0258 94.331 71.9985 94.0062 71.8292 93.6544C71.66 93.2971 71.4252 93.0698 71.1249 92.9669C70.8246 92.8641 70.4861 92.902 70.1093 93.0806L69.6234 93.3079L70.6881 95.5543L71.174 95.327C71.5508 95.1537 71.7965 94.9156 71.9111 94.6233Z" fill="#7D7D7D"/>
<path d="M75.0685 89.6708L76.3024 91.5599C76.4662 91.8144 76.6464 91.9659 76.843 92.02C77.0395 92.0742 77.2416 92.0309 77.449 91.8955C77.6565 91.7602 77.7766 91.5978 77.8039 91.3975C77.8312 91.1973 77.7657 90.9753 77.6019 90.7209L76.368 88.8318L77.0122 88.415L78.2462 90.3042C78.4427 90.6019 78.5519 90.8887 78.5738 91.1648C78.5956 91.4409 78.541 91.6953 78.41 91.9226C78.2789 92.1499 78.0878 92.3448 77.8367 92.5072C77.449 92.7562 77.0614 92.8428 76.6792 92.7616C76.297 92.6804 75.9585 92.4152 75.6636 91.9713L74.4297 90.0822L75.0685 89.6708Z" fill="#7D7D7D"/>
<path d="M82.0463 84.8482C82.4503 84.8266 82.827 84.9457 83.1874 85.2001L82.5759 85.7251C82.3739 85.6223 82.1719 85.5844 81.9589 85.6114C81.746 85.6385 81.544 85.7305 81.3583 85.8875C81.2054 86.0174 81.0962 86.1798 81.0416 86.3638C80.987 86.5479 80.9816 86.7373 81.0362 86.943C81.0908 87.1433 81.2054 87.3436 81.3692 87.533C81.533 87.7225 81.7132 87.8578 81.9043 87.939C82.0954 88.0202 82.292 88.0473 82.4831 88.0202C82.6742 87.9877 82.8489 87.9065 83.0018 87.7766C83.1874 87.6142 83.313 87.4302 83.3676 87.2245C83.4222 87.0188 83.4167 86.8131 83.3403 86.602L83.9518 86.077C84.1538 86.4667 84.2139 86.851 84.1374 87.2462C84.061 87.6413 83.8371 87.9931 83.4713 88.3017C83.1929 88.5398 82.8926 88.6914 82.5704 88.751C82.2483 88.8105 81.9316 88.778 81.6149 88.6535C81.3037 88.529 81.0198 88.3233 80.7741 88.0419C80.523 87.755 80.3592 87.4464 80.2773 87.1216C80.2008 86.7969 80.2117 86.4775 80.3155 86.1744C80.4192 85.8658 80.6103 85.5952 80.8942 85.3516C81.26 85.0323 81.6422 84.8699 82.0463 84.8482Z" fill="#7D7D7D"/>
<path d="M86.2555 80.0249L86.7141 80.4309L86.0043 81.2212L88.434 83.3701L87.9208 83.9438L85.4911 81.8003L84.7868 82.5852L84.3281 82.1792L86.2555 80.0249Z" fill="#7D7D7D"/>
<path d="M92.2943 77.5349C92.3762 77.7081 92.4035 77.903 92.3707 78.1195C92.3434 78.336 92.2506 78.5525 92.0922 78.7799C91.9339 79.0018 91.7592 79.175 91.5572 79.2995C91.3552 79.424 91.1477 79.489 90.9293 79.4944C90.7109 79.4998 90.5034 79.4457 90.3014 79.3266L90.7709 78.6554C90.9129 78.7312 91.0549 78.7528 91.2023 78.7203C91.3497 78.6933 91.4753 78.6067 91.5736 78.4605C91.6664 78.3306 91.6991 78.2061 91.6773 78.087C91.6555 77.9679 91.5899 77.8705 91.4807 77.7947C91.3825 77.7243 91.2787 77.6973 91.175 77.7081C91.0712 77.7189 90.9675 77.7568 90.8692 77.8164C90.7709 77.8759 90.6399 77.9625 90.4816 78.0816C90.2796 78.2332 90.0994 78.3468 89.9465 78.428C89.7936 78.5092 89.6244 78.5525 89.4442 78.5525C89.2585 78.5579 89.0675 78.4876 88.8709 78.3522C88.5979 78.1628 88.4505 77.9192 88.4286 77.6161C88.4068 77.313 88.5105 76.999 88.7344 76.6797C88.9692 76.3441 89.2367 76.1384 89.537 76.0518C89.8373 75.9652 90.1321 76.003 90.4215 76.16L89.9465 76.8366C89.8209 76.7771 89.6953 76.7609 89.5643 76.7879C89.4387 76.815 89.3241 76.8962 89.2312 77.0261C89.1493 77.1398 89.1166 77.2588 89.1275 77.3725C89.1384 77.4862 89.2039 77.5836 89.3186 77.6648C89.4114 77.7298 89.5097 77.7568 89.608 77.7406C89.7063 77.7298 89.81 77.6919 89.9083 77.6377C90.0066 77.5782 90.1321 77.497 90.2795 77.3833C90.4925 77.2318 90.6781 77.1127 90.8255 77.0315C90.9784 76.9503 91.1477 76.907 91.3333 76.9016C91.5244 76.9016 91.721 76.9665 91.923 77.1073C92.0923 77.221 92.2124 77.3617 92.2943 77.5349Z" fill="#7D7D7D"/>
<path d="M64.6184 80.2909C63.914 79.7875 63.0241 79.7063 62.3307 79.6955C59.8519 79.6522 57.4659 80.2801 55.1509 80.9351C56.9254 79.5926 58.4105 77.8388 59.0984 76.1392C59.1748 75.9551 59.3659 75.468 59.1039 75.0295C58.9401 74.7589 58.6398 74.5803 58.2521 74.5315C57.2147 74.3908 56.3466 75.0241 55.6314 75.6574C53.4474 77.5844 51.5419 79.8092 49.7019 81.9852C49.5763 81.9527 49.4453 81.9635 49.3252 82.0285C47.9602 82.0501 46.6826 81.9094 45.6015 81.7145C46.0383 81.6063 46.4696 81.4493 46.89 81.2273C47.8892 80.6969 48.7955 79.8904 49.7401 78.6779C50.3189 77.9363 51.1105 76.7941 51.3289 75.4626C51.4218 74.8942 51.2525 74.4503 50.8758 74.2446C50.5263 74.0498 50.1551 74.1526 50.0022 74.1959C48.0912 74.721 46.628 76.1554 45.5687 77.3409C45.3067 77.6386 45.0446 77.9363 44.788 78.2394C43.9635 79.1975 43.1773 80.1015 42.2327 80.8322C39.9341 80.0744 37.8047 79.0622 35.9429 78.1095C35.6917 77.9796 35.3805 78.077 35.2495 78.326C35.1185 78.575 35.2167 78.8835 35.4679 79.0135C37.4225 80.0148 39.6611 81.0758 42.0962 81.8607C42.5112 81.996 42.9316 82.1205 43.352 82.2342C43.4339 82.521 43.5158 82.8079 43.5977 83.0948C44.3621 85.7634 45.1538 88.524 46.6607 90.9328C46.7481 91.0735 47.0101 91.4903 47.4906 91.4903C47.4961 91.4903 47.507 91.4903 47.5125 91.4903C47.7199 91.4849 48.1076 91.3874 48.3478 90.8083C48.8774 89.5416 48.8338 88.0044 48.2277 86.4833C47.7036 85.1626 46.8245 84.0042 45.9564 82.9541C45.9072 82.8945 45.8581 82.8404 45.809 82.7809C46.9064 82.9595 47.982 83.0515 49.0303 83.0515C49.1395 83.0515 49.2487 83.0407 49.3579 83.0353C50.4008 84.356 51.7166 85.5956 53.4856 86.9164C54.8724 87.9556 56.5486 89.0328 58.4705 89.1627C58.4814 89.1627 58.4924 89.1627 58.5033 89.1627C58.678 89.1627 58.8418 89.0761 58.9346 88.93C59.0383 88.773 59.0438 88.5727 58.951 88.4103C57.4659 85.7309 54.9434 83.7119 52.0224 82.7863C52.9451 82.6185 53.8296 82.3695 54.6759 82.0447C55.6095 82.2937 57.7061 82.7755 59.8901 82.7755C60.4142 82.7755 60.9493 82.7484 61.468 82.678C63.1442 82.4615 64.2198 81.8931 64.7549 80.9405C64.8914 80.7239 64.8313 80.4371 64.6184 80.2909ZM45.5687 78.9052C45.8253 78.6075 46.0765 78.3098 46.3386 78.0175C47.305 76.9349 48.6263 75.6304 50.2752 75.1757C50.297 75.1703 50.3134 75.1649 50.3298 75.1594C50.3298 75.1973 50.3298 75.2406 50.3189 75.3002C50.1824 76.15 49.7565 76.9998 48.932 78.0499C48.0803 79.1434 47.2777 79.8633 46.415 80.3234C45.5633 80.7781 44.646 80.9405 43.8325 80.7997C44.4549 80.1989 45.0173 79.5439 45.5687 78.9052ZM47.2831 86.8568C47.7691 88.0747 47.8291 89.2818 47.4688 90.2778C46.1202 88.0639 45.3667 85.4927 44.646 82.9865C44.8262 83.176 45.0009 83.3817 45.1756 83.5928C46.1147 84.7404 46.8354 85.7363 47.2831 86.8568ZM56.3138 76.4152C56.8598 75.9335 57.4932 75.4571 58.1156 75.5383C58.1593 75.5438 58.1921 75.5546 58.2084 75.5492C58.203 75.5816 58.1921 75.6466 58.1429 75.7549C57.1492 78.2069 54.1681 80.8863 51.3508 81.8661C51.2743 81.8769 51.1924 81.8877 51.116 81.8931C52.7431 79.9932 54.4302 78.0824 56.3138 76.4152ZM57.4713 87.9556C56.2374 87.6038 55.0963 86.846 54.1135 86.1044C52.9669 85.2438 52.0169 84.4264 51.2143 83.5982C53.7095 84.264 55.9862 85.85 57.4713 87.9556ZM61.3479 81.6766C60.1194 81.8336 58.5633 81.7632 56.9472 81.498C58.7053 81.0379 60.4907 80.6806 62.3088 80.7131C62.7074 80.7185 63.1442 80.751 63.5319 80.8755C63.0896 81.2815 62.3689 81.5413 61.3479 81.6766Z" fill="#7D7D7D"/>
<path d="M64.1097 21.0622C61.822 19.893 59.1467 18.6372 56.2201 17.836C56.1382 17.5492 56.0563 17.2677 55.9744 16.9808C55.2101 14.3122 54.4184 11.5516 52.9114 9.13741C52.8241 8.99667 52.5565 8.55822 52.0542 8.57988C51.8467 8.58529 51.4591 8.68273 51.2189 9.26191C50.6892 10.5285 50.7329 12.0658 51.339 13.5869C51.8631 14.9076 52.7422 16.066 53.6103 17.1161C53.6594 17.1757 53.714 17.2352 53.7632 17.2948C52.5511 17.0999 51.3608 17.0079 50.2088 17.0295C49.1659 15.7087 47.8501 14.4692 46.0811 13.1484C44.6943 12.1091 43.0181 11.032 41.0962 10.902C40.9105 10.8858 40.7304 10.9778 40.6266 11.1348C40.5229 11.2918 40.5174 11.4921 40.6102 11.6544C42.0953 14.3393 44.6233 16.3583 47.5498 17.2839C46.6216 17.4517 45.7262 17.6953 44.8799 18.0201C43.7169 17.7115 40.7631 17.0403 38.0987 17.3868C36.4225 17.6033 35.3469 18.1717 34.8118 19.1243C34.6862 19.3517 34.7517 19.6331 34.9592 19.7847C35.6636 20.2881 36.5535 20.3693 37.2469 20.3801C37.3343 20.3801 37.4162 20.3801 37.5035 20.3801C39.8895 20.3801 42.1936 19.7685 44.4267 19.1406C42.6522 20.483 41.1671 22.2368 40.4792 23.9365C40.4028 24.1205 40.2117 24.6077 40.4737 25.0461C40.6375 25.3168 40.9378 25.4954 41.3255 25.5441C41.4238 25.5549 41.5166 25.5658 41.6149 25.5658C42.5212 25.5658 43.2965 24.992 43.9517 24.4182C46.1357 22.4912 48.0412 20.2611 49.8812 18.085C49.9249 18.0959 49.9685 18.1175 50.0122 18.1175C50.0996 18.1175 50.1815 18.0905 50.2579 18.0472C51.6229 18.0255 52.895 18.1662 53.9761 18.3611C53.5393 18.4694 53.108 18.6263 52.6876 18.8483C51.6884 19.3787 50.7821 20.1853 49.8375 21.3978C49.2587 22.1394 48.4671 23.2815 48.2487 24.6131C48.1558 25.1814 48.3251 25.6253 48.7073 25.8364C48.8602 25.923 49.024 25.9501 49.1659 25.9501C49.3461 25.9501 49.499 25.9068 49.5863 25.8851C51.4918 25.3601 52.9551 23.9256 54.0198 22.7402C54.2819 22.4425 54.5439 22.1448 54.8006 21.8416C55.625 20.8835 56.4112 19.9796 57.3558 19.2488C59.6544 20.0066 61.7838 21.0189 63.6456 21.9716C63.7221 22.0094 63.804 22.0257 63.8804 22.0257C64.066 22.0257 64.2462 21.9228 64.339 21.7496C64.4646 21.4952 64.3609 21.1921 64.1097 21.0622ZM42.1063 12.1254C43.3402 12.4772 44.4813 13.235 45.4641 13.9766C46.6107 14.8373 47.5607 15.6546 48.3633 16.4828C45.8681 15.8116 43.5913 14.2256 42.1063 12.1254ZM37.2688 19.3679C36.8702 19.3625 36.4334 19.33 36.0457 19.2055C36.4935 18.7996 37.2087 18.5343 38.2297 18.4044C39.4582 18.2474 41.0143 18.3178 42.6304 18.583C40.8669 19.0431 39.0869 19.4112 37.2688 19.3679ZM43.2638 23.6604C42.7178 24.1421 42.0844 24.6185 41.462 24.5373C41.4183 24.5319 41.3855 24.5211 41.3692 24.5265C41.3746 24.494 41.3855 24.429 41.4347 24.3208C42.4284 21.8687 45.4095 19.1893 48.2268 18.2095C48.3033 18.1987 48.3852 18.1879 48.4616 18.1825C46.8345 20.0878 45.1474 21.9986 43.2638 23.6604ZM52.2999 13.2188C51.814 12.0009 51.7539 10.7938 52.1143 9.79779C53.4683 12.0117 54.2218 14.5829 54.9371 17.0891C54.7569 16.8996 54.5822 16.6939 54.4074 16.4828C53.4629 15.3353 52.7476 14.3447 52.2999 13.2188ZM54.0143 21.1758C53.7577 21.4736 53.5066 21.7713 53.2445 22.0582C52.2781 23.1408 50.9513 24.4453 49.3079 24.9C49.286 24.9054 49.2697 24.9108 49.2533 24.9162C49.2533 24.8783 49.2533 24.835 49.2642 24.7755C49.4007 23.9256 49.8266 23.0758 50.651 22.0257C51.5028 20.9323 52.3054 20.2123 53.168 19.7522C53.8287 19.4058 54.5166 19.2272 55.1718 19.2272C55.3684 19.2272 55.5595 19.2434 55.7451 19.2759C55.1281 19.8767 54.5603 20.5317 54.0143 21.1758Z" fill="#7D7D7D"/>
</svg>
