<svg width="140" height="63" viewBox="0 0 140 63" fill="none" xmlns="http://www.w3.org/2000/svg">
<path d="M21.6926 25.6587L22.3642 25.2528C22.4625 24.7602 22.2659 24.5166 21.7909 24.5166C21.103 24.5166 20.759 25.0417 20.759 26.0864C20.759 26.4977 20.8136 26.9741 20.9282 27.5154C22.1458 28.3219 22.7518 29.3612 22.7518 30.6224C22.7518 31.8836 22.3096 32.8634 21.4306 33.5617C20.5515 34.2599 19.3558 34.6064 17.8543 34.6064C17.2319 34.6064 16.5822 34.5414 15.9106 34.4169C15.2063 34.8608 14.8568 35.1964 14.8568 35.4183C14.8568 35.6402 15.3701 35.7539 16.3911 35.7539H18.8426C22.4734 35.7539 24.2915 37.0476 24.2915 39.635C24.2915 41.0315 23.7455 42.1358 22.6481 42.9531C21.5507 43.7705 19.8417 44.1765 17.5213 44.1765C13.5683 44.1765 11.5918 43.3266 11.5918 41.6324C11.5918 40.7122 12.2088 40.0788 13.4427 39.727L14.8841 40.3711C14.7531 40.8312 14.693 41.2697 14.693 41.6811C14.693 43.0451 15.7195 43.7272 17.7669 43.7272C19.0173 43.7272 19.9782 43.4944 20.6498 43.0343C21.3213 42.5742 21.6599 42.0004 21.6599 41.3184C21.6599 40.6364 21.4579 40.1817 21.0484 39.9489C20.6389 39.7162 19.8253 39.6025 18.6132 39.6025H16.2873C14.9933 39.6025 14.0651 39.386 13.5028 38.9584C12.9404 38.5307 12.662 38.0003 12.662 37.3778C12.662 36.7499 12.864 36.2248 13.2625 35.808C13.6611 35.3858 14.3763 34.8662 15.3974 34.2491C13.541 33.724 12.6128 32.5224 12.6128 30.6332C12.6128 29.4424 13.0441 28.4843 13.9068 27.7536C14.7695 27.0228 16.0689 26.6601 17.7943 26.6601C18.8316 26.6601 19.7216 26.8604 20.4587 27.2556C20.3604 26.8279 20.3167 26.4382 20.3167 26.0918C20.3167 25.204 20.557 24.5599 21.0374 24.1648C21.5179 23.7696 22.053 23.5693 22.6481 23.5693C23.2432 23.5693 23.7182 23.7263 24.0786 24.0349C24.439 24.3434 24.6191 24.771 24.6191 25.3069C24.6191 25.8482 24.4772 26.2488 24.1878 26.5086C23.8984 26.7684 23.549 26.9037 23.145 26.9037C22.7355 26.9037 22.4024 26.7955 22.1349 26.5844C21.851 26.3624 21.709 26.0593 21.6926 25.6587ZM16.604 30.1136V31.3965C16.604 32.4574 16.6968 33.1827 16.8824 33.5617C17.0681 33.9406 17.3465 34.13 17.7233 34.13C18.1 34.13 18.373 33.946 18.5368 33.5725C18.7061 33.199 18.788 32.4358 18.788 31.2774V30.1136C18.788 28.874 18.7061 28.0621 18.5477 27.6724C18.3894 27.2826 18.1219 27.0878 17.7451 27.0878C17.3684 27.0878 17.0845 27.288 16.8934 27.694C16.6968 28.1 16.604 28.9065 16.604 30.1136Z" fill="#7D7D7D"/>
<path d="M35.0148 27.5637C34.4196 27.5637 33.9009 27.9426 33.4532 28.7058C33.0055 29.469 32.7816 30.373 32.7816 31.4177V37.7942H34.4852V38.2218H26.9941V37.7942H28.3154V27.3201H26.9941V26.8925H32.7816V29.1767C32.9891 28.3702 33.3877 27.7477 33.9828 27.3093C34.5725 26.8708 35.2495 26.6543 35.9975 26.6543C36.751 26.6543 37.3625 26.8654 37.8321 27.2876C38.3016 27.7098 38.5419 28.3053 38.5419 29.0739C38.5419 29.8425 38.3672 30.4325 38.0123 30.8493C37.6574 31.2607 37.1223 31.4664 36.3907 31.4664C35.659 31.4664 35.124 31.2282 34.78 30.7519C34.436 30.2756 34.3923 29.6152 34.6489 28.7762H35.5116C35.9211 27.9696 35.7519 27.5637 35.0148 27.5637Z" fill="#7D7D7D"/>
<path d="M42.8284 36.8851C41.7964 35.8296 41.2832 34.3627 41.2832 32.4844C41.2832 30.6061 41.862 29.1663 43.0249 28.1649C44.1824 27.1635 45.6621 26.6655 47.4529 26.6655C51.0837 26.6655 52.8309 28.4734 52.689 32.0893H45.9187V33.0203C45.9187 34.5738 46.1207 35.7484 46.5193 36.5441C46.9178 37.3398 47.6167 37.735 48.6104 37.735C50.4668 37.735 51.6843 36.7498 52.2576 34.7849L52.689 34.8553C52.3832 35.9974 51.8372 36.8851 51.0455 37.5184C50.2538 38.1518 49.0636 38.4711 47.4802 38.4711C45.4109 38.4657 43.8603 37.9352 42.8284 36.8851ZM45.9405 31.6129H48.4138V30.4492C48.4138 29.1663 48.3374 28.2894 48.1845 27.8185C48.0317 27.353 47.7259 27.1148 47.2727 27.1148C46.8141 27.1148 46.481 27.3638 46.2626 27.8618C46.0442 28.3598 45.9405 29.2204 45.9405 30.4438V31.6129Z" fill="#7D7D7D"/>
<path d="M57.619 36.8851C56.5871 35.8296 56.0684 34.3627 56.0684 32.4844C56.0684 30.6061 56.6471 29.1663 57.8101 28.1649C58.9676 27.1635 60.4472 26.6655 62.2381 26.6655C65.8689 26.6655 67.6161 28.4734 67.4687 32.0893H60.6984V33.0203C60.6984 34.5738 60.9004 35.7484 61.299 36.5441C61.6975 37.3398 62.3964 37.735 63.3847 37.735C65.241 37.735 66.4586 36.7498 67.0319 34.7849L67.4632 34.8553C67.1575 35.9974 66.6115 36.8851 65.8198 37.5184C65.0281 38.1518 63.8378 38.4711 62.2545 38.4711C60.1961 38.4657 58.6509 37.9352 57.619 36.8851ZM60.7257 31.6129H63.199V30.4492C63.199 29.1663 63.1226 28.2894 62.9697 27.8185C62.8168 27.353 62.5111 27.1148 62.0579 27.1148C61.5993 27.1148 61.2662 27.3638 61.0478 27.8618C60.8294 28.3598 60.7257 29.2204 60.7257 30.4438V31.6129Z" fill="#7D7D7D"/>
<path d="M70.7832 26.8983H76.5707V29.0851C76.8273 28.3544 77.2205 27.7698 77.7446 27.3259C78.2742 26.8821 79.0714 26.6602 80.147 26.6602C82.6258 26.6602 83.8707 27.9863 83.8707 30.6332V37.7945H85.2138V38.2221H78.4217V37.7945H79.4044V30.0595C79.4044 29.1068 79.3389 28.4951 79.2134 28.2137C79.0878 27.9376 78.853 27.7969 78.5199 27.7969C78.0067 27.7969 77.5535 28.1325 77.1659 28.7982C76.7728 29.464 76.5762 30.276 76.5762 31.2232V37.7945H77.6081V38.2221H70.7832V37.7945H72.1045V27.3205H70.7832V26.8983Z" fill="#7D7D7D"/>
<path d="M89.5926 36.8851C88.5607 35.8296 88.042 34.3627 88.042 32.4844C88.042 30.6061 88.6207 29.1663 89.7837 28.1649C90.9412 27.1635 92.4208 26.6655 94.2117 26.6655C97.8425 26.6655 99.5897 28.4734 99.4477 32.0893H92.6774V33.0203C92.6774 34.5738 92.8795 35.7484 93.278 36.5441C93.6766 37.3398 94.3755 37.735 95.3692 37.735C97.2255 37.735 98.4431 36.7498 99.0164 34.7849L99.4477 34.8553C99.142 35.9974 98.596 36.8851 97.8043 37.5184C97.0126 38.1518 95.8223 38.4711 94.239 38.4711C92.1751 38.4657 90.6245 37.9352 89.5926 36.8851ZM92.7047 31.6129H95.1781V30.4492C95.1781 29.1663 95.1016 28.2894 94.9488 27.8185C94.7959 27.353 94.4901 27.1148 94.037 27.1148C93.5783 27.1148 93.2453 27.3638 93.0269 27.8618C92.8085 28.3598 92.7047 29.2204 92.7047 30.4438V31.6129Z" fill="#7D7D7D"/>
<path d="M110.734 27.5637C110.144 27.5637 109.62 27.9426 109.172 28.7058C108.724 29.469 108.5 30.373 108.5 31.4177V37.7942H110.204V38.2218H102.713V37.7942H104.034V27.3201H102.713V26.8925H108.5V29.1767C108.708 28.3702 109.106 27.7477 109.702 27.3093C110.291 26.8708 110.968 26.6543 111.716 26.6543C112.47 26.6543 113.081 26.8654 113.551 27.2876C114.02 27.7098 114.261 28.3053 114.261 29.0739C114.261 29.8425 114.086 30.4325 113.731 30.8493C113.382 31.2607 112.841 31.4664 112.109 31.4664C111.383 31.4664 110.843 31.2282 110.499 30.7519C110.155 30.2756 110.111 29.6152 110.368 28.7762H111.23C111.634 27.9696 111.465 27.5637 110.734 27.5637Z" fill="#7D7D7D"/>
<path d="M116.514 27.3261V26.8984H123.476V27.3261H122.182L124.797 35.2289L127.582 27.3261H125.971V26.8984H129.356V27.3261H128.155L123.667 40.1547C123.137 41.6433 122.548 42.688 121.892 43.2834C121.237 43.8788 120.435 44.1765 119.49 44.1765C118.545 44.1765 117.803 43.96 117.257 43.5324C116.711 43.1048 116.443 42.558 116.443 41.8923C116.443 41.2265 116.618 40.7177 116.973 40.3712C117.322 40.0194 117.786 39.8462 118.365 39.8462C119.692 39.8462 120.358 40.3929 120.358 41.4863C120.358 41.7245 120.309 42.0113 120.216 42.3415H119.375C119.244 42.7042 119.233 43.0073 119.326 43.2455C119.424 43.4837 119.637 43.6027 119.976 43.6027C120.631 43.6027 121.215 43.2834 121.729 42.6392C122.242 41.9951 122.728 41.0154 123.192 39.7L123.721 38.2223H121.608L117.503 27.3206H116.514V27.3261Z" fill="#7D7D7D"/>
<path d="M69.8007 12.9714C69.7352 12.9714 69.6697 12.9552 69.6096 12.9119C69.4513 12.809 69.413 12.5979 69.5168 12.441C70.7289 10.6763 70.9255 9.32851 71.1111 8.02398C71.1821 7.55306 71.2476 7.06589 71.3677 6.56789C71.6516 5.36622 72.012 4.37023 72.4706 3.54746C71.9137 3.46626 71.3568 3.36882 70.8162 3.27139C69.9263 3.11442 69.0036 2.95203 68.0918 2.87084C66.5138 2.73551 64.2971 2.83836 62.7356 4.12123C62.337 4.45142 61.8401 4.98189 61.7528 5.65851C61.7255 5.84255 61.5508 5.97247 61.3706 5.95082C61.185 5.92916 61.0484 5.75594 61.0757 5.5719C61.1959 4.67876 61.8074 4.00756 62.3042 3.60158C64.0459 2.17256 66.4429 2.04807 68.1573 2.19422C69.0964 2.27541 70.0355 2.44321 70.9418 2.60019C71.5752 2.71386 72.2195 2.82753 72.8692 2.90872C73.2514 2.3566 73.6936 1.89651 74.1905 1.52842C74.9822 0.93841 76.2216 0.478304 77.3081 0.949232C77.7176 1.12786 78.1544 1.50677 78.1489 2.04265C78.1435 2.46487 77.8541 2.8546 77.3299 3.14149C76.4564 3.61783 75.3917 3.79104 73.9557 3.70443C73.71 3.68819 73.4588 3.66654 73.2131 3.63948C72.7272 4.44601 72.345 5.46365 72.0447 6.72487C71.9355 7.19038 71.87 7.63966 71.799 8.12141C71.597 9.50172 71.3895 10.9307 70.0901 12.8253C70.0191 12.9227 69.9099 12.9714 69.8007 12.9714ZM73.6445 3.00074C73.7592 3.01157 73.8793 3.01698 73.9939 3.02781C75.2879 3.109 76.238 2.95744 76.9969 2.54606C77.1334 2.47027 77.461 2.26999 77.461 2.03724C77.461 1.84778 77.2481 1.66916 77.0297 1.57714C76.2052 1.2253 75.2333 1.6042 74.5945 2.07513C74.2451 2.33495 73.9339 2.64349 73.6445 3.00074Z" fill="#7D7D7D"/>
<path d="M73.7801 13.0851C73.5398 13.0851 73.3596 13.0093 73.2286 12.9173C72.9665 12.7332 72.8136 12.4085 72.7973 11.9971C72.7754 11.38 72.9993 10.8279 73.2177 10.292C73.3705 9.91849 73.518 9.56665 73.5726 9.20398C73.5726 9.19316 73.5726 9.18774 73.578 9.17692C73.5289 9.18774 73.4634 9.20939 73.3869 9.2527C72.2513 9.92391 71.0337 11.2339 70.1383 12.7603C70.04 12.9227 69.8325 12.9768 69.6687 12.8848C69.5049 12.7928 69.4503 12.5817 69.5432 12.4193C70.4986 10.7954 71.8036 9.39343 73.0375 8.6681C73.5071 8.39204 73.9657 8.43534 74.1731 8.78177C74.2987 8.98205 74.2605 9.2094 74.2496 9.30683C74.1786 9.7507 74.0148 10.1567 73.851 10.5518C73.649 11.039 73.4634 11.5045 73.4798 11.9754C73.4852 12.1649 73.5398 12.311 73.6217 12.3652C73.7364 12.4464 73.9766 12.4085 74.266 12.2569C74.5554 12.1053 74.8393 11.9267 75.1232 11.7535L75.2597 11.6669C75.5327 11.4991 75.7948 11.3259 76.0623 11.1418C75.9586 10.4381 76.1824 9.60455 76.652 9.07949C77.0833 8.59773 77.662 8.41911 78.279 8.5815C78.4756 8.63563 78.6284 8.73306 78.7213 8.86838C78.8632 9.07949 78.8632 9.35555 78.7213 9.64785C78.4483 10.2 77.935 10.5897 77.4873 10.9361L77.329 11.0606C77.1761 11.1797 77.0178 11.2988 76.8595 11.4125C76.9304 11.564 77.0396 11.7373 77.2089 11.8347C77.3508 11.9159 77.5419 11.9538 77.8258 11.9592C78.7376 11.97 79.644 11.6615 80.3647 11.0985C80.4411 11.039 80.5285 11.0119 80.6268 11.0282C80.7196 11.0444 80.8015 11.0931 80.8561 11.1743C80.8561 11.1743 81.8389 12.2786 87.2496 12.2786H94.9973C95.1884 12.2786 95.3412 12.4301 95.3412 12.6196C95.3412 12.809 95.1884 12.9606 94.9973 12.9606H87.2496C82.7616 12.9606 81.1182 12.2136 80.5558 11.8076C79.7532 12.3597 78.8086 12.6304 77.8204 12.6412C77.5419 12.6412 77.1816 12.6087 76.8649 12.4247C76.641 12.2894 76.4445 12.0837 76.3025 11.813C76.0841 11.9592 75.8657 12.1053 75.6419 12.2407L75.5054 12.3273C75.2105 12.5113 74.9103 12.6953 74.6045 12.8577C74.266 13.0255 73.9984 13.0851 73.7801 13.0851ZM77.8695 9.19857C77.5911 9.19857 77.3563 9.30683 77.1597 9.52877C76.9086 9.81024 76.7503 10.2433 76.723 10.6601C76.7776 10.6168 76.8376 10.5735 76.8922 10.5302L77.056 10.4057C77.4655 10.0917 77.8913 9.76693 78.0934 9.35555C78.1261 9.28518 78.1316 9.24188 78.1316 9.23105C78.0442 9.20399 77.9569 9.19857 77.8695 9.19857Z" fill="#7D7D7D"/>
<path d="M54.6704 13.085H48.7737C48.5826 13.085 48.4297 12.9335 48.4297 12.744C48.4297 12.5545 48.5826 12.403 48.7737 12.403H54.6704C60.9711 12.403 62.5327 11.1418 62.549 11.1309C62.6255 11.066 62.7237 11.0443 62.8166 11.0498C62.9148 11.0606 63.0022 11.1147 63.0568 11.1905C64.056 12.6303 64.9732 12.2352 65.006 12.2135C65.9615 11.9212 66.4146 10.8495 66.633 9.99423C66.8296 9.23641 66.9497 8.44612 67.0644 7.67748C67.179 6.93591 67.2937 6.17268 67.4793 5.42569C67.9434 3.54198 68.817 2.13461 70.0127 1.34973C70.1711 1.24689 70.384 1.29018 70.4877 1.44716C70.5915 1.60414 70.5478 1.81524 70.3895 1.91809C69.0627 2.78416 68.4348 4.39182 68.1454 5.58808C67.9707 6.30259 67.8561 7.05498 67.7469 7.78032C67.6267 8.5652 67.5066 9.37174 67.3046 10.162C66.9279 11.6289 66.2181 12.56 65.2571 12.8469C65.2517 12.8523 63.9741 13.4531 62.691 11.8455C61.9648 12.2514 59.8409 13.085 54.6704 13.085Z" fill="#7D7D7D"/>
<path d="M34.3216 55.9115L33.852 57.4001L33.0439 57.1511L34.3161 53.1401L35.7903 53.6002C36.2653 53.7518 36.5929 53.9737 36.7621 54.2768C36.9314 54.58 36.9587 54.9264 36.8331 55.3161C36.713 55.7004 36.4891 55.9657 36.167 56.1118C35.8449 56.2634 35.4518 56.2634 34.9931 56.1172L34.3216 55.9115ZM36.0087 55.0563C36.0742 54.856 36.0687 54.6828 35.9868 54.5421C35.9104 54.4013 35.7466 54.2931 35.4954 54.2119L34.9167 54.0333L34.5236 55.2674L35.1023 55.446C35.5773 55.5976 35.8776 55.4677 36.0087 55.0563Z" fill="#7D7D7D"/>
<path d="M42.2654 55.4028L41.6811 57.8008C41.6047 58.1201 41.6156 58.3799 41.7194 58.5748C41.8231 58.7697 42.0087 58.8996 42.2763 58.9645C42.5438 59.0295 42.7622 58.997 42.9478 58.8725C43.128 58.748 43.2591 58.5261 43.3355 58.2013L43.9197 55.8034L44.7387 55.9983L44.1545 58.3962C44.0617 58.7751 43.9142 59.0782 43.7068 59.3056C43.4993 59.5329 43.2591 59.6791 42.9751 59.744C42.6912 59.809 42.3909 59.809 42.0743 59.7332C41.5774 59.6141 41.2225 59.3759 40.9986 59.0078C40.7748 58.6452 40.7311 58.1797 40.8676 57.6113L41.4518 55.2134L42.2654 55.4028Z" fill="#7D7D7D"/>
<path d="M50.701 61.4163L50.0021 59.6354L49.6363 59.5759L49.3578 61.189L48.5225 61.0482L49.2322 56.9019L50.8266 57.1725C51.3125 57.2537 51.6619 57.4323 51.8749 57.7138C52.0878 57.9899 52.1642 58.3201 52.0987 58.7044C52.0441 59.0183 51.9131 59.2673 51.7001 59.446C51.4872 59.6246 51.2088 59.7274 50.8648 59.7383L51.6237 61.5679L50.701 61.4163ZM49.7291 59.0021L50.4171 59.1158C50.8921 59.197 51.1705 59.0292 51.2415 58.607C51.2743 58.4067 51.2415 58.2443 51.1487 58.109C51.0504 57.979 50.8812 57.8924 50.6355 57.8491L49.9475 57.7355L49.7291 59.0021Z" fill="#7D7D7D"/>
<path d="M57.5096 58.7587L57.3949 59.8413L58.8855 59.9983L58.8199 60.637L57.3294 60.48L57.2093 61.606L58.88 61.7792L58.809 62.4504L56.292 62.1905L56.7343 58.0117L59.2513 58.2715L59.1803 58.9373L57.5096 58.7587Z" fill="#7D7D7D"/>
<path d="M72.6551 62.9377L71.8088 62.9431L69.8924 60.1013L69.9142 62.9593L69.0679 62.9647L69.0352 58.7643L69.8814 58.7589L71.7979 61.6277L71.776 58.7481L72.6223 58.7427L72.6551 62.9377Z" fill="#7D7D7D"/>
<path d="M80.0702 61.6869L78.3777 61.8168L78.1429 62.6829L77.2529 62.7532L78.4814 58.4879L79.4478 58.4121L81.326 62.4339L80.4361 62.5042L80.0702 61.6869ZM79.7918 61.0698L79.0329 59.3485L78.5469 61.1673L79.7918 61.0698Z" fill="#7D7D7D"/>
<path d="M88.1348 57.3403L88.233 58.0007L87.0755 58.1685L87.5888 61.6706L86.748 61.7897L86.2347 58.2876L85.0827 58.4554L84.9844 57.795L88.1348 57.3403Z" fill="#7D7D7D"/>
<path d="M93.2061 56.4099L93.7303 58.8186C93.8013 59.1434 93.9214 59.3653 94.1015 59.4952C94.2763 59.6252 94.5056 59.663 94.7731 59.6035C95.0407 59.5494 95.2263 59.4249 95.3355 59.23C95.4447 59.0406 95.4611 58.7807 95.3955 58.4614L94.8714 56.0526L95.6959 55.8794L96.22 58.2882C96.3019 58.6671 96.3019 59.0027 96.2145 59.295C96.1272 59.5873 95.9743 59.8254 95.7505 60.0041C95.5266 60.1881 95.2536 60.3126 94.9315 60.3776C94.4346 60.4858 94.0033 60.4209 93.6429 60.1881C93.2826 59.9553 93.0369 59.5548 92.9167 58.9864L92.3926 56.5777L93.2061 56.4099Z" fill="#7D7D7D"/>
<path d="M103.433 58.2011L102.024 56.8966L101.664 56.9994L102.122 58.5746L101.309 58.8074L100.135 54.7693L101.685 54.3254C102.16 54.1901 102.554 54.2009 102.865 54.3579C103.181 54.5149 103.389 54.7801 103.498 55.1536C103.585 55.4567 103.575 55.7382 103.465 55.9926C103.356 56.247 103.149 56.4527 102.843 56.6151L104.328 57.9413L103.433 58.2011ZM101.505 56.4473L102.177 56.2579C102.641 56.1225 102.816 55.8573 102.695 55.4459C102.641 55.251 102.537 55.1157 102.395 55.0399C102.248 54.9642 102.057 54.9587 101.822 55.0291L101.15 55.2186L101.505 56.4473Z" fill="#7D7D7D"/>
<path d="M108.396 52.8857L108.767 53.9087L110.181 53.4053L110.4 54.0116L108.986 54.515L109.373 55.5814L110.957 55.0184L111.186 55.6517L108.805 56.4962L107.375 52.5393L109.756 51.6948L109.985 52.3227L108.396 52.8857Z" fill="#7D7D7D"/>
<path d="M77.8745 47.2568H63.7988V48.6155H77.8745V47.2568Z" fill="#7D7D7D"/>
<path d="M41.5612 12.0019C39.7922 11.9262 37.7993 11.7854 35.7955 11.3957C35.4297 10.4863 35.2386 9.51198 35.0529 8.48352C34.9929 8.15333 34.9328 7.82314 34.8673 7.49836C34.5943 6.17219 34.1302 4.49418 32.94 3.30333C32.8417 3.2059 32.5905 2.95148 32.2192 2.95148C32.2138 2.95148 32.2138 2.95148 32.2083 2.95148C31.8098 2.95148 31.4767 3.22755 31.2856 3.70388C30.8597 4.79189 30.9525 5.97191 31.0617 6.76761C31.2365 8.06131 31.5586 9.04647 32.0718 9.85841C32.2247 10.102 32.3994 10.3239 32.5851 10.5242C31.7879 10.2319 30.9143 9.84216 30.0353 9.32794C29.9752 9.24133 29.8933 9.17637 29.8005 9.1439C29.391 6.79468 28.9488 4.38592 28.1734 2.07459C27.9114 1.28971 27.5292 0.445294 26.6774 0.104278C26.3498 -0.0256325 26.0277 -0.0202202 25.7711 0.120516C25.3561 0.353273 25.2851 0.813374 25.2579 0.992001C25.0395 2.44267 25.3398 4.22353 25.9786 5.87448C24.6245 4.51042 23.194 3.15177 21.4359 2.2045C20.9063 1.91762 20.202 1.60366 19.4485 1.68486C19.1919 1.71192 18.9953 1.92303 18.9899 2.18285C18.968 3.13553 19.5249 4.01783 20.6934 4.89473C22.5115 6.25338 24.9685 6.99495 25.9786 7.25478C26.4044 7.76901 26.8795 8.25617 27.4036 8.71086C24.9084 8.25617 22.2658 8.70004 20.0709 10.0154C19.9071 10.1128 19.8143 10.2914 19.8252 10.4755C19.8362 10.6595 19.9454 10.8273 20.1146 10.9085C21.0155 11.3361 21.9928 11.4715 22.9592 11.4715C23.5926 11.4715 24.2205 11.4119 24.8101 11.3361C26.672 11.1034 28.1735 10.7353 29.5111 10.2048C30.2919 10.6595 31.1273 11.0655 32.0282 11.4065C30.9307 11.8179 29.7841 12.3051 28.8177 13.0629C27.6984 13.9398 26.9887 15.0657 26.8249 16.2403C26.743 16.814 27.0159 17.0739 27.1852 17.1767C27.3162 17.2579 27.4527 17.285 27.5783 17.285C27.824 17.285 28.0369 17.1713 28.1243 17.1226C30.2864 15.975 32.0718 14.27 33.7972 12.6244L34.3268 12.121C34.6435 12.2022 34.9547 12.2726 35.2713 12.3429C35.2823 12.3484 35.2932 12.3484 35.3096 12.3484C37.4771 12.7976 39.6229 12.9492 41.5229 13.0304C41.5284 13.0304 41.5393 13.0304 41.5448 13.0304C41.8178 13.0304 42.0471 12.8139 42.058 12.5432C42.0689 12.2563 41.8451 12.0182 41.5612 12.0019ZM21.3103 4.06655C20.6934 3.60645 20.3002 3.168 20.1255 2.74038C20.4149 2.81616 20.6934 2.95149 20.95 3.09223C22.1839 3.75802 23.265 4.66198 24.2805 5.62548C23.1121 5.17621 22.0693 4.63491 21.3103 4.06655ZM32.2411 4.07197C32.2411 4.06656 32.2411 4.06655 32.2466 4.06114C33.2239 5.06254 33.6224 6.52944 33.8572 7.70405C33.9227 8.02342 33.9828 8.3482 34.0429 8.67297C34.163 9.32794 34.2831 9.99915 34.4633 10.6541C33.8736 10.4051 33.3331 9.9396 32.94 9.3117C32.5086 8.62967 32.2302 7.77443 32.0773 6.62688C31.9299 5.52805 31.979 4.74317 32.2411 4.07197ZM26.2734 1.13273C26.2789 1.09484 26.2843 1.06237 26.2898 1.04072C26.7484 1.22476 27.005 1.82559 27.1907 2.38312C27.8349 4.32096 28.2499 6.35623 28.6102 8.35902C28.5993 8.3482 28.5884 8.34278 28.5775 8.33195C26.9614 6.45908 25.9513 3.31415 26.2734 1.13273ZM24.6791 10.3185C23.7182 10.4376 22.6535 10.5188 21.6652 10.3293C23.5161 9.53363 25.6455 9.32794 27.6056 9.76097C26.7375 9.99914 25.7711 10.1778 24.6791 10.3185ZM27.9004 16.0779C28.097 15.2714 28.643 14.4919 29.4565 13.8586C30.2701 13.2253 31.2255 12.7976 32.4049 12.3538C32.5141 12.3159 32.6178 12.2726 32.7216 12.2401C31.231 13.6475 29.6804 15.0765 27.9004 16.0779Z" fill="#7D7D7D"/>
<path d="M123.05 9.99927C120.855 8.68392 118.218 8.24005 115.717 8.69474C116.241 8.24005 116.716 7.75288 117.142 7.23865C118.152 6.97883 120.604 6.23725 122.428 4.8786C123.596 4.00711 124.153 3.11939 124.131 2.1667C124.126 1.91229 123.929 1.69578 123.672 1.66871C122.908 1.59293 122.209 1.90688 121.685 2.18835C119.927 3.13562 118.496 4.48887 117.142 5.85835C117.781 4.2074 118.081 2.43194 117.863 0.981263C117.836 0.808048 117.77 0.342532 117.35 0.109775C117.093 -0.0309625 116.771 -0.0363748 116.443 0.0935364C115.592 0.434553 115.21 1.27898 114.953 2.06386C114.183 4.36978 113.741 6.78396 113.326 9.13319C113.228 9.16567 113.151 9.23604 113.091 9.32265C112.212 9.83688 111.338 10.2266 110.541 10.5189C110.727 10.3132 110.896 10.0913 111.049 9.85311C111.562 9.04117 111.884 8.05601 112.059 6.76232C112.168 5.96661 112.261 4.78658 111.835 3.69857C111.644 3.21682 111.289 2.92452 110.902 2.94617C110.53 2.95159 110.279 3.20599 110.181 3.29801C108.985 4.49428 108.521 6.16688 108.248 7.49306C108.183 7.82325 108.123 8.15344 108.063 8.48363C107.877 9.5121 107.686 10.481 107.32 11.3904C105.316 11.7801 103.323 11.9209 101.554 11.9967C101.27 12.0075 101.052 12.2456 101.063 12.5271C101.074 12.8032 101.303 13.0143 101.576 13.0143C101.582 13.0143 101.593 13.0143 101.598 13.0143C103.498 12.9331 105.644 12.7815 107.811 12.3323C107.822 12.3323 107.833 12.3268 107.844 12.3268C108.161 12.2619 108.472 12.1861 108.789 12.1049L109.313 12.6029C111.038 14.2484 112.824 15.9535 114.986 17.1011C115.073 17.1498 115.286 17.2581 115.532 17.2581C115.657 17.2581 115.794 17.231 115.925 17.1498C116.094 17.047 116.367 16.7925 116.285 16.2188C116.121 15.0496 115.412 13.9183 114.292 13.0414C113.326 12.2889 112.179 11.8018 111.082 11.385C111.977 11.044 112.813 10.6434 113.593 10.1887C114.931 10.7192 116.438 11.0764 118.305 11.3146C118.895 11.3904 119.523 11.4499 120.156 11.4499C121.117 11.4499 122.1 11.3146 122.995 10.887C123.165 10.8058 123.279 10.638 123.285 10.454C123.307 10.2753 123.214 10.0967 123.05 9.99927ZM122.176 3.09232C122.433 2.957 122.711 2.81626 122.995 2.74048C122.821 3.1681 122.422 3.60655 121.805 4.06665C121.046 4.63501 120.003 5.17631 118.84 5.62559C119.861 4.65667 120.948 3.75812 122.176 3.09232ZM115.93 2.38322C116.116 1.82027 116.367 1.22485 116.831 1.04081C116.837 1.06246 116.842 1.09493 116.848 1.13282C117.17 3.31425 116.16 6.45918 114.538 8.33748C114.527 8.3429 114.516 8.35373 114.505 8.35914C114.871 6.35634 115.286 4.32106 115.93 2.38322ZM109.078 8.67309C109.138 8.34831 109.198 8.02353 109.264 7.70417C109.504 6.53497 109.903 5.06805 110.88 4.06124C110.88 4.06665 110.88 4.06666 110.885 4.07207C111.147 4.73786 111.197 5.52816 111.049 6.6324C110.896 7.77454 110.623 8.62979 110.186 9.31724C109.799 9.93431 109.253 10.4052 108.663 10.6542C108.838 9.99386 108.958 9.32265 109.078 8.67309ZM115.226 16.078C113.441 15.0766 111.89 13.653 110.399 12.2294C110.503 12.2673 110.612 12.3052 110.721 12.3485C111.906 12.7924 112.862 13.22 113.67 13.8533C114.483 14.492 115.029 15.2715 115.226 16.078ZM118.442 10.3186C117.344 10.1833 116.383 9.99926 115.515 9.76651C117.475 9.33347 119.61 9.53375 121.456 10.3349C120.473 10.5189 119.408 10.4377 118.442 10.3186Z" fill="#7D7D7D"/>
<path d="M2.33139 35.0289C3.61898 35.0289 4.66278 33.9941 4.66278 32.7176C4.66278 31.4411 3.61898 30.4062 2.33139 30.4062C1.0438 30.4062 0 31.4411 0 32.7176C0 33.9941 1.0438 35.0289 2.33139 35.0289Z" fill="#7D7D7D"/>
<path d="M137.104 35.0289C138.391 35.0289 139.435 33.9941 139.435 32.7176C139.435 31.4411 138.391 30.4062 137.104 30.4062C135.816 30.4062 134.772 31.4411 134.772 32.7176C134.772 33.9941 135.816 35.0289 137.104 35.0289Z" fill="#7D7D7D"/>
</svg>
