<svg width="120" height="111" viewBox="0 0 120 111" fill="none" xmlns="http://www.w3.org/2000/svg">
<path d="M2.8228 37.9501L4.20416 38.329L3.99668 39.0652L0.267578 38.0421L0.644311 36.6943C0.764428 36.2613 0.960993 35.9582 1.23399 35.7958C1.50698 35.6334 1.82365 35.6009 2.18947 35.6984C2.54436 35.7958 2.79552 35.9907 2.94293 36.2721C3.09035 36.559 3.1067 36.9109 2.98659 37.3331L2.8228 37.9501ZM1.98199 36.4508C1.79635 36.3966 1.63799 36.4129 1.51241 36.4832C1.38684 36.559 1.28858 36.7106 1.22852 36.9379L1.08109 37.4684L2.22766 37.7823L2.37508 37.2519C2.48974 36.8242 2.36418 36.5536 1.98199 36.4508Z" fill="#7D7D7D"/>
<path d="M2.66907 30.8811L4.7493 31.7796C5.02776 31.8987 5.26253 31.9257 5.45362 31.8662C5.64472 31.8067 5.79213 31.6605 5.89041 31.4332C5.98869 31.2058 5.99414 31.0056 5.91224 30.8215C5.82488 30.6375 5.6447 30.4913 5.36625 30.3668L3.28601 29.4683L3.59177 28.77L5.67203 29.6686C5.99963 29.8093 6.25076 29.9879 6.42547 30.2099C6.60019 30.4318 6.69302 30.67 6.7094 30.9298C6.72578 31.1896 6.67666 31.4602 6.55654 31.7309C6.3709 32.1531 6.0979 32.4346 5.73209 32.5753C5.36627 32.716 4.9404 32.6836 4.44355 32.4725L2.36328 31.5739L2.66907 30.8811Z" fill="#7D7D7D"/>
<path d="M9.93753 25.3326L8.17941 25.3109L7.99923 25.5978L9.28233 26.3827L8.8783 27.0322L5.58594 25.024L6.36124 23.7791C6.59602 23.4002 6.86902 23.1674 7.18023 23.0808C7.49145 22.9942 7.79721 23.0483 8.10297 23.2324C8.35412 23.3839 8.51794 23.5788 8.59984 23.8224C8.68174 24.0605 8.67082 24.3312 8.56708 24.6235L10.3907 24.6127L9.93753 25.3326ZM7.55151 25.3218L7.88459 24.7859C8.11391 24.4124 8.06475 24.1255 7.73169 23.9198C7.57336 23.8224 7.42047 23.7953 7.27851 23.8278C7.13109 23.8657 7.00006 23.9794 6.87994 24.1688L6.54689 24.7047L7.55151 25.3218Z" fill="#7D7D7D"/>
<path d="M10.4453 19.1126L11.2206 19.7406L12.0888 18.6904L12.5474 19.0639L11.6793 20.1141L12.4873 20.769L13.4592 19.589L13.9396 19.9787L12.4819 21.7488L9.48438 19.3238L10.9422 17.5537L11.4172 17.938L10.4453 19.1126Z" fill="#7D7D7D"/>
<path d="M22.1506 12.5098L21.5391 12.9807L18.5579 11.9739L20.1686 14.0363L19.5571 14.5072L17.1875 11.4759L17.799 11.005L20.791 12.028L19.164 9.94945L19.7755 9.47852L22.1506 12.5098Z" fill="#7D7D7D"/>
<path d="M26.9502 8.65536L25.5961 9.40776L25.7381 10.2143L25.0228 10.6094L24.4004 6.60926L25.1702 6.18164L28.2769 8.80692L27.5617 9.20207L26.9502 8.65536ZM26.4806 8.24939L25.1866 7.11267L25.4869 8.80151L26.4806 8.24939Z" fill="#7D7D7D"/>
<path d="M32.4864 2.86328L32.7103 3.43164L31.7166 3.81596L32.8959 6.82556L32.1752 7.10162L30.9959 4.09202L30.0022 4.47093L29.7783 3.90257L32.4864 2.86328Z" fill="#7D7D7D"/>
<path d="M37.0291 1.51046L37.5532 3.69734C37.6242 3.98965 37.7389 4.19535 37.9027 4.30902C38.0665 4.4227 38.2739 4.45518 38.5196 4.39563C38.7599 4.3415 38.9291 4.22241 39.0219 4.04378C39.1148 3.86515 39.1311 3.63239 39.0602 3.34008L38.5415 1.1532L39.2895 0.97998L39.8136 3.16686C39.8955 3.5133 39.901 3.82185 39.83 4.08709C39.7591 4.35774 39.6171 4.57426 39.4151 4.74207C39.2131 4.90987 38.9673 5.03437 38.678 5.09933C38.2248 5.20218 37.8317 5.15346 37.4986 4.95318C37.1656 4.74748 36.9363 4.3848 36.8107 3.87056L36.292 1.68368L37.0291 1.51046Z" fill="#7D7D7D"/>
<path d="M45.8685 3.95702L44.8311 2.54965L44.4925 2.58213L44.629 4.07069L43.8592 4.14105L43.5098 0.319536L44.9785 0.189623C45.4262 0.151733 45.7756 0.227514 46.0323 0.422379C46.2889 0.617244 46.4308 0.893305 46.4636 1.24514C46.4909 1.53203 46.4308 1.78102 46.2889 1.99212C46.1469 2.20323 45.9231 2.35479 45.6228 2.4414L46.7256 3.88123L45.8685 3.95702ZM44.4434 2.05708L45.0768 2.00295C45.519 1.96506 45.721 1.74855 45.6828 1.36423C45.6664 1.18019 45.6009 1.03945 45.4808 0.947432C45.3661 0.855413 45.1914 0.817524 44.9676 0.839176L44.3342 0.898718L44.4434 2.05708Z" fill="#7D7D7D"/>
<path d="M51.1808 0.633322L51.1371 1.62932L52.5075 1.68345L52.4857 2.26806L51.1153 2.21393L51.0716 3.24781L52.6058 3.31277L52.5785 3.92444L50.2744 3.83242L50.4328 0L52.7368 0.0920203L52.7095 0.69828L51.1808 0.633322Z" fill="#7D7D7D"/>
<path d="M96.0238 34.3781C95.8109 34.3781 95.6089 34.2481 95.5379 34.0316C90.422 19.2543 78.3392 7.81673 63.2207 3.44307C62.9477 3.36187 62.7893 3.0804 62.8712 2.80975C62.9531 2.53911 63.2371 2.38755 63.5101 2.46333C78.9507 6.92901 91.2846 18.6101 96.5098 33.7014C96.6026 33.9667 96.4606 34.259 96.1931 34.351C96.1385 34.3672 96.0784 34.3781 96.0238 34.3781Z" fill="#7D7D7D"/>
<path d="M23.3301 35.7903C23.2319 35.9527 23.0844 36.088 22.8933 36.1855C22.7022 36.2829 22.462 36.337 22.189 36.337C21.916 36.337 21.6703 36.2883 21.4574 36.1963C21.239 36.1043 21.0697 35.969 20.9387 35.7957C20.8076 35.6225 20.7367 35.4168 20.7148 35.1895H21.5393C21.5557 35.3465 21.6212 35.4764 21.7304 35.5792C21.8396 35.6821 21.9815 35.7362 22.1617 35.7362C22.32 35.7362 22.4456 35.6929 22.533 35.6063C22.6203 35.5197 22.664 35.4114 22.664 35.2761C22.664 35.157 22.6313 35.0596 22.5603 34.9784C22.4893 34.9026 22.4019 34.8377 22.2982 34.7889C22.1945 34.7402 22.0471 34.6861 21.8614 34.6266C21.6212 34.5454 21.4246 34.4696 21.2717 34.3884C21.1189 34.3126 20.9878 34.1989 20.8786 34.0474C20.7694 33.9012 20.7148 33.7064 20.7148 33.4682C20.7148 33.138 20.8349 32.8782 21.0752 32.6887C21.3154 32.4993 21.6321 32.4019 22.0252 32.4019C22.4347 32.4019 22.7623 32.4993 23.0026 32.6942C23.2482 32.889 23.3848 33.1488 23.4175 33.479H22.5821C22.5603 33.3437 22.5002 33.23 22.4074 33.138C22.3146 33.0514 22.1835 33.0027 22.0197 33.0027C21.8778 33.0027 21.7632 33.0406 21.6758 33.1164C21.5884 33.1921 21.5447 33.3004 21.5447 33.4411C21.5447 33.5548 21.5775 33.6468 21.6485 33.7226C21.714 33.7984 21.8014 33.8579 21.9051 33.9066C22.0088 33.9554 22.1508 34.0041 22.331 34.0636C22.5821 34.1502 22.7787 34.2314 22.937 34.3072C23.0899 34.383 23.2264 34.4966 23.3356 34.6482C23.4448 34.7998 23.4994 35 23.4994 35.2436C23.483 35.4439 23.4284 35.6225 23.3301 35.7903Z" fill="#7D7D7D"/>
<path d="M30.7338 32.4614V33.0677H29.6636V36.2938H28.8938V33.0677H27.8291V32.4614H30.7338Z" fill="#7D7D7D"/>
<path d="M38.3331 32.4614L37.0228 34.9568V36.2992H36.2475V34.9568L34.9316 32.4614H35.8216L36.646 34.1394L37.4705 32.4614H38.3331Z" fill="#7D7D7D"/>
<path d="M43.5804 35.7092H44.8799V36.2938H42.8105V32.4561H43.5858V35.7092H43.5804Z" fill="#7D7D7D"/>
<path d="M50.1663 33.0677V34.0637H51.5368V34.6483H50.1663V35.6822H51.7006V36.2938H49.3965V32.4561H51.7006V33.0623H50.1663V33.0677Z" fill="#7D7D7D"/>
<path d="M30.9739 54.3354C30.6518 54.1459 30.3242 53.8536 29.9911 53.4585L23.5703 46.7031C23.4938 46.5949 23.4337 46.5408 23.3901 46.5408C23.3136 46.5408 23.2754 46.6436 23.2754 46.8493C23.2754 47.645 23.2918 48.5436 23.3246 49.5504C23.3355 49.9455 23.3464 50.3894 23.3573 50.8928C23.3682 51.3962 23.3737 51.9158 23.3737 52.4625C23.3737 52.8252 23.4884 53.1012 23.7122 53.2961C23.9361 53.491 24.2801 53.6479 24.7442 53.7562C25.039 53.832 25.1919 53.9457 25.1919 54.1026C25.1919 54.1784 25.1482 54.238 25.0663 54.2813C24.9844 54.3246 24.8916 54.3462 24.7933 54.3462C24.4384 54.3462 24.078 54.3354 23.7068 54.3137L22.8987 54.2975C22.582 54.2975 22.2653 54.3029 21.9596 54.3246C21.6538 54.3408 21.4518 54.357 21.3645 54.3679C21.288 54.3679 21.2061 54.3408 21.1188 54.2921C21.0314 54.2434 20.9877 54.1838 20.9877 54.1189C20.9877 54.0323 21.0205 53.9619 21.086 53.9132C21.1515 53.8645 21.2498 53.8103 21.3808 53.7562C21.8777 53.5613 22.1507 53.1175 22.2053 52.43C22.4346 50.0105 22.5493 47.8669 22.5493 45.9995C22.5493 45.4852 22.4237 45.1009 22.178 44.8357C21.9323 44.5759 21.5665 44.3485 21.0805 44.1645C20.7857 44.0887 20.6328 43.9696 20.6328 43.8018C20.6328 43.6286 20.7748 43.542 21.0641 43.542L22.3199 43.5745C23.6412 43.6069 24.3401 43.6232 24.4165 43.6232C24.5585 43.6232 24.6677 43.6773 24.7442 43.7856L30.832 50.476C30.9412 50.6059 31.0176 50.6708 31.0613 50.6708C31.1487 50.6708 31.1923 50.5951 31.1923 50.4435V48.7276C31.1923 47.0279 31.1759 45.8696 31.1432 45.2579C31.1323 44.9548 31.0285 44.7274 30.832 44.5867C30.6354 44.4459 30.3078 44.316 29.8601 44.1915C29.6089 44.1266 29.4779 44.0129 29.4779 43.8505C29.4779 43.7856 29.5107 43.726 29.5871 43.6773C29.6581 43.6286 29.74 43.6015 29.8273 43.6015L30.8975 43.6178C31.0394 43.6286 31.2687 43.634 31.5745 43.634L32.3334 43.6178C32.6829 43.5961 33.0159 43.5853 33.3217 43.5853C33.4418 43.5853 33.5401 43.6069 33.6111 43.6502C33.682 43.6936 33.7203 43.7531 33.7203 43.8289C33.7203 44.0021 33.5838 44.1158 33.3053 44.1699C32.9067 44.2457 32.6283 44.3593 32.4645 44.5055C32.3007 44.6516 32.2188 44.8844 32.2188 45.1984C32.2188 45.8533 32.1806 47.0983 32.1041 48.9279C32.0495 49.9942 32.0222 50.8603 32.0222 51.5152C32.0222 51.7642 32.0386 52.0728 32.0823 52.4409C32.1205 52.8089 32.1478 53.0417 32.1587 53.15C32.2024 53.5668 32.2242 53.7833 32.2242 53.8049C32.2242 54.3408 32.0659 54.606 31.7438 54.606C31.5581 54.6223 31.3015 54.5248 30.9739 54.3354Z" fill="#7D7D7D"/>
<path d="M36.8594 54.1131C36.8594 54.0156 36.8921 53.9398 36.9522 53.8911C37.0122 53.8424 37.1051 53.7937 37.2252 53.7504C37.5528 53.6638 37.8367 53.5285 38.0769 53.339C38.3117 53.155 38.4864 52.9384 38.5956 52.7003C39.6385 50.2915 40.583 47.9207 41.4184 45.5985C41.5494 45.2358 41.6532 44.9165 41.7296 44.6242C41.806 44.3373 41.8552 44.1911 41.877 44.1911C42.352 44.0829 42.7615 43.9692 43.1164 43.8501C43.302 43.7852 43.4822 43.6986 43.646 43.5903C43.8098 43.482 43.9354 43.3792 44.0282 43.2818C44.1156 43.2385 44.1702 43.2168 44.192 43.2168C44.2466 43.2168 44.2903 43.2547 44.3231 43.3305C44.3995 43.4929 44.4596 43.6444 44.5032 43.7906C45.1857 45.9936 45.9392 48.3374 46.7636 50.8274L47.3751 52.7111C47.528 53.2145 47.9703 53.5609 48.6965 53.7558C48.8166 53.7991 48.9094 53.8424 48.9694 53.8857C49.0295 53.929 49.0623 53.9994 49.0623 54.0968C49.0623 54.1726 49.0295 54.2321 48.9694 54.2754C48.9094 54.3187 48.8329 54.3404 48.7456 54.3404C48.5272 54.3404 48.0849 54.3296 47.4243 54.3079C46.7418 54.2863 46.2668 54.2754 46.0047 54.2754C45.7863 54.2754 45.3659 54.2863 44.7489 54.3079C44.2411 54.3404 43.7825 54.3566 43.3621 54.3566C43.2638 54.3566 43.1819 54.335 43.1164 54.2917C43.0509 54.2484 43.0181 54.1888 43.0181 54.1131C43.0181 53.929 43.1382 53.8099 43.3839 53.7504C43.7716 53.6746 44.05 53.5772 44.2357 53.4635C44.4159 53.3498 44.5087 53.1874 44.5087 52.9818C44.5087 52.8735 44.4978 52.7869 44.4759 52.7219L43.9627 50.822C43.9408 50.7246 43.9081 50.6542 43.8699 50.6109C43.8317 50.5676 43.7716 50.5459 43.6952 50.5459H40.8232C40.7359 50.5459 40.6758 50.5676 40.6431 50.6109C40.6103 50.6542 40.5776 50.7246 40.5448 50.822L40.3155 51.5257C40.2827 51.6448 40.2336 51.8017 40.1681 52.002C40.1026 52.1969 40.0479 52.3755 40.0043 52.5271C39.9606 52.6678 39.9387 52.8085 39.9387 52.9547C39.9387 53.1604 40.0206 53.3228 40.179 53.4364C40.3373 53.5501 40.6212 53.6584 41.0307 53.7558C41.271 53.8099 41.3966 53.929 41.3966 54.1185C41.3966 54.27 41.2819 54.3458 41.0471 54.3458C40.796 54.3458 40.4683 54.335 40.0752 54.3133L39.1853 54.2971C38.8795 54.2971 38.5738 54.3133 38.2789 54.3458C38.1807 54.3566 38.0332 54.3675 37.8312 54.3783C37.6347 54.3891 37.4545 54.3945 37.3016 54.3945C37.0013 54.3891 36.8594 54.2971 36.8594 54.1131ZM43.3457 49.5987C43.5095 49.5987 43.5914 49.5608 43.5914 49.485C43.5914 49.4742 43.5805 49.4146 43.5587 49.3064L42.5049 45.6905C42.4721 45.5823 42.4394 45.5281 42.4066 45.5281C42.3848 45.5281 42.352 45.5823 42.3084 45.6905L41.0362 49.3064C41.0143 49.3497 41.0034 49.393 41.0034 49.4363C41.0034 49.4904 41.0307 49.5337 41.0853 49.5608C41.1399 49.5878 41.2054 49.6041 41.2819 49.6041H43.3457V49.5987Z" fill="#7D7D7D"/>
<path d="M95.1553 54.1131C95.1553 54.0156 95.1881 53.9398 95.2481 53.8911C95.3082 53.8424 95.401 53.7937 95.5211 53.7504C95.8487 53.6638 96.1326 53.5285 96.3729 53.339C96.6076 53.155 96.7823 52.9384 96.8915 52.7003C97.9344 50.2915 98.879 47.9207 99.7143 45.5985C99.8454 45.2358 99.9491 44.9165 100.026 44.6242C100.102 44.3373 100.151 44.1911 100.173 44.1911C100.648 44.0829 101.057 43.9692 101.412 43.8501C101.598 43.7852 101.778 43.6986 101.942 43.5903C102.106 43.482 102.231 43.3792 102.324 43.2818C102.412 43.2385 102.466 43.2168 102.488 43.2168C102.543 43.2168 102.586 43.2547 102.619 43.3305C102.695 43.4929 102.755 43.6444 102.799 43.7906C103.482 45.9936 104.235 48.3374 105.06 50.8274L105.671 52.7111C105.824 53.2145 106.266 53.5609 106.992 53.7558C107.112 53.7991 107.205 53.8424 107.265 53.8857C107.325 53.929 107.358 53.9994 107.358 54.0968C107.358 54.1726 107.325 54.2321 107.265 54.2754C107.205 54.3187 107.129 54.3404 107.042 54.3404C106.823 54.3404 106.381 54.3296 105.72 54.3079C105.038 54.2863 104.563 54.2754 104.301 54.2754C104.082 54.2754 103.662 54.2863 103.045 54.3079C102.537 54.3404 102.078 54.3566 101.658 54.3566C101.56 54.3566 101.478 54.335 101.412 54.2917C101.347 54.2484 101.314 54.1888 101.314 54.1131C101.314 53.929 101.434 53.8099 101.68 53.7504C102.068 53.6746 102.346 53.5772 102.532 53.4635C102.712 53.3498 102.805 53.1874 102.805 52.9818C102.805 52.8735 102.794 52.7869 102.772 52.7219L102.259 50.822C102.237 50.7246 102.204 50.6542 102.166 50.6109C102.128 50.5676 102.068 50.5459 101.991 50.5459H99.1192C99.0318 50.5459 98.9718 50.5676 98.939 50.6109C98.9062 50.6542 98.8735 50.7246 98.8407 50.822L98.6114 51.5257C98.5787 51.6448 98.5295 51.8017 98.464 52.002C98.3985 52.1969 98.3439 52.3755 98.3002 52.5271C98.2565 52.6678 98.2347 52.8085 98.2347 52.9547C98.2347 53.1604 98.3166 53.3228 98.4749 53.4364C98.6333 53.5501 98.9172 53.6584 99.3267 53.7558C99.5669 53.8099 99.6925 53.929 99.6925 54.1185C99.6925 54.27 99.5778 54.3458 99.3431 54.3458C99.0919 54.3458 98.7643 54.335 98.3712 54.3133L97.4812 54.2971C97.1754 54.2971 96.8697 54.3133 96.5749 54.3458C96.4766 54.3566 96.3292 54.3675 96.1272 54.3783C95.9306 54.3891 95.7504 54.3945 95.5975 54.3945C95.2972 54.3891 95.1553 54.2971 95.1553 54.1131ZM101.636 49.5987C101.8 49.5987 101.882 49.5608 101.882 49.485C101.882 49.4742 101.871 49.4146 101.849 49.3064L100.795 45.6905C100.763 45.5823 100.73 45.5281 100.697 45.5281C100.675 45.5281 100.643 45.5823 100.599 45.6905L99.3267 49.3064C99.3048 49.3497 99.2939 49.393 99.2939 49.4363C99.2939 49.4904 99.3212 49.5337 99.3758 49.5608C99.4304 49.5878 99.4959 49.6041 99.5724 49.6041H101.636V49.5987Z" fill="#7D7D7D"/>
<path d="M53.7907 54.2861C53.7143 54.2374 53.6761 54.1779 53.6761 54.1129C53.6761 53.9289 53.7962 53.8098 54.0419 53.7502C54.4841 53.6528 54.7844 53.5337 54.9592 53.3984C55.1284 53.2631 55.2158 53.0357 55.2158 52.7218V45.8852C55.2158 45.3169 55.1939 44.9542 55.1557 44.7972C55.1175 44.6403 55.052 44.532 54.9646 44.4779C54.8336 44.4021 54.6097 44.3642 54.2876 44.3642H54.0091C53.6597 44.3642 53.3157 44.4562 52.9881 44.6349C52.6605 44.8135 52.3876 45.0408 52.1801 45.3115C51.9944 45.5605 51.8252 45.7716 51.6668 45.934C51.514 46.0963 51.3665 46.1775 51.2191 46.1775C51.0444 46.1775 50.957 46.0801 50.957 45.8852C50.957 45.7445 50.9953 45.5984 51.0717 45.4414C51.301 44.9813 51.4703 44.6024 51.5686 44.3047C51.6668 44.007 51.7324 43.6659 51.7651 43.2816C51.7979 43.0002 51.9398 42.854 52.1964 42.854C52.262 42.854 52.3603 42.9406 52.4913 43.1138C52.5787 43.2437 52.666 43.3412 52.7534 43.4061C52.8516 43.4819 53.0318 43.5469 53.2884 43.5956C53.545 43.6443 53.7634 43.6714 53.9382 43.6714L60.2443 43.6551C60.4736 43.6551 60.6866 43.6281 60.8722 43.5793C61.0579 43.5306 61.1944 43.4765 61.2872 43.4224C61.3527 43.3899 61.4783 43.2925 61.6694 43.1301C61.8441 42.9569 61.9915 42.8702 62.1171 42.8702C62.2481 42.8702 62.3137 42.9569 62.3137 43.1301C62.3137 43.1842 62.3027 43.287 62.2809 43.4386C62.2591 43.5144 62.2099 43.6876 62.1335 43.9637C62.057 44.2343 61.997 44.4833 61.9588 44.6998C61.9205 44.9163 61.8987 45.1166 61.8987 45.2898V45.6308C61.8987 45.8365 61.8769 45.9935 61.8332 46.0909C61.7895 46.1884 61.7185 46.2371 61.6202 46.2371C61.511 46.2371 61.4182 46.1884 61.3472 46.0909C61.2763 45.9935 61.1998 45.8311 61.1234 45.5984C60.9814 45.1491 60.7849 44.8297 60.5392 44.6403C60.2935 44.4508 59.9386 44.3534 59.4745 44.3534H58.7975C58.6009 44.3534 58.448 44.3967 58.3443 44.4833C58.2406 44.5699 58.1587 44.7377 58.1041 44.9921C58.0495 45.2411 58.0221 45.6038 58.0221 46.0747V52.7001C58.0221 52.9924 58.104 53.2089 58.2624 53.3443C58.4207 53.4796 58.7265 53.6149 59.1797 53.7448C59.2998 53.7881 59.3926 53.8314 59.4527 53.8747C59.5127 53.918 59.5455 53.9884 59.5455 54.0858C59.5455 54.1616 59.5127 54.2212 59.4527 54.2645C59.3926 54.3078 59.3162 54.3294 59.2288 54.3294C58.9995 54.3294 58.5408 54.3186 57.8584 54.2969L56.5862 54.2645C56.3897 54.2645 55.9801 54.2753 55.3632 54.2969C54.8882 54.3294 54.4459 54.3457 54.0255 54.3457C53.9436 54.3565 53.8672 54.3348 53.7907 54.2861Z" fill="#7D7D7D"/>
<path d="M68.1723 53.3498C67.3642 52.5595 66.9602 51.4823 66.9602 50.1183V45.5389C66.9602 45.2358 66.8837 44.9543 66.7363 44.6945C66.5889 44.4401 66.376 44.2723 66.103 44.1965C65.8082 44.1208 65.6553 44.0017 65.6553 43.8393C65.6553 43.7635 65.6989 43.704 65.7808 43.6607C65.8627 43.6174 65.9665 43.5957 66.0866 43.5957C66.4688 43.5957 66.8674 43.6119 67.2769 43.6444C67.7846 43.6661 68.1395 43.6769 68.347 43.6769C68.5545 43.6769 68.9476 43.6661 69.5209 43.6444C70.116 43.6228 70.531 43.6119 70.7767 43.6119C71.0606 43.6119 71.208 43.6931 71.208 43.8555C71.208 43.9421 71.1643 44.0125 71.077 44.0666C70.9896 44.1208 70.875 44.1749 70.7385 44.2236C70.602 44.2723 70.4873 44.321 70.3999 44.3643C69.9905 44.5592 69.7884 44.9868 69.7884 45.6418V49.8639C69.7884 50.8869 70.0232 51.6664 70.4982 52.1969C70.9732 52.7273 71.5684 52.9926 72.2945 52.9926C73.2718 52.9926 74.0035 52.7165 74.4785 52.159C74.959 51.6014 75.1992 50.7354 75.1992 49.5553C75.1992 49.0952 75.2047 48.7434 75.2156 48.4944L75.232 47.2657C75.232 46.9192 75.2265 46.6648 75.2156 46.5133C75.2047 45.9882 75.1665 45.5877 75.1064 45.3116C75.0463 45.0355 74.9535 44.819 74.8334 44.6729C74.7133 44.5267 74.5331 44.3914 74.2874 44.2723C74.211 44.229 74.1127 44.1857 73.9925 44.1478C73.8724 44.1099 73.7796 44.0666 73.7141 44.0233C73.6486 43.98 73.6158 43.9259 73.6158 43.8609C73.6158 43.6985 73.7796 43.6174 74.1127 43.6174C74.4512 43.6174 74.8006 43.6282 75.1501 43.6498L75.778 43.6661C75.9745 43.6661 76.2202 43.6552 76.5041 43.6336C76.788 43.6119 77.0556 43.6011 77.2958 43.6011C77.5688 43.6011 77.7108 43.6823 77.7108 43.8447C77.7108 43.9963 77.5688 44.1153 77.2794 44.2019C76.9027 44.3102 76.6406 44.478 76.4877 44.7108C76.3349 44.9381 76.2475 45.2683 76.2257 45.6905C76.1711 47.0113 76.1438 48.4403 76.1438 49.9775C76.1438 50.8599 75.9472 51.6501 75.5486 52.343C75.1501 53.0359 74.615 53.5772 73.938 53.9615C73.2609 54.3458 72.5129 54.5406 71.683 54.5406C70.1488 54.5406 68.9804 54.1455 68.1723 53.3498Z" fill="#7D7D7D"/>
<path d="M89.8159 54.227C89.3299 53.9455 88.8931 53.5395 88.4945 53.0145C88.096 52.4786 87.7465 51.9698 87.4408 51.4772C87.135 50.9846 86.8347 50.4325 86.5508 49.81C86.4416 49.5719 86.3106 49.4095 86.1523 49.3175C86.0321 49.2417 85.9011 49.2038 85.7537 49.2038C85.6445 49.2038 85.5899 49.312 85.5899 49.5286V52.7005C85.5899 53.0253 85.6827 53.2581 85.8629 53.388C86.0431 53.5179 86.3816 53.637 86.8784 53.7452C86.9876 53.7669 87.0695 53.8048 87.1187 53.8589C87.1678 53.913 87.1951 53.9888 87.1951 54.0862C87.1951 54.2486 87.1077 54.3298 86.933 54.3298L85.4971 54.2973L84.1594 54.2649C83.9628 54.2649 83.5642 54.2757 82.9691 54.2973C82.5268 54.3298 82.101 54.3461 81.6806 54.3461C81.615 54.3461 81.5495 54.319 81.484 54.2703C81.4185 54.2216 81.3857 54.162 81.3857 54.0971C81.3857 53.913 81.4895 53.7939 81.697 53.7344C82.1283 53.6478 82.4122 53.5341 82.5651 53.3988C82.7125 53.2635 82.7889 53.0307 82.7889 52.7059V45.2957C82.7889 44.9492 82.7234 44.7002 82.5924 44.5487C82.4613 44.4025 82.1938 44.2834 81.8007 44.1968C81.5714 44.1427 81.4513 44.029 81.4513 43.8558C81.4513 43.78 81.484 43.7151 81.5441 43.6664C81.6041 43.6176 81.686 43.5906 81.7843 43.5906C82.1829 43.5906 82.6197 43.6122 83.1056 43.6555C83.5479 43.6988 83.8918 43.7205 84.143 43.7205C84.3505 43.7205 84.6562 43.6988 85.0493 43.6555C85.5353 43.5906 86.0212 43.5581 86.5181 43.5581C87.8394 43.5581 88.8495 43.7746 89.5483 44.2131C90.2472 44.6515 90.5966 45.3011 90.5966 46.178C90.5966 46.8437 90.3892 47.3796 89.9687 47.791C89.5483 48.2024 89.0405 48.4893 88.4345 48.6679C88.4017 48.6787 88.3854 48.7058 88.3854 48.7491C88.3854 48.7924 88.3963 48.8303 88.4181 48.8628C88.9696 49.6801 89.4719 50.3892 89.936 50.99C90.4001 51.5909 90.8478 52.0997 91.2901 52.5111C91.6286 52.825 91.9834 53.0307 92.3547 53.1173C92.726 53.2039 93.1682 53.2472 93.6815 53.2472C93.8453 53.2472 93.9272 53.3501 93.9272 53.5558C93.9272 54.2865 93.2229 54.6546 91.8142 54.6546C90.9624 54.6546 90.2963 54.5085 89.8159 54.227ZM87.4626 48.0941C87.752 47.7261 87.8994 47.2172 87.8994 46.5731C87.8994 45.8099 87.7575 45.2469 87.4681 44.8789C87.1842 44.5108 86.7692 44.3322 86.2287 44.3322C85.9994 44.3322 85.8301 44.435 85.7318 44.6353C85.6335 44.8356 85.5844 45.2361 85.5844 45.837V48.0292C85.5844 48.446 85.7755 48.6517 86.1632 48.6517C86.7365 48.6463 87.1733 48.4622 87.4626 48.0941Z" fill="#7D7D7D"/>
<path d="M110.377 54.308C110.323 54.2539 110.296 54.1944 110.296 54.1294C110.296 54.0644 110.328 53.9995 110.388 53.9345C110.448 53.8696 110.53 53.8209 110.629 53.7884C111.016 53.6801 111.273 53.561 111.415 53.4311C111.551 53.3012 111.622 53.0793 111.622 52.7599V45.2954C111.622 44.949 111.551 44.7 111.409 44.5593C111.267 44.4185 110.973 44.2994 110.536 44.1966C110.328 44.1425 110.225 44.0234 110.225 43.8393C110.225 43.7744 110.257 43.7148 110.323 43.6661C110.388 43.6174 110.454 43.5903 110.519 43.5903C110.929 43.5903 111.355 43.6066 111.808 43.639C112.403 43.6607 112.796 43.6715 112.998 43.6715C113.206 43.6715 113.621 43.6607 114.238 43.639C114.876 43.6174 115.313 43.6066 115.559 43.6066C115.734 43.6066 115.821 43.6878 115.821 43.8502C115.821 43.9476 115.794 44.0234 115.745 44.0721C115.695 44.1208 115.614 44.1641 115.504 44.1966C115.051 44.3265 114.762 44.4618 114.631 44.608C114.5 44.7487 114.434 44.9869 114.434 45.3117V52.5921C114.434 52.8844 114.5 53.1009 114.625 53.2308C114.751 53.3608 114.958 53.4257 115.242 53.4257H116.842C117.262 53.4257 117.639 53.2742 117.983 52.9656C118.289 52.6841 118.589 52.2403 118.873 51.6394C118.982 51.4121 119.07 51.2659 119.13 51.2064C119.19 51.1469 119.261 51.1144 119.337 51.1144C119.414 51.1144 119.474 51.1523 119.512 51.2226C119.55 51.293 119.572 51.3742 119.572 51.4608C119.572 51.4933 119.561 51.5474 119.545 51.6178C119.528 51.6881 119.512 51.7639 119.501 51.8397C119.337 52.4189 119.223 52.8411 119.152 53.1172C119.086 53.3878 119.037 53.7126 119.004 54.0807C118.982 54.2864 118.889 54.3892 118.726 54.3892L117.29 54.373C115.619 54.3297 114.188 54.308 112.998 54.308C112.627 54.308 112.223 54.3243 111.792 54.3567C111.218 54.3784 110.831 54.3892 110.618 54.3892C110.509 54.3892 110.432 54.3622 110.377 54.308Z" fill="#7D7D7D"/>
<path d="M23.6187 62.081C23.9135 62.2488 24.1428 62.4816 24.3121 62.7793C24.4814 63.077 24.5687 63.4181 24.5687 63.7915C24.5687 64.1705 24.4814 64.5061 24.3121 64.8092C24.1428 65.1123 23.9081 65.3451 23.6187 65.5075C23.3239 65.6753 22.9963 65.7565 22.6359 65.7565C22.2756 65.7565 21.948 65.6753 21.6531 65.5075C21.3583 65.3397 21.129 65.1069 20.9598 64.8092C20.7905 64.5115 20.7031 64.1705 20.7031 63.7915C20.7031 63.4126 20.7905 63.077 20.9598 62.7793C21.129 62.4816 21.3638 62.2488 21.6531 62.081C21.948 61.9132 22.2756 61.832 22.6359 61.832C22.9963 61.832 23.3239 61.9132 23.6187 62.081ZM22.0408 62.6873C21.8715 62.7901 21.7351 62.9363 21.6368 63.1257C21.5385 63.3152 21.4893 63.5371 21.4893 63.7915C21.4893 64.046 21.5385 64.2679 21.6368 64.4573C21.7351 64.6468 21.8661 64.793 22.0408 64.8958C22.2101 64.9986 22.4121 65.0474 22.6359 65.0474C22.8598 65.0474 23.0618 64.9986 23.231 64.8958C23.4003 64.793 23.5368 64.6468 23.6351 64.4573C23.7334 64.2679 23.7825 64.046 23.7825 63.7915C23.7825 63.5371 23.7334 63.3152 23.6351 63.1257C23.5368 62.9363 23.4058 62.7901 23.231 62.6873C23.0618 62.5844 22.8598 62.5357 22.6359 62.5357C22.4066 62.5357 22.2101 62.5844 22.0408 62.6873Z" fill="#7D7D7D"/>
<path d="M31.0011 65.7186L30.0947 64.2247H29.7562V65.7186H28.9863V61.8809H30.4605C30.9082 61.8809 31.2522 61.9891 31.487 62.2056C31.7218 62.4221 31.8419 62.709 31.8419 63.0663C31.8419 63.3586 31.76 63.5968 31.5962 63.7916C31.4324 63.9865 31.1976 64.1164 30.8919 64.1814L31.8583 65.7132H31.0011V65.7186ZM29.7617 63.6996H30.395C30.8373 63.6996 31.0557 63.5047 31.0557 63.1204C31.0557 62.9364 31.0011 62.7902 30.8919 62.6874C30.7827 62.5845 30.6189 62.5304 30.3895 62.5304H29.7562V63.6996H29.7617Z" fill="#7D7D7D"/>
<path d="M39.163 62.1897C39.4742 62.417 39.6708 62.731 39.7582 63.1207H38.9446C38.8682 62.9475 38.748 62.8068 38.5788 62.7039C38.415 62.6011 38.2184 62.5469 37.9891 62.5469C37.7652 62.5469 37.5687 62.5957 37.3995 62.6985C37.2302 62.8013 37.0937 62.9475 37.0009 63.1315C36.908 63.321 36.8589 63.5429 36.8589 63.7919C36.8589 64.1925 36.9681 64.5064 37.1865 64.7338C37.4049 64.9557 37.6997 65.0694 38.0765 65.0694C38.3549 65.0694 38.5952 64.9882 38.7917 64.8258C38.9938 64.6634 39.1193 64.436 39.1794 64.1492H37.869V63.6025H39.8237V64.3386C39.7691 64.593 39.6599 64.8258 39.5015 65.0369C39.3432 65.2534 39.1357 65.4212 38.8791 65.5511C38.6225 65.681 38.3276 65.746 37.9946 65.746C37.6124 65.746 37.2793 65.6648 36.99 65.497C36.7006 65.3346 36.4767 65.1018 36.3184 64.8095C36.16 64.5118 36.0781 64.1762 36.0781 63.7973C36.0781 63.4184 36.16 63.0774 36.3184 62.7851C36.4767 62.4928 36.7006 62.2601 36.99 62.0923C37.2793 61.9245 37.6124 61.8433 37.9946 61.8433C38.4587 61.8487 38.8518 61.9623 39.163 62.1897Z" fill="#7D7D7D"/>
<path d="M46.5996 64.9496H45.049L44.776 65.7237H43.957L45.3821 61.9292H46.2666L47.6862 65.7237H46.8672L46.5996 64.9496ZM46.3922 64.365L45.8243 62.7466L45.2565 64.365H46.3922Z" fill="#7D7D7D"/>
<path d="M55.21 65.7186H54.4401L52.7093 63.1096V65.7186H51.9395V61.8809H52.7093L54.4401 64.5115V61.8809H55.21V65.7186Z" fill="#7D7D7D"/>
<path d="M60.5223 61.8857V65.7236H59.7471V61.8857H60.5223Z" fill="#7D7D7D"/>
<path d="M68.0079 62.2163C68.3246 62.4653 68.5375 62.7955 68.6358 63.2231H67.8223C67.7404 63.0174 67.6094 62.855 67.4292 62.7359C67.2545 62.6169 67.0415 62.5573 66.7903 62.5573C66.5883 62.5573 66.4027 62.606 66.2389 62.7089C66.0751 62.8117 65.9441 62.9579 65.8567 63.1419C65.7639 63.3314 65.7202 63.5533 65.7202 63.8023C65.7202 64.0513 65.7639 64.2732 65.8567 64.4572C65.9495 64.6467 66.0751 64.7928 66.2389 64.8903C66.4027 64.9931 66.5883 65.0418 66.7903 65.0418C67.0415 65.0418 67.249 64.9823 67.4292 64.8632C67.6039 64.7441 67.7349 64.5817 67.8223 64.376H68.6358C68.5321 64.7983 68.3246 65.1339 68.0079 65.3828C67.6913 65.6318 67.2927 65.7509 66.8067 65.7509C66.4355 65.7509 66.1133 65.6697 65.8294 65.5019C65.5455 65.3395 65.3271 65.1068 65.1742 64.8091C65.0213 64.5114 64.9395 64.1758 64.9395 63.7969C64.9395 63.418 65.0159 63.0769 65.1742 62.7792C65.3271 62.4815 65.5455 62.2488 65.8294 62.0864C66.1133 61.924 66.4355 61.8374 66.8122 61.8374C67.2872 61.8482 67.6913 61.9673 68.0079 62.2163Z" fill="#7D7D7D"/>
<path d="M80.806 64.0726C80.9479 64.2458 81.0189 64.4461 81.0189 64.6789C81.0189 65.0036 80.9097 65.2581 80.6913 65.4421C80.4729 65.6261 80.1562 65.7236 79.7468 65.7236H78.0869V61.8857H79.714C80.1071 61.8857 80.4074 61.9724 80.6149 62.1402C80.8223 62.308 80.9315 62.5515 80.9315 62.8547C80.9315 63.0928 80.866 63.2877 80.7405 63.4393C80.6149 63.5908 80.4511 63.6883 80.2436 63.737C80.4784 63.7911 80.664 63.8994 80.806 64.0726ZM78.8568 63.4934H79.5502C79.7413 63.4934 79.8887 63.4501 79.9925 63.3635C80.0907 63.2769 80.1453 63.1578 80.1453 62.9954C80.1453 62.8384 80.0962 62.7139 79.9979 62.6273C79.8996 62.5407 79.7468 62.4974 79.5447 62.4974H78.8622V63.4934H78.8568ZM80.0634 64.9603C80.1726 64.8737 80.2272 64.7438 80.2272 64.5706C80.2272 64.4028 80.1726 64.2675 80.058 64.1754C79.9488 64.0834 79.7904 64.0347 79.583 64.0347H78.8568V65.0902H79.5884C79.7959 65.0957 79.9542 65.0524 80.0634 64.9603Z" fill="#7D7D7D"/>
<path d="M86.1683 62.4925V63.4885H87.5387V64.0731H86.1683V65.107H87.7025V65.7186H85.3984V61.8809H87.7025V62.4871H86.1683V62.4925Z" fill="#7D7D7D"/>
<path d="M94.461 64.9496H92.9103L92.6373 65.7237H91.8184L93.2434 61.9292H94.1279L95.5475 65.7237H94.7285L94.461 64.9496ZM94.2535 64.365L93.6856 62.7466L93.1178 64.365H94.2535Z" fill="#7D7D7D"/>
<path d="M100.544 61.8857V64.1321C100.544 64.4352 100.61 64.6572 100.746 64.8087C100.877 64.9603 101.074 65.0361 101.325 65.0361C101.576 65.0361 101.762 64.9603 101.898 64.8087C102.029 64.6572 102.1 64.4352 102.1 64.1321V61.8857H102.87V64.1321C102.87 64.4894 102.804 64.7871 102.668 65.0307C102.537 65.2742 102.351 65.4583 102.117 65.5774C101.882 65.6964 101.614 65.756 101.314 65.756C100.85 65.756 100.479 65.6207 100.2 65.3446C99.9216 65.0685 99.7852 64.668 99.7852 64.1321V61.8857H100.544Z" fill="#7D7D7D"/>
<path d="M110.012 61.8857V62.492H108.942V65.7181H108.166V62.492H107.102V61.8857H110.012Z" fill="#7D7D7D"/>
<path d="M117.393 61.8857L116.082 64.3811V65.7236H115.307V64.3811L113.991 61.8857H114.881L115.706 63.5638L116.53 61.8857H117.393Z" fill="#7D7D7D"/>
<path d="M84.3066 85.8058C86.6107 84.1386 87.7354 82.4606 87.7409 80.6689C87.7409 80.4091 87.5498 80.1926 87.2877 80.1601C85.8791 79.9869 84.5032 80.5823 83.4712 81.1182C79.4418 83.213 76.1822 86.3904 73.0373 89.4758C73.0319 89.4812 73.0209 89.4812 73.0155 89.492C71.514 90.9752 69.8651 92.1769 68.178 93.162C72.2566 89.0536 74.8718 82.8882 74.85 78.6174C74.8446 78.114 74.779 77.4915 74.2713 77.1126C74.0146 76.9178 73.687 76.8366 73.3158 76.8582C73.3103 76.8582 73.3049 76.8528 73.2994 76.8528C73.283 76.8528 73.2666 76.8636 73.2503 76.8636C73.1301 76.8745 73.01 76.8907 72.8845 76.9232C71.2629 77.34 70.3183 78.861 69.614 80.29C67.2553 85.0697 65.59 90.1957 63.9903 95.1594C61.7189 96.0363 59.5295 96.5884 57.6731 96.9294C57.0835 97.0377 56.4938 97.1297 55.9041 97.2163C57.2527 96.5343 58.4866 95.652 59.2292 94.9158C60.6051 93.5572 61.6861 91.7709 62.6362 89.3026C63.2149 87.7978 63.9466 85.5298 63.6353 83.2617C63.5207 82.4227 63.133 81.8868 62.5488 81.7623C62.5434 81.7623 62.5434 81.7623 62.5379 81.7623C62.0738 81.6649 61.6698 81.8652 61.3367 82.0763C58.4703 83.8788 56.7777 86.975 55.6202 89.4758C55.3254 90.1091 55.0469 90.7478 54.7684 91.3866C53.8403 93.4976 52.8848 95.6844 51.487 97.5194C51.4597 97.5519 51.4488 97.5952 51.4324 97.6331C48.0145 97.7793 44.3891 97.5681 40.2396 96.9944C23.8653 93.8224 10.4503 82.688 4.35154 67.2123C2.14573 61.6262 1.02647 55.7206 1.02647 49.669C1.02647 49.3875 0.797149 49.1602 0.513234 49.1602C0.229318 49.1602 0 49.3875 0 49.669C0 55.8506 1.14111 61.8806 3.39605 67.5858C9.62036 83.3862 23.3248 94.7534 40.0704 98.0012C43.4446 98.4667 46.4803 98.6995 49.3358 98.6995C51.4543 98.6995 53.469 98.5641 55.4509 98.3097C55.8659 98.8294 56.2808 99.3544 56.6958 99.8795C59.7206 103.712 62.8546 107.68 66.8895 110.592C67.0533 110.711 67.43 110.981 67.8613 110.981C67.976 110.981 68.1016 110.96 68.2217 110.911C68.2272 110.911 68.2326 110.911 68.2381 110.906C68.2435 110.906 68.2435 110.9 68.249 110.9C68.2544 110.895 68.2599 110.895 68.2708 110.895C68.5766 110.76 68.9424 110.424 68.9478 109.579C68.9533 107.257 67.8886 104.87 65.9503 102.862C64.2414 101.092 62.0629 99.7983 59.9608 98.667C59.4094 98.3693 58.8579 98.0824 58.2901 97.8496C60.8508 97.3516 63.2477 96.6101 65.459 95.6628C65.4644 95.6682 65.4699 95.6736 65.4753 95.679C68.1507 97.265 71.2574 98.4938 75.2431 99.5439C77.0668 100.026 79.0869 100.453 81.1126 100.453C82.3083 100.453 83.504 100.302 84.667 99.9228H84.6724H84.6779C84.6833 99.9228 84.6833 99.9174 84.6833 99.9174C84.7598 99.8903 84.8307 99.8416 84.8853 99.7821C84.8908 99.7766 84.8963 99.7712 84.9017 99.7658C84.94 99.7225 84.9727 99.6738 84.9946 99.6143C85 99.598 85 99.5764 85.0055 99.5601C85.0109 99.5493 85.0164 99.5385 85.0218 99.5276C85.0218 99.5114 85.0164 99.5006 85.0164 99.4843C85.0218 99.4194 85.0164 99.3598 85 99.2949C84.9946 99.2786 84.9945 99.2624 84.9891 99.2408C84.9563 99.165 84.9126 99.1 84.8471 99.0459C84.8417 99.0405 84.8417 99.0351 84.8362 99.0351C80.7031 95.7115 73.8836 93.8819 68.0797 94.3745C70.0999 93.2594 71.918 91.9495 73.4905 90.4447C75.5707 89.9359 80.572 88.5069 84.3066 85.8058ZM62.6744 84.301C62.6962 85.638 62.3741 87.1103 61.6643 88.9507C60.7689 91.2837 59.7588 92.9509 58.4921 94.2067C57.8588 94.8346 56.8541 95.5599 55.7622 96.15C60.5396 92.3663 62.1393 87.132 62.6744 84.301ZM61.6042 84.4472C61.0637 87.1049 59.5622 91.6518 55.4618 95.0782C56.2917 94.0227 57.1763 92.6749 57.9952 90.986C59.3493 88.1929 60.6815 85.9195 61.6042 84.4472ZM55.6966 91.798C55.9751 91.1646 56.2535 90.5313 56.5429 89.9088C57.4984 87.8465 58.8306 85.362 60.8945 83.6569C59.9499 85.1508 58.5249 87.5542 57.0725 90.5421C56.1607 92.4259 55.1506 93.8711 54.2497 94.9375C54.7739 93.9036 55.238 92.8427 55.6966 91.798ZM83.7006 84.9831C81.8769 86.2984 79.3162 87.538 76.4989 88.5015L86.3377 82.1737C85.8845 83.1048 85.0164 84.0358 83.7006 84.9831ZM83.9463 82.0276C84.5359 81.7244 85.1857 81.4267 85.8627 81.2698L77.5472 86.6178C79.5182 84.8586 81.604 83.2455 83.9463 82.0276ZM72.3603 79.9815C71.383 84.3768 68.9042 88.5881 66.9113 91.4461L72.3603 79.9815ZM67.5064 92.4096C69.9143 89.0428 73.1411 83.6082 73.7198 78.0274C73.8181 78.2006 73.829 78.5146 73.829 78.6337C73.8454 82.6717 71.3666 88.5069 67.5064 92.4096ZM70.5312 80.7447C70.8752 80.0464 71.2847 79.3265 71.7925 78.7798L67.7303 87.3214C68.5657 85.0859 69.4775 82.8774 70.5312 80.7447ZM59.2565 101.465C62.1011 104.167 64.3615 106.716 65.8193 108.454C63.3842 106.402 61.2657 103.961 59.2565 101.465ZM59.9117 100.681C62.3905 102.521 65.5026 105.244 66.8621 108.118C65.3989 106.343 62.9856 103.593 59.9117 100.681ZM67.3699 106.884C66.1415 104.751 64.154 102.781 62.2376 101.189C63.346 101.909 64.3287 102.673 65.1914 103.566C66.1851 104.594 66.9113 105.725 67.3699 106.884ZM75.4943 98.5533C72.9827 97.8929 70.8315 97.1622 68.9315 96.3124C72.0873 96.767 77.6619 97.7197 82.6249 99.322C80.228 99.6413 77.7165 99.1379 75.4943 98.5533ZM80.6867 97.6818C76.3788 96.4802 71.9617 95.7277 69.2263 95.3272C73.0701 95.1919 77.2633 96.0579 80.6867 97.6818Z" fill="#7D7D7D"/>
</svg>
