<svg width="111" height="72" viewBox="0 0 111 72" fill="none" xmlns="http://www.w3.org/2000/svg">
<path d="M42.052 27.6395C41.9537 27.8073 41.8062 27.9372 41.6151 28.0347C41.4186 28.1321 41.1839 28.1862 40.9054 28.1862C40.6324 28.1862 40.3867 28.1429 40.1683 28.0455C39.9554 27.9535 39.7806 27.8181 39.6496 27.6449C39.5186 27.4717 39.4476 27.266 39.4258 27.0387H40.2502C40.2665 27.1956 40.3321 27.3255 40.4413 27.4284C40.5505 27.5312 40.6924 27.5854 40.8726 27.5854C41.0309 27.5854 41.1566 27.5421 41.2439 27.4555C41.3313 27.3689 41.3749 27.2606 41.3749 27.1253C41.3749 27.0062 41.3421 26.9087 41.2712 26.8276C41.2002 26.7518 41.1128 26.6868 41.0091 26.6381C40.9054 26.5894 40.758 26.5353 40.5724 26.4757C40.3321 26.3945 40.1355 26.3187 39.9826 26.2375C39.8298 26.1618 39.6987 26.0481 39.5895 25.8965C39.4803 25.7504 39.4258 25.5555 39.4258 25.3173C39.4258 24.9871 39.5459 24.7273 39.7861 24.5379C40.0263 24.3484 40.343 24.251 40.7361 24.251C41.1456 24.251 41.4732 24.3484 41.7135 24.5433C41.9537 24.7381 42.0957 24.998 42.1284 25.3282H41.293C41.2712 25.1928 41.2112 25.0792 41.1183 24.9871C41.0255 24.9005 40.8944 24.8518 40.7306 24.8518C40.5887 24.8518 40.474 24.8897 40.3867 24.9655C40.2993 25.0413 40.2556 25.1495 40.2556 25.2903C40.2556 25.4039 40.2884 25.496 40.3594 25.5717C40.4249 25.6475 40.5123 25.7071 40.616 25.7558C40.7197 25.8045 40.8617 25.8532 41.0419 25.9128C41.2931 25.9994 41.4896 26.0806 41.6479 26.1563C41.8063 26.2321 41.9373 26.3458 42.0465 26.4974C42.1557 26.6489 42.2103 26.8492 42.2103 27.0928C42.1994 27.2931 42.1502 27.4771 42.052 27.6395Z" fill="#7D7D7D"/>
<path d="M49.4561 24.3105V24.9168H48.3859V28.1429H47.6106V24.9168H46.5459V24.3105H49.4561Z" fill="#7D7D7D"/>
<path d="M57.0558 24.3105L55.7454 26.8059V28.1484H54.9701V26.8059L53.6543 24.3105H54.5443L55.3632 25.9886L56.1877 24.3105H57.0558Z" fill="#7D7D7D"/>
<path d="M62.2971 27.5583H63.5966V28.1429H61.5273V24.3105H62.2971V27.5583Z" fill="#7D7D7D"/>
<path d="M68.8876 24.9222V25.9182H70.2581V26.5028H68.8876V27.5367H70.4219V28.1484H68.1123V24.3105H70.4219V24.9168H68.8876V24.9222Z" fill="#7D7D7D"/>
<path d="M14.6162 36.0936C14.1685 36.1911 13.8409 36.348 13.6225 36.5537C13.4096 36.7594 13.2622 37.0788 13.1912 37.5064C13.1202 37.934 13.082 38.5782 13.082 39.4334V50.806C12.7926 50.7789 12.5578 50.7627 12.3722 50.7627C12.2139 50.7627 11.9463 50.7789 11.5751 50.806L2.02021 40.4565V46.6164C2.02021 47.6719 2.06388 48.4297 2.15124 48.8952C2.2386 49.3607 2.42966 49.6963 2.72449 49.9129C3.01933 50.124 3.51077 50.2809 4.20418 50.3838V50.8114C3.61451 50.7681 2.81187 50.7464 1.79087 50.7464C1.02648 50.7464 0.431334 50.7681 0 50.8114V50.3838C0.447713 50.2863 0.775346 50.1294 0.993742 49.9237C1.21214 49.718 1.35405 49.3986 1.42503 48.971C1.49601 48.5434 1.53427 47.9047 1.53427 47.0494V37.9394C1.53427 37.3982 1.496 37.0084 1.4141 36.7648C1.33766 36.5213 1.19576 36.3589 0.993742 36.2723C0.791725 36.1857 0.464093 36.1315 0 36.0991V35.6714C0.431334 35.7147 1.02648 35.7364 1.79087 35.7364C2.56618 35.7364 3.22683 35.7147 3.77282 35.6714L12.5961 44.9059V39.861C12.5961 38.8055 12.5524 38.0477 12.465 37.5822C12.3777 37.1167 12.1866 36.7811 11.8917 36.5646C11.5969 36.3535 11.1055 36.1965 10.4121 36.0936V35.666C11.0018 35.7093 11.8043 35.731 12.8253 35.731C13.5897 35.731 14.1849 35.7093 14.6162 35.666V36.0936Z" fill="#7D7D7D"/>
<path d="M33.9275 50.0211C34.1513 50.2431 34.3697 50.3621 34.5826 50.373V50.8006C33.5453 50.7573 32.2404 50.7356 30.657 50.7356C29.019 50.7356 27.8124 50.7573 27.0316 50.8006V50.373C27.5776 50.3459 27.9653 50.2755 28.1946 50.1727C28.4239 50.0644 28.5385 49.875 28.5385 49.6043C28.5385 49.3499 28.4512 49.0035 28.2819 48.5759L27.0097 45.0683H22.6528L22.287 46.0318C21.812 47.2443 21.5772 48.1699 21.5772 48.8141C21.5772 49.3986 21.741 49.7992 22.074 50.0103C22.4071 50.2268 22.893 50.3459 23.5427 50.373V50.8006C22.4671 50.7573 21.5226 50.7356 20.7145 50.7356C20.0375 50.7356 19.486 50.7573 19.0547 50.8006V50.373C19.415 50.3188 19.7535 50.0969 20.0702 49.7126C20.3869 49.3283 20.709 48.7166 21.0421 47.8722L25.8305 35.666C26.2891 35.6931 26.6713 35.7093 26.9716 35.7093C27.2609 35.7093 27.6322 35.6931 28.0909 35.666L33.3105 49.0089C33.4961 49.4636 33.7036 49.7992 33.9275 50.0211ZM26.8624 44.6461L24.9022 39.3035L22.833 44.6461H26.8624Z" fill="#7D7D7D"/>
<path d="M51.8794 39.8989C51.8794 40.5539 51.9013 41.0681 51.9449 41.4362H51.4481C50.9731 39.5687 50.3616 38.2209 49.6135 37.3927C48.8655 36.5646 48.063 36.1532 47.2003 36.1532H47.1784V48.381C47.1784 48.9819 47.2385 49.4149 47.3641 49.6855C47.4842 49.9562 47.708 50.1402 48.0356 50.2322C48.3578 50.3243 48.871 50.373 49.5754 50.373V50.8006C47.5497 50.7573 45.9718 50.7356 44.8525 50.7356C43.8315 50.7356 42.3519 50.7573 40.4081 50.8006V50.373C41.1125 50.373 41.6257 50.3297 41.9479 50.2322C42.27 50.1402 42.4938 49.9562 42.6194 49.6855C42.7395 49.4149 42.805 48.9819 42.805 48.381V36.1532H42.7832C41.9041 36.1532 41.0961 36.5646 40.359 37.3819C39.6165 38.1993 39.0104 39.5525 38.5354 41.4362H38.0385C38.0822 41.0681 38.1041 40.5539 38.1041 39.8989C38.1041 38.6594 38.0549 37.2466 37.9512 35.666C39.3162 35.7093 41.6694 35.731 45.0054 35.731C48.325 35.731 50.6673 35.7093 52.0378 35.666C51.9286 37.2466 51.8794 38.6594 51.8794 39.8989Z" fill="#7D7D7D"/>
<path d="M71.9562 36.0936C71.5085 36.191 71.1808 36.348 70.9624 36.5537C70.744 36.7594 70.6021 37.0787 70.5311 37.5064C70.4602 37.934 70.4219 38.5781 70.4219 39.4334V44.5865C70.4219 46.638 70.1271 48.1482 69.5374 49.1171C69.1498 49.7558 68.5765 50.2484 67.823 50.5948C67.0695 50.9359 66.0922 51.1091 64.9019 51.1091C63.1602 51.1091 61.8117 50.7681 60.8453 50.0806C60.1409 49.5826 59.6713 48.9114 59.4311 48.0724C59.1963 47.2334 59.0763 46.0913 59.0763 44.6514V37.9394C59.0763 37.3981 59.038 37.0084 58.967 36.7648C58.896 36.5212 58.7541 36.3588 58.5466 36.2722C58.3391 36.1856 58.0061 36.1315 57.542 36.099V35.6714C58.361 35.7147 59.6277 35.7363 61.3366 35.7363C63.0346 35.7363 64.3178 35.7147 65.1968 35.6714V36.099C64.6781 36.1261 64.3013 36.1856 64.0666 36.2722C63.8318 36.3588 63.668 36.5212 63.5807 36.7648C63.4933 37.0084 63.4497 37.3981 63.4497 37.9394V46.6651C63.4497 48.0345 63.6626 48.9926 64.0939 49.5393C64.5252 50.086 65.2077 50.3621 66.1414 50.3621C67.5063 50.3621 68.4782 49.8803 69.0515 48.9168C69.6248 47.9533 69.9142 46.5893 69.9142 44.8247V39.8664C69.9142 38.8109 69.8705 38.0531 69.7831 37.5876C69.6958 37.122 69.5047 36.7864 69.2098 36.5699C68.915 36.3534 68.4236 36.2019 67.7302 36.099V35.6714C68.3199 35.7147 69.1224 35.7363 70.1434 35.7363C70.9078 35.7363 71.503 35.7147 71.9343 35.6714V36.0936H71.9562Z" fill="#7D7D7D"/>
<path d="M93.0474 49.9454C92.616 50.373 92.141 50.6708 91.6223 50.844C91.1036 51.0172 90.503 51.0984 89.8096 51.0984C88.8159 51.0984 88.0461 50.9252 87.5001 50.5733C86.9541 50.2269 86.6156 49.6315 86.4845 48.7871L86.1624 46.6489C86.0205 45.653 85.8184 44.8951 85.5673 44.3809C85.3161 43.8667 84.9394 43.6123 84.4371 43.6123H83.4652V48.5326C83.4652 49.0739 83.5034 49.4691 83.5853 49.7073C83.6617 49.9508 83.8037 50.1132 84.0057 50.1998C84.2077 50.2864 84.5354 50.3406 84.9995 50.373V50.8007C84.1641 50.7574 82.9629 50.7357 81.3959 50.7357C79.6542 50.7357 78.3766 50.7574 77.5576 50.8007V50.373C78.0162 50.346 78.3493 50.2864 78.5622 50.1998C78.7697 50.1132 78.9117 49.9508 78.9826 49.7073C79.0536 49.4637 79.0918 49.0739 79.0918 48.5326V37.9287C79.0918 37.3874 79.0536 36.9976 78.9717 36.7541C78.8953 36.5105 78.7533 36.3481 78.5513 36.2615C78.3493 36.1749 78.0162 36.1207 77.5576 36.0883V35.6606C78.3766 35.7039 79.6105 35.7256 81.2648 35.7256L83.7437 35.7039C84.033 35.6877 84.3607 35.6823 84.7374 35.6823C86.9214 35.6823 88.5484 35.9908 89.624 36.6025C90.6941 37.2142 91.2292 38.1506 91.2292 39.401C91.2292 40.4673 90.8252 41.3821 90.0226 42.1399C89.2145 42.8978 87.8659 43.3579 85.9659 43.5311C87.4346 43.6285 88.5375 43.9046 89.2855 44.3538C90.0335 44.8031 90.4921 45.4635 90.6669 46.3296L91.12 48.5543C91.2183 49.0794 91.3439 49.4474 91.4858 49.6423C91.6278 49.8426 91.8298 49.94 92.0919 49.94C92.3485 49.94 92.5723 49.848 92.758 49.664L93.0474 49.9454ZM83.8911 36.2452C83.7273 36.3427 83.6126 36.5213 83.558 36.7811C83.498 37.0355 83.4707 37.4253 83.4707 37.9341V43.1955H84.0549C85.0759 43.1955 85.7748 42.8869 86.146 42.2644C86.5173 41.642 86.7084 40.7705 86.7084 39.6446C86.7084 38.4754 86.5446 37.5931 86.2225 36.9922C85.9003 36.3914 85.3707 36.0937 84.6391 36.0937C84.306 36.0937 84.0604 36.1424 83.8911 36.2452Z" fill="#7D7D7D"/>
<path d="M110.344 50.8007C109.367 50.7574 107.718 50.7358 105.403 50.7358C102.04 50.7358 99.5227 50.7574 97.8574 50.8007V50.3731C98.3161 50.346 98.6492 50.2865 98.8621 50.1999C99.0696 50.1133 99.2115 49.9509 99.2825 49.7073C99.3534 49.4637 99.3917 49.074 99.3917 48.5327V37.9287C99.3917 37.3874 99.3535 36.9977 99.2716 36.7541C99.1951 36.5105 99.0532 36.3481 98.8512 36.2615C98.6491 36.1749 98.3161 36.1207 97.8574 36.0883V35.6606C99.5227 35.7039 102.04 35.7256 105.403 35.7256C107.516 35.7256 109.018 35.7039 109.913 35.6606C109.809 36.9976 109.76 38.1993 109.76 39.2549C109.76 39.9098 109.782 40.4241 109.826 40.7921H109.329C109.072 39.1358 108.586 37.9503 107.882 37.2304C107.177 36.5105 106.337 36.1532 105.359 36.1532H105.081C104.693 36.1532 104.409 36.1857 104.229 36.2507C104.049 36.3156 103.929 36.4347 103.863 36.6133C103.798 36.792 103.765 37.0843 103.765 37.5011V42.9736H103.978C104.726 42.9736 105.365 42.6813 105.894 42.0967C106.424 41.5121 106.763 40.8625 106.91 40.1534H107.407C107.363 40.7543 107.341 41.42 107.341 42.1616V43.1901C107.341 43.9154 107.385 44.9276 107.472 46.2268H106.976C106.844 45.4148 106.511 44.7382 105.971 44.2077C105.43 43.6718 104.764 43.4066 103.978 43.4066H103.765V48.9657C103.765 49.3771 103.798 49.6748 103.863 49.8534C103.929 50.0321 104.049 50.1512 104.229 50.2161C104.409 50.2811 104.693 50.3135 105.081 50.3135H105.791C106.626 50.3135 107.418 49.913 108.166 49.1065C108.914 48.2999 109.443 47.017 109.76 45.247H110.257C110.213 45.7612 110.191 46.4162 110.191 47.2119C110.191 48.6626 110.241 49.8643 110.344 50.8007Z" fill="#7D7D7D"/>
<path d="M60.8516 58.3955H50.3467V59.7542H60.8516V58.3955Z" fill="#7D7D7D"/>
<path d="M61.0858 8.48813C62.2815 8.24455 65.2845 7.5138 67.5449 5.99276C68.9645 5.04008 69.6743 4.03868 69.707 2.93444C69.7125 2.68003 69.5268 2.45811 69.2702 2.4148C68.3966 2.27948 67.5558 2.60967 66.917 2.91279C64.6184 4.00621 62.7401 5.67339 60.9329 7.32434C61.9266 5.29449 62.4563 3.01564 62.2761 1.14817C62.2542 0.947895 62.2051 0.428253 61.7628 0.14678C61.4898 -0.0210217 61.1459 -0.0480879 60.7691 0.0818228C59.77 0.422838 59.2731 1.38634 58.9237 2.28489C57.8535 5.01302 57.171 7.89271 56.5322 10.6966C56.4066 10.7183 56.292 10.7886 56.2156 10.9023C54.9653 11.5519 53.7258 12.0011 52.6393 12.3151C52.9887 12.0174 53.3163 11.6709 53.6002 11.2704C54.2554 10.3394 54.6977 9.19723 54.9816 7.67619C55.1563 6.74516 55.342 5.35404 54.9052 4.04952C54.7195 3.50281 54.3646 3.17802 53.9278 3.16179C53.5784 3.13472 53.3054 3.34042 53.1198 3.51363C51.6347 4.85063 50.9849 6.81012 50.5809 8.36904C50.4826 8.75878 50.3898 9.14851 50.297 9.53824C50.0021 10.7832 49.7127 11.9578 49.1995 13.0458C46.748 13.4031 44.3402 13.4518 42.1944 13.4301C41.9215 13.4085 41.6812 13.6521 41.6758 13.9336C41.6758 14.215 41.8996 14.4424 42.1835 14.4478C42.4511 14.4478 42.7241 14.4532 43.0025 14.4532C45.0336 14.4532 47.2722 14.372 49.5435 14.0256C49.5435 14.0256 49.5435 14.0256 49.549 14.0256C49.9912 13.9606 50.4335 13.8794 50.8757 13.7928C51.0887 14.0147 51.3016 14.2421 51.5145 14.464C53.4692 16.5318 55.4948 18.6699 58.0009 20.1693C58.1047 20.2288 58.3504 20.3804 58.6452 20.3804C58.7653 20.3804 58.8963 20.3533 59.0274 20.2829C59.213 20.1855 59.5188 19.9203 59.4642 19.287C59.3441 17.9012 58.5797 16.5318 57.313 15.4329C56.2101 14.4748 54.8724 13.8307 53.5893 13.2678C53.5074 13.2299 53.4255 13.1974 53.3436 13.1649C54.5448 12.7914 55.675 12.3313 56.7124 11.79C58.2794 12.5099 60.0648 13.0404 62.2979 13.4356C63.166 13.5925 64.1051 13.7224 65.0552 13.7224C66.0107 13.7224 66.9716 13.5871 67.8834 13.2136C68.0582 13.1433 68.1782 12.9809 68.1946 12.7968C68.211 12.6128 68.1291 12.4288 67.9707 12.3259C65.3445 10.5667 62.085 9.87925 58.9892 10.3772C59.7645 9.79806 60.4634 9.17016 61.0858 8.48813ZM67.3647 3.83299C67.736 3.65437 68.1564 3.48115 68.5768 3.42702C68.3693 4.0008 67.8343 4.56916 66.9661 5.15375C65.9124 5.85744 64.4491 6.50699 62.833 6.99957C64.2253 5.77624 65.694 4.6287 67.3647 3.83299ZM59.8846 2.6638C60.1522 1.98176 60.5071 1.25643 61.1076 1.05074C61.1677 1.02909 61.2059 1.02368 61.2114 1.01285C61.2223 1.03991 61.2442 1.10487 61.2551 1.24561C61.5117 3.89795 60.0921 7.63288 58.0228 9.80347C57.9354 9.86843 57.8426 9.93339 57.7552 9.99293C58.3285 7.52463 58.9619 5.02384 59.8846 2.6638ZM51.3016 9.77641C51.3945 9.39209 51.4818 9.00777 51.58 8.62886C51.9458 7.21067 52.5301 5.43523 53.8132 4.27686C53.835 4.25521 53.8514 4.24438 53.8678 4.22814C53.8896 4.26061 53.9115 4.30933 53.9333 4.3797C54.2118 5.21329 54.2226 6.1768 53.9769 7.49756C53.7203 8.87245 53.3327 9.88467 52.7649 10.6912C52.197 11.4977 51.4327 12.0607 50.6191 12.2988C50.8976 11.4707 51.0996 10.61 51.3016 9.77641ZM56.6359 16.2016C57.6569 17.0893 58.2903 18.1611 58.4268 19.2328C56.1391 17.8363 54.2281 15.8335 52.3827 13.8848C52.6448 13.9769 52.9068 14.0851 53.1744 14.2042C54.5721 14.8104 55.6968 15.3842 56.6359 16.2016ZM66.4201 12.5857C65.1261 12.8293 63.7284 12.6561 62.4781 12.4342C61.0148 12.1743 59.759 11.8604 58.6343 11.4653C61.2332 10.9348 64.0669 11.3462 66.4201 12.5857Z" fill="#7D7D7D"/>
<path d="M31.0508 26.1396H19.7598V27.4984H31.0508V26.1396Z" fill="#7D7D7D"/>
<path d="M89.4551 26.1396H78.1641V27.4984H89.4551V26.1396Z" fill="#7D7D7D"/>
<path d="M9.86098 67.4292C10.1558 67.597 10.3851 67.8297 10.5598 68.1274C10.7291 68.4251 10.8165 68.7662 10.8165 69.1397C10.8165 69.5186 10.7291 69.8542 10.5598 70.1573C10.3905 70.455 10.1558 70.6932 9.86098 70.8556C9.56614 71.0234 9.23851 71.1046 8.87816 71.1046C8.5178 71.1046 8.19024 71.0234 7.89541 70.8556C7.60057 70.6878 7.37124 70.455 7.20198 70.1573C7.03272 69.8542 6.94531 69.5186 6.94531 69.1397C6.94531 68.7608 7.03272 68.4251 7.20198 68.1274C7.37124 67.8297 7.60603 67.597 7.89541 67.4292C8.19024 67.2614 8.5178 67.1802 8.87816 67.1802C9.23851 67.1802 9.56614 67.2614 9.86098 67.4292ZM8.28304 68.0408C8.11378 68.1437 7.97729 68.2898 7.87901 68.4793C7.78073 68.6687 7.73158 68.8907 7.73158 69.1451C7.73158 69.3995 7.78073 69.6214 7.87901 69.8109C7.97729 70.0003 8.10832 70.1465 8.28304 70.2493C8.4523 70.3521 8.6543 70.4009 8.87816 70.4009C9.10202 70.4009 9.30401 70.3521 9.47327 70.2493C9.64253 70.1465 9.77903 70.0003 9.8773 69.8109C9.97558 69.6214 10.0247 69.3995 10.0247 69.1451C10.0247 68.8907 9.97558 68.6687 9.8773 68.4793C9.77903 68.2898 9.64799 68.1437 9.47327 68.0408C9.30401 67.938 9.10202 67.8893 8.87816 67.8893C8.64884 67.8839 8.4523 67.938 8.28304 68.0408Z" fill="#7D7D7D"/>
<path d="M17.4665 71.0721L16.5601 69.5782H16.2216V71.0721H15.4463V67.2344H16.9205C17.3682 67.2344 17.7122 67.3426 17.9469 67.5591C18.1817 67.7757 18.3018 68.0626 18.3018 68.4198C18.3018 68.7121 18.22 68.9503 18.0562 69.1505C17.8924 69.3454 17.6576 69.4753 17.3518 69.5403L18.3182 71.0721H17.4665ZM16.2216 69.0477H16.8604C17.3027 69.0477 17.521 68.8528 17.521 68.4685C17.521 68.2845 17.4665 68.1383 17.3573 68.0355C17.2481 67.9326 17.0843 67.8785 16.8549 67.8785H16.2162V69.0477H16.2216Z" fill="#7D7D7D"/>
<path d="M25.8421 67.5429C26.1534 67.7756 26.3499 68.0841 26.4373 68.4739H25.6292C25.5527 68.3007 25.4326 68.1599 25.2633 68.0571C25.0995 67.9542 24.903 67.9001 24.6737 67.9001C24.4498 67.9001 24.2532 67.9488 24.084 68.0517C23.9147 68.1545 23.7782 68.3007 23.6854 68.4847C23.5871 68.6742 23.5434 68.8961 23.5434 69.1451C23.5434 69.5456 23.6526 69.8596 23.871 70.0869C24.0894 70.3143 24.3843 70.4225 24.761 70.4225C25.0395 70.4225 25.2743 70.3413 25.4763 70.1789C25.6729 70.0166 25.8039 69.7892 25.8639 69.5023H24.5535V68.9556H26.5082V69.6918C26.4536 69.9462 26.3445 70.1789 26.1861 70.3955C26.0278 70.6066 25.8203 70.7798 25.5637 70.9097C25.3071 71.0396 25.0122 71.1046 24.6792 71.1046C24.297 71.1046 23.9639 71.0234 23.6745 70.8556C23.3851 70.6932 23.1612 70.4604 23.0029 70.1681C22.8446 69.8704 22.7627 69.5348 22.7627 69.1559C22.7627 68.777 22.8446 68.436 23.0029 68.1437C23.1612 67.846 23.3851 67.6186 23.6745 67.4508C23.9639 67.283 24.297 67.2018 24.6792 67.2018C25.1433 67.1964 25.5309 67.3101 25.8421 67.5429Z" fill="#7D7D7D"/>
<path d="M33.4971 70.2978H31.9465L31.6735 71.0665H30.8545L32.2795 67.272H33.164L34.5836 71.0665H33.7646L33.4971 70.2978ZM33.2896 69.7186L32.7218 68.1002L32.154 69.7186H33.2896Z" fill="#7D7D7D"/>
<path d="M42.3303 71.0721H41.5549L39.8242 68.4631V71.0721H39.0488V67.2344H39.8242L41.5549 69.8651V67.2344H42.3303V71.0721Z" fill="#7D7D7D"/>
<path d="M47.8613 67.2344V71.0721H47.0859V67.2344H47.8613Z" fill="#7D7D7D"/>
<path d="M55.5665 67.5649C55.8832 67.8139 56.0961 68.1441 56.1944 68.5717H55.3809C55.299 68.366 55.168 68.2037 54.9878 68.0846C54.8131 67.9655 54.5946 67.9059 54.349 67.9059C54.1469 67.9059 53.9613 67.9547 53.7975 68.0575C53.6337 68.1604 53.5027 68.3065 53.4153 68.4905C53.3225 68.68 53.2788 68.9019 53.2788 69.1509C53.2788 69.3999 53.3225 69.6218 53.4153 69.8059C53.5082 69.9953 53.6337 70.1415 53.7975 70.2389C53.9613 70.3417 54.1469 70.3905 54.349 70.3905C54.5946 70.3905 54.8131 70.3309 54.9878 70.2118C55.1625 70.0928 55.2935 69.9304 55.3809 69.7247H56.1944C56.0907 70.1469 55.8832 70.4825 55.5665 70.7315C55.2498 70.9805 54.8458 71.0995 54.3654 71.0995C53.9941 71.0995 53.6719 71.0184 53.388 70.8506C53.1041 70.6882 52.8857 70.4554 52.7329 70.1577C52.58 69.86 52.498 69.5244 52.498 69.1455C52.498 68.7666 52.5745 68.4256 52.7329 68.1279C52.8857 67.8302 53.1041 67.5974 53.388 67.435C53.6719 67.2672 53.9941 67.186 54.3708 67.186C54.8458 67.1969 55.2498 67.3214 55.5665 67.5649Z" fill="#7D7D7D"/>
<path d="M68.8011 69.4212C68.9431 69.5944 69.014 69.7947 69.014 70.0274C69.014 70.3522 68.9049 70.6066 68.6865 70.7907C68.4681 70.9747 68.1514 71.0721 67.7419 71.0721H66.082V67.2344H67.7091C68.1022 67.2344 68.4025 67.321 68.61 67.4888C68.8175 67.6566 68.9267 67.9002 68.9267 68.2087C68.9267 68.4469 68.8612 68.6417 68.7356 68.7933C68.61 68.9449 68.4462 69.0423 68.2387 69.091C68.4735 69.1397 68.6591 69.248 68.8011 69.4212ZM66.8519 68.842H67.5507C67.7418 68.842 67.8893 68.7987 67.993 68.7121C68.0913 68.6255 68.1459 68.5064 68.1459 68.344C68.1459 68.1871 68.0968 68.0625 67.9985 67.9759C67.9002 67.8893 67.7474 67.846 67.5453 67.846H66.8628V68.842H66.8519ZM68.0585 70.3143C68.1677 70.2277 68.2224 70.0978 68.2224 69.9246C68.2224 69.7568 68.1677 69.6215 68.0531 69.5294C67.9439 69.4374 67.7855 69.3887 67.5781 69.3887H66.8464V70.4442H67.5835C67.791 70.4442 67.9493 70.4009 68.0585 70.3143Z" fill="#7D7D7D"/>
<path d="M74.3807 67.846V68.842H75.7512V69.4266H74.3807V70.4605H75.915V71.0721H73.6055V67.2344H75.915V67.8406H74.3807V67.846Z" fill="#7D7D7D"/>
<path d="M82.8985 70.2978H81.3478L81.0748 71.0665H80.2559L81.6809 67.272H82.5654L83.985 71.0665H83.166L82.8985 70.2978ZM82.691 69.7186L82.1232 68.1002L81.5553 69.7186H82.691Z" fill="#7D7D7D"/>
<path d="M89.1984 67.2344V69.4862C89.1984 69.7839 89.2639 70.0112 89.4004 70.1628C89.5314 70.3143 89.728 70.3901 89.9792 70.3901C90.2249 70.3901 90.4159 70.3143 90.5524 70.1628C90.6835 70.0112 90.7544 69.7893 90.7544 69.4862V67.2344H91.5243V69.4862C91.5243 69.8434 91.4588 70.1411 91.3223 70.3847C91.1912 70.6283 91.0056 70.8123 90.7708 70.9314C90.5361 71.0505 90.2685 71.11 89.9682 71.11C89.5042 71.11 89.1329 70.9747 88.8544 70.6987C88.576 70.4226 88.4395 70.0221 88.4395 69.4862V67.2344H89.1984Z" fill="#7D7D7D"/>
<path d="M98.8789 67.2344V67.8406H97.8088V71.0667H97.0334V67.8406H95.9688V67.2344H98.8789Z" fill="#7D7D7D"/>
<path d="M106.485 67.2344L105.175 69.7297V71.0721H104.394V69.7297L103.078 67.2344H103.968L104.793 68.9124L105.617 67.2344H106.485Z" fill="#7D7D7D"/>
</svg>
