<svg width="106" height="104" viewBox="0 0 106 104" fill="none" xmlns="http://www.w3.org/2000/svg">
<path d="M10.5487 77.2332C10.8817 77.2007 11.1984 77.2657 11.5042 77.4281C11.8099 77.5851 12.0829 77.8395 12.3177 78.1805L13.093 79.3064L9.89344 81.4661L9.11817 80.3402C8.8834 79.9938 8.74143 79.6528 8.70321 79.3172C8.66499 78.9762 8.71955 78.6622 8.86697 78.3699C9.01439 78.0776 9.25465 77.8232 9.57132 77.6067C9.89346 77.3848 10.2211 77.2657 10.5487 77.2332ZM10.9691 78.0073C10.6579 77.9423 10.3412 78.0181 10.0136 78.24C9.68601 78.462 9.49489 78.7272 9.44029 79.0357C9.38569 79.3443 9.47851 79.669 9.71329 80.01L10.0136 80.4485L12.0829 79.052L11.7826 78.6135C11.5533 78.2779 11.2803 78.0776 10.9691 78.0073Z" fill="#7D7D7D"/>
<path d="M6.12067 74.1261L7.0161 73.6823L6.40459 72.4644L6.93419 72.2046L7.5457 73.4225L8.47932 72.9624L7.79683 71.5983L8.34829 71.3223L9.37476 73.3683L5.91319 75.0788L4.88672 73.0327L5.43818 72.7621L6.12067 74.1261Z" fill="#7D7D7D"/>
<path d="M5.64598 65.844C5.83707 65.8819 6.00631 65.9739 6.16465 66.1255C6.32298 66.2716 6.4486 66.4773 6.54142 66.7371C6.62878 66.9915 6.66697 67.2405 6.65059 67.4679C6.63421 67.7006 6.56322 67.9063 6.43764 68.085C6.31207 68.2636 6.14284 68.3989 5.9299 68.4909L5.6623 67.7223C5.80426 67.6519 5.90804 67.5545 5.96809 67.4192C6.03361 67.2838 6.03362 67.1323 5.97356 66.9645C5.91896 66.8129 5.84249 66.7101 5.73329 66.6613C5.62409 66.6126 5.50402 66.6072 5.37844 66.6505C5.26378 66.6884 5.18184 66.7534 5.1327 66.8454C5.08356 66.9374 5.05085 67.0403 5.03993 67.1539C5.02901 67.2676 5.02354 67.4246 5.029 67.6194C5.029 67.8739 5.0235 68.0795 4.9962 68.2528C4.97436 68.4206 4.90885 68.583 4.79965 68.7291C4.69045 68.8807 4.52663 68.9943 4.29731 69.0701C3.98609 69.1784 3.69674 69.1513 3.43466 68.9889C3.17258 68.8265 2.98151 68.5613 2.85047 68.1932C2.71397 67.8089 2.70302 67.4733 2.81221 67.181C2.91595 66.8887 3.12343 66.6776 3.42373 66.5369L3.69673 67.3163C3.57115 67.3813 3.48379 67.4733 3.42919 67.5924C3.37459 67.7115 3.37459 67.8468 3.42919 67.9984C3.47287 68.1337 3.54933 68.2257 3.64761 68.2852C3.74589 68.3448 3.86601 68.3502 3.99705 68.3015C4.10625 68.2636 4.18265 68.204 4.23179 68.1174C4.28093 68.0308 4.30825 67.928 4.31917 67.8143C4.33009 67.7006 4.33556 67.5491 4.3301 67.365C4.3301 67.1052 4.34099 66.8887 4.36283 66.7155C4.38467 66.5477 4.45025 66.3853 4.55945 66.2337C4.66865 66.0822 4.83787 65.9631 5.07265 65.8819C5.26375 65.8169 5.45488 65.8007 5.64598 65.844Z" fill="#7D7D7D"/>
<path d="M1.19531 62.1422L4.96811 61.3032L5.13733 62.0502L1.36453 62.8892L1.19531 62.1422Z" fill="#7D7D7D"/>
<path d="M0.458756 55.0506C0.660771 54.7204 0.950136 54.4931 1.33779 54.3686L1.41423 55.1697C1.24498 55.2617 1.11936 55.397 1.032 55.5703C0.944645 55.7435 0.911923 55.9438 0.933762 56.1657C0.955602 56.3876 1.02658 56.5771 1.14124 56.7341C1.26136 56.8964 1.41969 57.0101 1.61625 57.0859C1.8128 57.1617 2.04211 57.1887 2.29327 57.1617C2.6973 57.1238 3.00301 56.983 3.20502 56.7503C3.40704 56.5121 3.49444 56.209 3.45622 55.8409C3.42892 55.5648 3.32514 55.3375 3.13951 55.1589C2.95387 54.9802 2.71367 54.872 2.41883 54.8449L2.5444 56.1386L1.99295 56.1928L1.80186 54.2603L2.5444 54.1899C2.80647 54.217 3.04669 54.3036 3.28147 54.4389C3.51078 54.5743 3.70191 54.7637 3.86025 55.0073C4.01312 55.2455 4.11141 55.5324 4.13871 55.8626C4.17692 56.2361 4.12778 56.5771 3.99128 56.8802C3.85478 57.1833 3.64729 57.4269 3.36338 57.611C3.08493 57.795 2.7519 57.9087 2.36971 57.9466C1.98752 57.9844 1.64353 57.9357 1.32686 57.8112C1.01564 57.6813 0.759022 57.4865 0.567927 57.2158C0.371371 56.9506 0.256706 56.6258 0.218487 56.2523C0.180268 55.7759 0.25674 55.3808 0.458756 55.0506Z" fill="#7D7D7D"/>
<path d="M4.02942 47.2178L3.99123 47.981L1.27767 49.567L3.90385 49.697L3.86566 50.4602L0 50.2707L0.0382567 49.5075L2.77368 47.9215L0.125634 47.7916L0.163824 47.0283L4.02942 47.2178Z" fill="#7D7D7D"/>
<path d="M6.09302 36.8688L5.2631 37.2423C5.32315 37.291 5.3723 37.3289 5.40506 37.3614C5.54702 37.4696 5.64532 37.6158 5.69992 37.7998C5.75452 37.9839 5.74905 38.1842 5.68899 38.3898C5.61801 38.6226 5.51428 38.8121 5.3614 38.9582C5.21398 39.1044 5.03923 39.2018 4.84267 39.2451C4.64611 39.2884 4.43869 39.283 4.22029 39.218C4.00736 39.1585 3.83259 39.061 3.69063 38.9311C3.55413 38.8012 3.4613 38.6551 3.41217 38.4873C3.36303 38.3195 3.36302 38.1517 3.4067 37.973L3.29206 38.0055C3.17194 38.0488 3.06275 38.0705 2.95355 38.0813C2.84435 38.0921 2.72969 38.0813 2.61503 38.0434C2.46216 38.0001 2.3366 37.9189 2.2274 37.8052C2.1182 37.6916 2.04721 37.54 2.01445 37.3614C1.97623 37.1828 1.99259 36.9879 2.05811 36.7714C2.15093 36.4628 2.28744 36.2409 2.47854 36.1164C2.66963 35.9865 2.8826 35.9324 3.11737 35.9486C3.23203 35.9432 3.35216 35.9594 3.46682 35.9919L3.56506 36.0244L3.36304 36.7064C3.27569 36.6794 3.21565 36.6685 3.18289 36.6631C3.05731 36.6306 2.94806 36.636 2.86071 36.6848C2.77335 36.7335 2.71331 36.8147 2.67509 36.9338C2.64233 37.042 2.64781 37.134 2.69695 37.2152C2.74063 37.2964 2.8116 37.3506 2.89896 37.3776C2.98086 37.3993 3.05186 37.4047 3.12284 37.3884C3.18836 37.3722 3.28117 37.3451 3.39037 37.2964L6.31689 36.1056L6.09302 36.8688ZM5.03929 37.7998C4.97377 37.6753 4.86998 37.5941 4.72257 37.5508C4.56969 37.5075 4.42231 37.5238 4.29128 37.605C4.15478 37.6862 4.06736 37.7998 4.02368 37.9514C3.98 38.0921 3.99094 38.222 4.051 38.3411C4.11106 38.4602 4.22025 38.5414 4.38405 38.5847C4.54785 38.6334 4.68983 38.6172 4.81541 38.5414C4.94099 38.4656 5.02833 38.352 5.07201 38.2058C5.11569 38.0597 5.1048 37.9243 5.03929 37.7998Z" fill="#7D7D7D"/>
<path d="M9.21695 25.9563C9.43534 25.9184 9.6483 25.9563 9.85578 26.07C10.1397 26.227 10.3089 26.4489 10.369 26.725C10.429 27.0065 10.3526 27.3204 10.1506 27.6777L9.33712 29.1121L5.96289 27.2338L6.76001 25.8264C6.9511 25.4908 7.17501 25.2689 7.42616 25.1714C7.67732 25.074 7.93936 25.1011 8.21235 25.2526C8.41983 25.3717 8.5618 25.5179 8.63824 25.7019C8.70922 25.886 8.7147 26.0754 8.6601 26.2757C8.81297 26.1025 8.99855 25.9942 9.21695 25.9563ZM7.75374 27.3583L8.09225 26.7575C8.18507 26.5897 8.22326 26.4435 8.19596 26.3136C8.16866 26.1837 8.08678 26.0808 7.94482 26.005C7.80287 25.9293 7.67184 25.9076 7.54626 25.9509C7.42069 25.9942 7.31149 26.1025 7.20776 26.2811L6.87471 26.8711L7.75374 27.3583ZM9.63737 27.0389C9.61553 26.8982 9.52818 26.7899 9.37531 26.7087C9.22789 26.6275 9.08046 26.6113 8.94942 26.66C8.81292 26.7142 8.69279 26.8278 8.59452 27.001L8.23968 27.629L9.16783 28.1432L9.5282 27.5099C9.62648 27.3312 9.66467 27.1743 9.63737 27.0389Z" fill="#7D7D7D"/>
<path d="M13.9718 22.0103L12.2246 21.8262L12.0226 22.0969L13.2238 22.9954L12.7596 23.6071L9.6748 21.2904L10.5648 20.1266C10.8378 19.7693 11.1272 19.5636 11.4438 19.5095C11.7605 19.4554 12.0608 19.5311 12.3501 19.7477C12.5849 19.9209 12.7269 20.132 12.787 20.381C12.847 20.63 12.8088 20.8898 12.6778 21.1713L14.4905 21.3337L13.9718 22.0103ZM11.5967 21.7721L11.9789 21.2687C12.2464 20.9169 12.2246 20.63 11.9134 20.3918C11.766 20.2781 11.6185 20.2348 11.4656 20.2565C11.3182 20.2781 11.1763 20.381 11.0398 20.5596L10.6576 21.063L11.5967 21.7721Z" fill="#7D7D7D"/>
<path d="M17.9131 16.4778L16.8375 17.582L17.2088 18.3128L16.641 18.8973L14.8828 15.2436L15.4943 14.6157L19.229 16.245L18.6611 16.8242L17.9131 16.4778ZM17.3507 16.2234L15.7837 15.5034L16.5591 17.0353L17.3507 16.2234Z" fill="#7D7D7D"/>
<path d="M24.504 12.0775L23.8871 12.5376L20.9279 11.4766L22.5003 13.566L21.8833 14.0261L19.5684 10.957L20.1853 10.4969L23.1609 11.574L21.5721 9.4684L22.1891 9.0083L24.504 12.0775Z" fill="#7D7D7D"/>
<path d="M29.9967 7.78496C29.9913 8.11515 29.8984 8.42369 29.7073 8.71057C29.5162 8.99746 29.2378 9.23562 28.8665 9.4359L27.6544 10.0854L25.8145 6.70779L27.0265 6.05824C27.3978 5.85797 27.7527 5.76053 28.0967 5.75512C28.4407 5.74971 28.7519 5.83631 29.0303 6.01494C29.3088 6.19357 29.5436 6.44797 29.7237 6.78899C29.9094 7.11917 30.0022 7.45478 29.9967 7.78496ZM29.1723 8.12056C29.2706 7.82285 29.2214 7.49808 29.0358 7.15706C28.8447 6.81064 28.599 6.59412 28.2932 6.50752C27.9875 6.42632 27.6545 6.48045 27.2887 6.67532L26.8136 6.92972L28.0039 9.11654L28.4734 8.86213C28.8447 8.66727 29.074 8.41827 29.1723 8.12056Z" fill="#7D7D7D"/>
<path d="M33.2891 3.18896L34.7032 6.7615L33.9825 7.04297L32.5684 3.47044L33.2891 3.18896Z" fill="#7D7D7D"/>
<path d="M41.4413 4.72112L40.6933 4.91057L38.3619 2.81575L39.0171 5.3382L38.2691 5.52765L37.3027 1.81435L38.0507 1.62489L40.393 3.74137L39.7269 1.19727L40.4749 1.00781L41.4413 4.72112Z" fill="#7D7D7D"/>
<path d="M47.6979 0.239155C48.0309 0.434023 48.2602 0.726323 48.3912 1.10523L47.5832 1.18643C47.4904 1.01863 47.3539 0.894125 47.1791 0.812931C47.0044 0.726323 46.8024 0.693846 46.5786 0.720911C46.3602 0.742563 46.1691 0.812931 46.0053 0.932017C45.8469 1.0511 45.7268 1.20808 45.6558 1.40295C45.5794 1.59782 45.5575 1.82516 45.5848 2.07957C45.6285 2.48013 45.7705 2.77785 46.0107 2.97813C46.251 3.17841 46.5568 3.2596 46.9335 3.22171C47.2065 3.19465 47.4358 3.08639 47.616 2.90235C47.7961 2.7183 47.8998 2.48013 47.9271 2.18783L46.6222 2.32316L46.5676 1.77645L48.5114 1.57616L48.5878 2.31233C48.5605 2.57215 48.4786 2.81574 48.3421 3.04308C48.2056 3.27043 48.0199 3.4653 47.7743 3.61686C47.534 3.76842 47.2447 3.86586 46.9171 3.89834C46.5404 3.93623 46.1964 3.88751 45.8906 3.7576C45.5849 3.62227 45.3337 3.41658 45.1481 3.14052C44.957 2.86446 44.8423 2.53426 44.8041 2.15535C44.7659 1.77644 44.8041 1.43542 44.9352 1.12147C45.0607 0.81293 45.2627 0.558523 45.5303 0.363655C45.7978 0.168788 46.1254 0.0497012 46.5021 0.0118102C46.9662 -0.0314937 47.3703 0.0442872 47.6979 0.239155Z" fill="#7D7D7D"/>
<path d="M60.0483 102.024L60.2885 103.426L59.5241 103.556L58.8799 99.7726L60.2667 99.5398C60.7144 99.464 61.0748 99.5128 61.3424 99.6914C61.6099 99.87 61.7736 100.141 61.8337 100.509C61.8938 100.871 61.8282 101.175 61.6262 101.429C61.4242 101.683 61.1075 101.846 60.6762 101.921L60.0483 102.024ZM61.0639 100.639C61.0311 100.449 60.9547 100.314 60.8345 100.233C60.7144 100.151 60.5343 100.13 60.294 100.168L59.748 100.26L59.9446 101.423L60.4906 101.331C60.9383 101.25 61.1294 101.023 61.0639 100.639Z" fill="#7D7D7D"/>
<path d="M68.1015 101.591L66.7966 100.422L66.469 100.52L66.9058 101.949L66.1687 102.171L65.0439 98.5007L66.4526 98.073C66.884 97.9431 67.2443 97.9485 67.5337 98.0893C67.8231 98.23 68.0196 98.4682 68.1233 98.8092C68.2107 99.0853 68.1998 99.3397 68.1015 99.5778C68.0033 99.8106 67.8176 100.005 67.5446 100.157L68.9205 101.342L68.1015 101.591ZM66.3161 100.016L66.9222 99.8322C67.3426 99.7023 67.5009 99.4533 67.3863 99.0853C67.3317 98.9066 67.2388 98.7875 67.1023 98.7172C66.9713 98.6522 66.7911 98.6468 66.5782 98.7118L65.9722 98.8958L66.3161 100.016Z" fill="#7D7D7D"/>
<path d="M72.016 96.6761L72.4255 97.5855L73.6759 97.0333L73.9161 97.5692L72.6658 98.1213L73.0916 99.0632L74.4948 98.4407L74.746 99.0037L72.6385 99.9347L71.0605 96.4325L73.1681 95.5015L73.4193 96.059L72.016 96.6761Z" fill="#7D7D7D"/>
<path d="M79.8779 91.7402L81.9089 94.9555L81.2592 95.3615L79.8451 93.1206L80.4293 95.8812L79.8615 96.233L77.6174 94.5171L79.0261 96.7527L78.3709 97.1586L76.3398 93.9433L77.1315 93.4507L79.6431 95.2587L79.0807 92.2437L79.8779 91.7402Z" fill="#7D7D7D"/>
<path d="M83.4053 88.9902L85.8513 91.9619L85.2507 92.4491L82.8047 89.4774L83.4053 88.9902Z" fill="#7D7D7D"/>
<path d="M86.7091 86.0294L88.3416 87.5937C88.56 87.8048 88.7675 87.9131 88.9695 87.9239C89.1716 87.9347 89.3626 87.8481 89.5373 87.6695C89.7066 87.4909 89.7885 87.3068 89.7721 87.1065C89.7558 86.9063 89.6411 86.7006 89.4227 86.4949L87.7956 84.9305L88.3307 84.3838L89.9632 85.9482C90.2198 86.1972 90.3891 86.4516 90.4765 86.7168C90.5584 86.982 90.5639 87.2419 90.4874 87.4909C90.411 87.7399 90.269 87.9726 90.0615 88.1891C89.7394 88.5193 89.3791 88.6872 88.9859 88.6926C88.5928 88.698 88.2052 88.5193 87.8175 88.1458L86.1904 86.5815L86.7091 86.0294Z" fill="#7D7D7D"/>
<path d="M93.2064 78.3105L96.3021 80.5353L95.849 81.1524L93.6869 79.5988L95.2702 81.9373L94.8771 82.4732L92.1526 81.7153L94.3038 83.2635L93.8506 83.8806L90.7549 81.6558L91.3063 80.9034L94.3147 81.645L92.6549 79.0575L93.2064 78.3105Z" fill="#7D7D7D"/>
<path d="M102.313 70.4725L101.418 70.7539C101.396 70.9001 101.352 71.0571 101.287 71.2195C101.15 71.5496 100.948 71.8203 100.681 72.0314C100.413 72.2371 100.107 72.3616 99.7634 72.4049C99.4195 72.4482 99.07 72.3995 98.7206 72.2533C98.3711 72.1126 98.0872 71.9069 97.8688 71.6363C97.6558 71.3656 97.5248 71.0679 97.4811 70.7323C97.4375 70.4021 97.4811 70.0665 97.6176 69.7363C97.7541 69.4061 97.9561 69.1355 98.2237 68.9298C98.4912 68.7241 98.797 68.5996 99.141 68.5563C99.485 68.513 99.8289 68.5617 100.184 68.7025C100.511 68.8324 100.784 69.0218 100.992 69.2654C101.205 69.509 101.341 69.7796 101.407 70.0827L102.674 69.6172L102.313 70.4725ZM99.687 71.6471C99.8999 71.6308 100.086 71.5605 100.249 71.4414C100.408 71.3223 100.533 71.1599 100.615 70.9488C100.703 70.7431 100.73 70.5374 100.697 70.3426C100.664 70.1477 100.582 69.9691 100.44 69.8067C100.299 69.6443 100.107 69.5198 99.8726 69.4224C99.6378 69.3249 99.4085 69.287 99.1956 69.3033C98.9826 69.3195 98.797 69.3899 98.6332 69.509C98.4748 69.6281 98.3493 69.7904 98.2674 70.0015C98.1801 70.2072 98.1527 70.4129 98.1855 70.6078C98.2128 70.8027 98.3001 70.9813 98.4421 71.1437C98.5841 71.3061 98.7697 71.4306 99.01 71.528C99.2502 71.6254 99.4741 71.6633 99.687 71.6471Z" fill="#7D7D7D"/>
<path d="M99.6495 63.9064L101.85 64.4531C102.145 64.5235 102.379 64.5181 102.56 64.4261C102.74 64.334 102.86 64.1662 102.92 63.9226C102.98 63.6845 102.953 63.4842 102.838 63.3164C102.723 63.154 102.521 63.0349 102.227 62.9591L100.026 62.4124L100.212 61.6763L102.412 62.223C102.762 62.3096 103.035 62.4449 103.242 62.6344C103.45 62.8238 103.581 63.0458 103.641 63.3002C103.701 63.5546 103.695 63.8306 103.624 64.1175C103.51 64.5614 103.286 64.8862 102.953 65.0864C102.614 65.2867 102.188 65.3246 101.664 65.1947L99.4639 64.648L99.6495 63.9064Z" fill="#7D7D7D"/>
<path d="M104.187 56.1063L104.017 57.6328L104.76 57.9846L104.673 58.7911L101.025 56.9778L101.118 56.1063L105.077 55.1157L104.989 55.9223L104.187 56.1063ZM103.586 56.247L101.899 56.6368L103.46 57.3729L103.586 56.247Z" fill="#7D7D7D"/>
<path d="M104.596 50.4934L104.574 49.2052L105.164 49.1943L105.197 51.2458L101.331 51.3108L101.32 50.5422L104.596 50.4934Z" fill="#7D7D7D"/>
<path d="M100.933 45.0533L104.776 44.604L104.869 45.3672L101.025 45.8165L100.933 45.0533Z" fill="#7D7D7D"/>
<path d="M99.7578 38.8717L100.358 38.7363L100.593 39.7702L103.765 39.0557L103.935 39.8027L100.762 40.5172L100.997 41.5457L100.397 41.681L99.7578 38.8717Z" fill="#7D7D7D"/>
<path d="M97.7109 32.7064L100.523 33.0636L101.795 32.6035L102.062 33.3288L100.79 33.7889L98.8793 35.8729L98.5736 35.0447L99.8785 33.7023L98.0057 33.5183L97.7109 32.7064Z" fill="#7D7D7D"/>
<path d="M34.2395 47.066C34.174 47.0281 34.1412 46.9794 34.1412 46.9199C34.1412 46.7899 34.2559 46.7033 34.4907 46.6546C34.791 46.6005 34.9985 46.4922 35.1131 46.3407C35.2278 46.1891 35.2878 45.9834 35.2878 45.729V44.0943C35.2878 43.8237 35.2551 43.5963 35.1896 43.4177C35.124 43.2391 35.0257 43.0334 34.8892 42.8114L33.3004 40.3973C33.1639 40.1916 33.0329 40.0238 32.9018 39.8993C32.7708 39.7748 32.5961 39.6828 32.3832 39.6286C32.2958 39.5962 32.2303 39.5637 32.1866 39.5312C32.1429 39.4987 32.1211 39.45 32.1211 39.3742C32.1211 39.3201 32.1429 39.2768 32.1866 39.2443C32.2303 39.2118 32.2848 39.1956 32.3504 39.1956C32.5251 39.1956 32.7217 39.201 32.9401 39.2118C33.153 39.2227 33.3114 39.2281 33.4206 39.2281C33.7536 39.2497 34.0921 39.266 34.4361 39.266C34.5562 39.266 34.6982 39.2606 34.8511 39.2551C35.0094 39.2497 35.1295 39.2389 35.2223 39.2335C35.5772 39.201 35.8611 39.1848 36.0686 39.1848C36.1396 39.1848 36.216 39.201 36.287 39.2389C36.358 39.2768 36.3962 39.3147 36.3962 39.3634C36.3962 39.4825 36.2815 39.5691 36.0577 39.6286C35.8011 39.6828 35.6209 39.7423 35.5226 39.8073C35.4243 39.8722 35.3752 39.9697 35.3752 40.105C35.3752 40.2349 35.4189 40.3756 35.5062 40.5272L36.7784 42.6761C36.833 42.779 36.8985 42.8331 36.9695 42.8331C37.0241 42.8331 37.0841 42.779 37.1497 42.6761C37.5755 41.9183 37.9359 41.22 38.2253 40.5867C38.3072 40.4135 38.3454 40.2565 38.3454 40.132C38.3454 39.9805 38.2744 39.8614 38.1379 39.7802C38.0014 39.699 37.8376 39.6449 37.652 39.6286C37.5646 39.6232 37.4827 39.5907 37.4063 39.5366C37.3298 39.4825 37.2916 39.4284 37.2916 39.3634C37.2916 39.3147 37.3298 39.2768 37.4008 39.2443C37.4718 39.2118 37.5537 39.1956 37.6411 39.1956C37.8758 39.1956 38.0997 39.2064 38.3181 39.2335C38.5911 39.2497 38.804 39.2551 38.946 39.2551C39.0607 39.2551 39.2463 39.2389 39.5029 39.2064C39.7595 39.174 39.9834 39.1577 40.169 39.1577C40.4093 39.1577 40.5348 39.2281 40.5348 39.3634C40.5348 39.4284 40.513 39.4717 40.4693 39.5041C40.4256 39.5312 40.3765 39.5529 40.3219 39.5691C40.2673 39.5853 40.2345 39.5962 40.2181 39.607C39.9834 39.6719 39.7759 39.7694 39.5957 39.8993C39.4155 40.0292 39.2736 40.1862 39.1753 40.3594C38.9023 40.8087 38.6894 41.1388 38.5474 41.3554C38.1106 42.0699 37.8212 42.5462 37.6738 42.7844C37.4499 43.1741 37.3353 43.5747 37.3353 43.9752V45.7182C37.3353 46.0213 37.3899 46.2324 37.4936 46.3461C37.5974 46.4598 37.8103 46.5626 38.1325 46.6546C38.2526 46.6871 38.3399 46.7196 38.4 46.7521C38.4546 46.7845 38.4819 46.8332 38.4819 46.909C38.4819 46.9632 38.4491 47.0119 38.3891 47.0552C38.329 47.0931 38.2526 47.1147 38.1652 47.1147C37.9959 47.1147 37.6684 47.0985 37.1825 47.066C36.7293 47.0335 36.429 47.0173 36.2761 47.0173C36.1287 47.0173 35.8393 47.0335 35.4025 47.066C35.0367 47.1039 34.7255 47.1255 34.458 47.1255C34.387 47.1255 34.3051 47.1093 34.2395 47.066Z" fill="#7D7D7D"/>
<path d="M44.9249 46.725C44.2751 46.3948 43.7565 45.9293 43.3688 45.3285C42.9812 44.7277 42.79 44.0456 42.79 43.277C42.79 42.5408 42.9593 41.8534 43.2978 41.2147C43.6364 40.576 44.1332 40.0617 44.7938 39.672C45.449 39.2823 46.2353 39.0874 47.1362 39.0874C47.8842 39.0874 48.5885 39.2552 49.2382 39.5854C49.8879 39.9156 50.4066 40.3865 50.7943 40.9819C51.1819 41.5828 51.373 42.2648 51.373 43.0334C51.373 43.7696 51.2038 44.457 50.8652 45.0957C50.5267 45.7345 50.0299 46.2487 49.3692 46.6384C48.7086 47.0282 47.9278 47.223 47.0269 47.223C46.2789 47.223 45.5746 47.0606 44.9249 46.725ZM48.6813 45.8427C49.0143 45.296 49.1836 44.5707 49.1836 43.6559C49.1836 42.9739 49.1017 42.3297 48.9379 41.7235C48.7741 41.1173 48.5175 40.6193 48.1736 40.2349C47.8296 39.8506 47.4037 39.6612 46.8959 39.6612C46.2735 39.6612 45.7985 39.9318 45.4709 40.4785C45.1433 41.0252 44.9795 41.7451 44.9795 42.6491C44.9795 43.3203 45.0614 43.9644 45.2252 44.5761C45.389 45.1878 45.6456 45.6912 45.9841 46.0755C46.3226 46.4652 46.743 46.6601 47.2453 46.6601C47.8678 46.6601 48.3482 46.3894 48.6813 45.8427Z" fill="#7D7D7D"/>
<path d="M56.2869 46.3513C55.6917 45.7721 55.3969 44.9818 55.3969 43.9804V40.619C55.3969 40.397 55.3423 40.1859 55.2331 40.0019C55.1239 39.8124 54.9655 39.6933 54.769 39.6338C54.5506 39.5797 54.4414 39.4877 54.4414 39.3686C54.4414 39.3144 54.4741 39.2711 54.5342 39.2387C54.5942 39.2062 54.6707 39.1899 54.7581 39.1899C55.042 39.1899 55.3313 39.2008 55.6316 39.2278C56.0029 39.2441 56.265 39.2495 56.4179 39.2495C56.5708 39.2495 56.8547 39.2441 57.2751 39.2278C57.7119 39.2116 58.0177 39.2062 58.1979 39.2062C58.4053 39.2062 58.5145 39.2657 58.5145 39.3848C58.5145 39.4498 58.4817 39.4985 58.4162 39.5418C58.3507 39.5797 58.2688 39.6176 58.1651 39.6555C58.0613 39.6933 57.9795 39.7258 57.9194 39.7583C57.6191 39.9045 57.4716 40.213 57.4716 40.6947V43.7909C57.4716 44.5433 57.6464 45.1117 57.9904 45.5014C58.3398 45.8912 58.7766 46.086 59.3116 46.086C60.0324 46.086 60.5675 45.8803 60.9169 45.4744C61.2663 45.0684 61.441 44.4297 61.441 43.5636C61.441 43.228 61.4465 42.9682 61.452 42.7841L61.4629 41.8856C61.4629 41.6312 61.4574 41.4471 61.452 41.3335C61.4465 40.9492 61.4192 40.6569 61.3755 40.4512C61.3318 40.2455 61.2663 40.0885 61.1735 39.9856C61.0861 39.8774 60.9497 39.78 60.7749 39.6933C60.7203 39.6609 60.6439 39.6338 60.5565 39.6013C60.4692 39.5743 60.3982 39.5418 60.349 39.5093C60.2999 39.4768 60.2781 39.4389 60.2781 39.3902C60.2781 39.2711 60.3982 39.2116 60.6439 39.2116C60.8951 39.2116 61.1462 39.2224 61.4083 39.2332L61.8669 39.2441C62.0143 39.2441 62.1891 39.2387 62.402 39.2224C62.6095 39.2062 62.8061 39.2008 62.9808 39.2008C63.1828 39.2008 63.2865 39.2603 63.2865 39.3794C63.2865 39.4931 63.1828 39.5797 62.9698 39.6446C62.6968 39.7258 62.5003 39.8503 62.3911 40.0181C62.2764 40.1859 62.2164 40.4241 62.2 40.738C62.1618 41.707 62.1399 42.7571 62.1399 43.883C62.1399 44.5325 61.9925 45.1117 61.7031 45.6151C61.4137 46.1239 61.0207 46.5191 60.5238 46.806C60.0269 47.0874 59.4755 47.2336 58.8694 47.2336C57.7392 47.2228 56.882 46.9359 56.2869 46.3513Z" fill="#7D7D7D"/>
<path d="M72.4093 46.9956C72.0544 46.7899 71.7323 46.4922 71.443 46.1079C71.1536 45.7181 70.8915 45.3392 70.6676 44.9766C70.4438 44.6139 70.2254 44.2079 70.0125 43.7532C69.9306 43.58 69.8323 43.4555 69.7231 43.3906C69.6357 43.3364 69.5374 43.3094 69.4337 43.3094C69.3518 43.3094 69.3136 43.3906 69.3136 43.5475V45.8751C69.3136 46.1133 69.3791 46.2811 69.5156 46.3785C69.6466 46.4759 69.8978 46.5626 70.2581 46.6437C70.34 46.66 70.3946 46.687 70.4328 46.7249C70.471 46.7628 70.4875 46.8224 70.4875 46.8927C70.4875 47.0118 70.4219 47.0714 70.2909 47.0714L69.2371 47.0497L68.2543 47.0281C68.1069 47.0281 67.8175 47.0335 67.3807 47.0497C67.0586 47.0714 66.7419 47.0876 66.4362 47.0876C66.387 47.0876 66.3379 47.0714 66.2888 47.0335C66.2396 46.9956 66.2178 46.9577 66.2178 46.909C66.2178 46.7737 66.2942 46.687 66.4471 46.6437C66.7638 46.5788 66.9767 46.4976 67.0859 46.4002C67.1951 46.3027 67.2497 46.1295 67.2497 45.8913V40.4405C67.2497 40.1861 67.2006 40.0021 67.1023 39.8938C67.004 39.7855 66.8129 39.6989 66.5236 39.634C66.3543 39.5961 66.2669 39.5095 66.2669 39.3796C66.2669 39.3254 66.2887 39.2767 66.3324 39.2442C66.3761 39.2063 66.4362 39.1901 66.5072 39.1901C66.7965 39.1901 67.1187 39.2063 67.4736 39.2388C67.7957 39.2713 68.0523 39.2875 68.238 39.2875C68.3909 39.2875 68.6147 39.2713 68.9041 39.2388C69.259 39.1901 69.6193 39.1685 69.9797 39.1685C70.9461 39.1685 71.6886 39.3308 72.2018 39.6502C72.7151 39.9696 72.9717 40.4513 72.9717 41.09C72.9717 41.5772 72.8188 41.9724 72.5131 42.2701C72.2073 42.5678 71.8306 42.7843 71.3883 42.9142C71.3665 42.9196 71.3501 42.9413 71.3501 42.9738C71.3501 43.0062 71.3556 43.0333 71.372 43.055C71.776 43.6558 72.1472 44.1754 72.4858 44.6139C72.8243 45.0523 73.1574 45.4258 73.4795 45.729C73.7306 45.9617 73.9872 46.1079 74.2602 46.1728C74.5278 46.2378 74.8554 46.2703 75.2376 46.2703C75.3577 46.2703 75.4177 46.346 75.4177 46.4976C75.4177 47.0335 74.8991 47.3041 73.8671 47.3041C73.2502 47.3095 72.7642 47.2013 72.4093 46.9956ZM70.684 42.492C70.897 42.2214 71.0061 41.8479 71.0061 41.3769C71.0061 40.814 70.9024 40.4026 70.6895 40.132C70.482 39.8667 70.1762 39.7314 69.7831 39.7314C69.6139 39.7314 69.4937 39.8072 69.4173 39.9533C69.3463 40.0995 69.3081 40.3972 69.3081 40.8356V42.4433C69.3081 42.7464 69.4501 42.898 69.734 42.898C70.1544 42.9034 70.4711 42.7681 70.684 42.492Z" fill="#7D7D7D"/>
<path d="M17.3084 61.3023C16.6096 60.9721 16.0581 60.5012 15.6486 59.9057C15.2391 59.3049 15.0371 58.6228 15.0371 57.8542C15.0371 57.118 15.2336 56.4306 15.6322 55.7919C16.0253 55.1531 16.5986 54.6389 17.3466 54.2492C18.0946 53.8594 18.9737 53.6646 19.9783 53.6646C20.3332 53.6646 20.7209 53.7079 21.1358 53.789C21.5508 53.8757 21.9111 53.9731 22.2059 54.0976C22.3697 54.168 22.4571 54.2762 22.4735 54.4224C22.539 54.8608 22.5718 55.348 22.5718 55.873C22.5718 55.9434 22.55 55.9975 22.5117 56.0354C22.4735 56.0733 22.4244 56.0896 22.3643 56.0896C22.3097 56.0896 22.2551 56.0733 22.2005 56.0354C22.1459 55.9975 22.1077 55.9434 22.0858 55.873C22.0039 55.6403 21.933 55.4508 21.8674 55.3101C21.8019 55.1639 21.7091 55.034 21.589 54.9149C21.2122 54.5252 20.6389 54.3249 19.8691 54.3249C19.3449 54.3249 18.8864 54.4711 18.4878 54.7634C18.0892 55.0557 17.7889 55.4454 17.576 55.9326C17.363 56.4198 17.2539 56.9448 17.2539 57.5078C17.2539 58.6228 17.4777 59.4997 17.9199 60.1493C18.3622 60.7989 19.0119 61.1236 19.8691 61.1236C20.4642 61.1236 20.9502 60.9991 21.3214 60.7556C21.6927 60.512 22.0039 60.1168 22.2551 59.5755C22.3097 59.4402 22.4025 59.3698 22.5226 59.3698C22.5772 59.3698 22.6263 59.3861 22.6591 59.424C22.6973 59.4619 22.7137 59.5106 22.7137 59.5755C22.7137 59.9436 22.6263 60.4145 22.4571 60.9937C22.4189 61.1561 22.3097 61.2752 22.1404 61.3564C21.4634 61.6595 20.6226 61.8111 19.6234 61.8111C18.7771 61.8003 18.0018 61.6325 17.3084 61.3023Z" fill="#7D7D7D"/>
<path d="M28.4249 61.3023C27.7752 60.9721 27.2565 60.5012 26.8688 59.9057C26.4812 59.3049 26.29 58.6229 26.29 57.8542C26.29 57.118 26.4593 56.4306 26.7978 55.7919C27.1364 55.1531 27.6332 54.6389 28.2939 54.2492C28.9491 53.8594 29.7353 53.6646 30.6362 53.6646C31.3842 53.6646 32.0885 53.8324 32.7383 54.1625C33.388 54.4927 33.9067 54.9637 34.2943 55.5591C34.682 56.1599 34.873 56.842 34.873 57.6106C34.873 58.3468 34.7038 59.0342 34.3653 59.673C34.0268 60.3117 33.5299 60.826 32.8693 61.2157C32.2086 61.6054 31.4278 61.8003 30.527 61.8003C29.7735 61.8003 29.0746 61.6325 28.4249 61.3023ZM32.1759 60.42C32.5089 59.8733 32.6782 59.1479 32.6782 58.2331C32.6782 57.5511 32.5963 56.9069 32.4325 56.3007C32.2687 55.6944 32.012 55.1964 31.6681 54.8121C31.3241 54.4278 30.8982 54.2383 30.3905 54.2383C29.768 54.2383 29.293 54.509 28.9654 55.0557C28.6378 55.6024 28.474 56.3223 28.474 57.2263C28.474 57.8975 28.556 58.5417 28.7198 59.1533C28.8835 59.765 29.1401 60.263 29.4786 60.6527C29.8171 61.0425 30.2376 61.2373 30.7399 61.2373C31.3623 61.2373 31.8428 60.9613 32.1759 60.42Z" fill="#7D7D7D"/>
<path d="M38.0781 61.4859C38.0781 61.4371 38.0946 61.3993 38.1328 61.3776C38.171 61.356 38.2147 61.3343 38.2693 61.3181C38.3239 61.3018 38.3675 61.2856 38.4003 61.2693C38.6023 61.1882 38.7715 61.0691 38.9026 60.9067C39.0336 60.7443 39.121 60.5494 39.1483 60.3167C39.2138 59.862 39.2902 59.0879 39.383 58.0053C39.4759 56.9227 39.536 56.2461 39.5578 55.9809L39.6069 55.4288C39.6124 55.38 39.6179 55.2447 39.6179 55.0228C39.6179 54.7413 39.5141 54.5464 39.3012 54.4328C39.0773 54.3137 38.8644 54.2271 38.6733 54.1784C38.4549 54.1242 38.3457 54.0322 38.3457 53.9131C38.3457 53.7832 38.4494 53.7237 38.6624 53.7237L39.5578 53.7453C40.5024 53.767 41.0047 53.7832 41.0702 53.7832C41.1248 53.7832 41.1848 53.8049 41.2449 53.8536C41.3049 53.9023 41.3431 53.951 41.3595 53.9997C41.496 54.3786 41.6107 54.6709 41.698 54.8766L43.4398 58.9472C43.4562 58.9797 43.4725 58.9959 43.4944 58.9959C43.5162 58.9959 43.5271 58.9797 43.538 58.9472L45.1214 55.1635C45.2361 54.5627 45.318 54.1784 45.3781 54.0106C45.4108 53.9077 45.4763 53.8536 45.5855 53.8536H46.1315C46.3717 53.8482 46.5847 53.8319 46.7703 53.8157C46.9559 53.7995 47.1088 53.7886 47.2289 53.7778C47.6493 53.7399 47.966 53.7183 48.1735 53.7183C48.381 53.7183 48.4902 53.7832 48.4902 53.9077C48.4902 53.9727 48.4683 54.0214 48.4247 54.0539C48.381 54.0863 48.31 54.1188 48.2117 54.1513C48.1571 54.1675 48.1025 54.1892 48.0588 54.2108C48.0151 54.2325 47.9824 54.2487 47.9551 54.2596C47.6985 54.3786 47.5183 54.5086 47.4146 54.6493C47.3109 54.79 47.2726 55.0011 47.289 55.2934C47.3545 56.7495 47.4419 58.303 47.5566 59.954L47.5947 60.4466C47.6275 60.8092 47.9169 61.0637 48.4683 61.2152C48.5557 61.2477 48.6266 61.2802 48.6703 61.3126C48.714 61.3451 48.7358 61.3993 48.7358 61.4696C48.7358 61.5238 48.714 61.5725 48.6703 61.5995C48.6266 61.632 48.5721 61.6483 48.5066 61.6483L47.491 61.6266L46.5464 61.6049C46.399 61.6049 46.1096 61.6104 45.6728 61.6266C45.3507 61.6482 45.0341 61.6645 44.7283 61.6645C44.6573 61.6645 44.5973 61.6483 44.5481 61.6158C44.499 61.5833 44.4772 61.54 44.4772 61.4859C44.4772 61.3505 44.5645 61.2639 44.7447 61.2206C45.0614 61.1503 45.2743 61.0636 45.3835 60.9608C45.4981 60.8634 45.5473 60.6956 45.5418 60.4628C45.5091 59.9323 45.4763 59.0879 45.4436 57.9187C45.4381 57.4532 45.4162 56.8686 45.3835 56.1541C45.3835 56.1162 45.3726 56.0946 45.3453 56.0946C45.3234 56.0946 45.2961 56.1216 45.2743 56.1812L43.0685 61.5941C43.0303 61.697 42.9702 61.7511 42.8883 61.7511C42.8064 61.7511 42.7409 61.7078 42.6918 61.6212C42.5171 61.2315 42.3478 60.8688 42.1894 60.5494C42.0311 60.2246 41.8946 59.9323 41.7745 59.6671C41.0538 58.1785 40.5351 57.0364 40.213 56.2461C40.1911 56.192 40.1584 56.1595 40.1147 56.1595C40.0492 56.1595 40.0109 56.2245 39.9946 56.349C39.9727 56.7658 39.9564 57.2638 39.9564 57.8375L39.9673 59.2287C39.9728 59.5101 39.9782 59.8944 39.9782 60.3816C39.9782 60.6035 40.0491 60.7822 40.1966 60.9121C40.344 61.042 40.5733 61.1448 40.9009 61.226C41.1193 61.2802 41.2285 61.3668 41.2285 61.4805C41.2285 61.5346 41.1958 61.5833 41.1357 61.6104C41.0757 61.6428 41.0101 61.6591 40.9337 61.6591C40.6935 61.6591 40.4477 61.6537 40.2075 61.6374L39.6888 61.6266C39.4541 61.6266 39.192 61.632 38.908 61.6428C38.6241 61.6537 38.4331 61.6645 38.3457 61.6753C38.171 61.6645 38.0781 61.6049 38.0781 61.4859Z" fill="#7D7D7D"/>
<path d="M51.9079 61.6105C51.8588 61.5726 51.8369 61.5347 51.8369 61.486C51.8369 61.3507 51.9134 61.264 52.0663 61.2207C52.3829 61.1558 52.5958 61.0746 52.705 60.9718C52.8142 60.8743 52.8688 60.7011 52.8688 60.4629V55.0121C52.8688 54.7577 52.8197 54.5736 52.7214 54.4654C52.6231 54.3571 52.432 54.2705 52.1426 54.2056C51.9734 54.1677 51.886 54.0811 51.886 53.9511C51.886 53.897 51.9079 53.8483 51.9516 53.8158C51.9952 53.7779 52.0553 53.7617 52.1263 53.7617C52.4157 53.7617 52.7214 53.7725 53.0326 53.7996C53.4366 53.8158 53.7151 53.8212 53.868 53.8212C54.0209 53.8212 54.2447 53.805 54.5341 53.7725C54.889 53.7238 55.2494 53.7021 55.6097 53.7021C56.6034 53.7021 57.3896 53.9133 57.9684 54.3301C58.5471 54.7523 58.8419 55.326 58.8419 56.0514C58.8419 56.571 58.7273 57.0474 58.5034 57.475C58.2796 57.9026 57.9411 58.2436 57.4988 58.4926C57.0566 58.747 56.5106 58.8715 55.8663 58.8715C55.6588 58.8715 55.495 58.8391 55.3749 58.7741C55.2602 58.7091 55.2002 58.6279 55.2002 58.5359C55.2002 58.4818 55.2275 58.4331 55.2766 58.3952C55.3312 58.3573 55.3804 58.3411 55.4295 58.3411C55.495 58.3411 55.5715 58.3519 55.6643 58.3735C55.7571 58.3952 55.839 58.406 55.91 58.406C56.2103 58.406 56.4396 58.222 56.5979 57.8593C56.7617 57.4966 56.8382 57.0095 56.8382 56.3978C56.8382 55.6562 56.7344 55.1095 56.5215 54.7739C56.314 54.4329 56.0028 54.2651 55.6042 54.2651C55.1511 54.2651 54.9272 54.4762 54.9272 54.9038L54.9163 60.4521C54.9163 60.6903 54.9818 60.8581 55.1183 60.9555C55.2493 61.0529 55.5005 61.1396 55.8608 61.2207C55.9427 61.237 55.9973 61.2641 56.0355 61.3019C56.0738 61.3398 56.0902 61.3994 56.0902 61.4697C56.0902 61.5888 56.0246 61.6484 55.8936 61.6484L54.8398 61.6267L53.857 61.6051C53.7096 61.6051 53.4203 61.6105 52.9835 61.6267C52.6613 61.6484 52.3447 61.6646 52.0389 61.6646C52.0062 61.6646 51.957 61.6484 51.9079 61.6105Z" fill="#7D7D7D"/>
<path d="M60.7861 61.4862C60.7861 61.4158 60.808 61.3617 60.8516 61.3238C60.8953 61.2859 60.9608 61.2534 61.0537 61.221C61.2939 61.156 61.5014 61.0586 61.6761 60.9232C61.8508 60.7879 61.9764 60.6309 62.0583 60.4523C62.8281 58.6823 63.5161 56.9447 64.1276 55.2396C64.2259 54.9744 64.3023 54.7362 64.3569 54.5251C64.4115 54.314 64.4497 54.2058 64.4661 54.2058C64.8156 54.1246 65.1159 54.0434 65.3725 53.9514C65.509 53.9026 65.64 53.8377 65.7601 53.7619C65.8802 53.6807 65.9731 53.6049 66.0386 53.5346C66.1041 53.5021 66.1423 53.4858 66.1587 53.4858C66.1969 53.4858 66.2297 53.5129 66.257 53.5724C66.3116 53.6915 66.3607 53.8052 66.388 53.9081C66.8903 55.5265 67.4417 57.2478 68.0478 59.072L68.4955 60.4523C68.6102 60.8204 68.9323 61.0748 69.462 61.221C69.5493 61.2534 69.6203 61.2859 69.664 61.3184C69.7077 61.3509 69.7295 61.405 69.7295 61.4754C69.7295 61.5295 69.7077 61.5782 69.664 61.6053C69.6203 61.6378 69.5657 61.654 69.5002 61.654C69.3364 61.654 69.0142 61.6486 68.5283 61.6324C68.026 61.6161 67.682 61.6107 67.4855 61.6107C67.3217 61.6107 67.0159 61.6161 66.5627 61.6324C66.1914 61.654 65.8529 61.6702 65.5472 61.6702C65.4762 61.6702 65.4162 61.654 65.367 61.6215C65.3179 61.589 65.296 61.5457 65.296 61.4916C65.296 61.3563 65.3834 61.2697 65.5636 61.2264C65.8475 61.1722 66.055 61.1019 66.186 61.0153C66.3225 60.9287 66.388 60.815 66.388 60.6634C66.388 60.5822 66.3825 60.5173 66.3662 60.4686L65.9895 59.0774C65.9731 59.0071 65.9512 58.9529 65.9239 58.9205C65.8966 58.888 65.8529 58.8717 65.7983 58.8717H63.6908C63.6253 58.8717 63.5816 58.888 63.5598 58.9205C63.5379 58.9529 63.5106 59.0017 63.4888 59.0774L63.3195 59.5917C63.2977 59.6783 63.2594 59.7974 63.2103 59.9381C63.1612 60.0842 63.123 60.2087 63.0902 60.3224C63.0574 60.4253 63.0411 60.5281 63.0411 60.6364C63.0411 60.7879 63.1011 60.907 63.2158 60.9882C63.3304 61.0748 63.5434 61.1506 63.8382 61.221C64.0184 61.2589 64.1057 61.3509 64.1057 61.4862C64.1057 61.5999 64.0184 61.654 63.8491 61.654C63.6635 61.654 63.4232 61.6486 63.1339 61.6324L62.4787 61.6215C62.2548 61.6215 62.031 61.6323 61.8126 61.6594C61.7416 61.6648 61.6324 61.6757 61.485 61.6811C61.3376 61.6865 61.212 61.6919 61.0973 61.6919C60.8898 61.6919 60.7861 61.6215 60.7861 61.4862ZM65.5417 58.1735C65.6618 58.1735 65.7219 58.1464 65.7219 58.0869C65.7219 58.0814 65.7164 58.0327 65.7001 57.9569L64.9247 55.3046C64.8974 55.2234 64.8756 55.1855 64.8538 55.1855C64.8374 55.1855 64.8155 55.2234 64.7828 55.3046L63.8491 57.9569C63.8328 57.9894 63.8218 58.0219 63.8218 58.0544C63.8218 58.0923 63.8436 58.1248 63.8819 58.1464C63.9201 58.1681 63.9692 58.1789 64.0293 58.1789H65.5417V58.1735Z" fill="#7D7D7D"/>
<path d="M79.8252 61.6486C79.585 61.5079 79.3447 61.2968 79.1045 61.0045L74.3926 56.0462C74.338 55.965 74.2888 55.9271 74.2615 55.9271C74.2069 55.9271 74.1742 56.0029 74.1742 56.1545C74.1742 56.7391 74.1851 57.3994 74.2124 58.1356C74.2179 58.4225 74.2288 58.7527 74.2343 59.1208C74.2397 59.4888 74.2452 59.8732 74.2452 60.2737C74.2452 60.539 74.3271 60.7392 74.4909 60.8854C74.6547 61.0315 74.9113 61.1398 75.2498 61.221C75.4682 61.2751 75.5774 61.3617 75.5774 61.4754C75.5774 61.5295 75.5446 61.5782 75.4846 61.6053C75.4245 61.6378 75.359 61.654 75.2825 61.654C75.0259 61.654 74.7584 61.6486 74.4854 61.6324L73.8903 61.6216C73.6555 61.6216 73.4262 61.627 73.2024 61.6378C72.9785 61.6486 72.831 61.6594 72.7655 61.6703C72.7109 61.6703 72.6454 61.654 72.5854 61.6161C72.5199 61.5783 72.4871 61.5404 72.4871 61.4916C72.4871 61.4267 72.5089 61.378 72.5581 61.3401C72.6072 61.3022 72.6782 61.2643 72.7765 61.2264C73.1423 61.0803 73.3388 60.7555 73.3825 60.2521C73.5518 58.4766 73.6391 56.9014 73.6391 55.532C73.6391 55.1585 73.5463 54.8716 73.3661 54.6821C73.1859 54.4927 72.9184 54.3249 72.5581 54.1896C72.3397 54.1354 72.2305 54.0434 72.2305 53.9243C72.2305 53.7944 72.3342 53.7349 72.5471 53.7349L73.4699 53.7565C74.4363 53.7782 74.9495 53.7944 75.0095 53.7944C75.1133 53.7944 75.1952 53.8323 75.2498 53.9135L79.716 58.8231C79.7979 58.9205 79.8525 58.9692 79.8853 58.9692C79.9508 58.9692 79.9835 58.9151 79.9835 58.8014V57.5402C79.9835 56.2898 79.9726 55.4454 79.9453 54.9961C79.9344 54.7742 79.858 54.6064 79.716 54.5035C79.5686 54.4007 79.3338 54.3032 79.0008 54.2166C78.8151 54.1679 78.7223 54.0867 78.7223 53.9622C78.7223 53.9135 78.7496 53.8702 78.7988 53.8377C78.8534 53.7998 78.9079 53.7836 78.9735 53.7836L79.7597 53.7944C79.8635 53.7998 80.0272 53.8052 80.2565 53.8052L80.8134 53.7944C81.0701 53.7782 81.3158 53.7728 81.5397 53.7728C81.627 53.7728 81.698 53.789 81.7526 53.8215C81.8072 53.854 81.829 53.8973 81.829 53.9514C81.829 54.0813 81.7253 54.1625 81.5233 54.2058C81.2339 54.2599 81.0264 54.3411 80.9063 54.4494C80.7862 54.5576 80.7261 54.7254 80.7261 54.9582C80.7261 55.44 80.6988 56.3493 80.6442 57.6972C80.606 58.482 80.5842 59.1153 80.5842 59.5971C80.5842 59.7811 80.6005 60.0085 80.6278 60.2737C80.6551 60.5444 80.6769 60.7176 80.6824 60.7988C80.7152 61.1019 80.7316 61.2643 80.7316 61.2805C80.7316 61.6703 80.6169 61.8705 80.3822 61.8705C80.2511 61.8597 80.0655 61.7894 79.8252 61.6486Z" fill="#7D7D7D"/>
<path d="M86.748 61.6432C86.6824 61.6053 86.6497 61.5566 86.6497 61.497C86.6497 61.3671 86.7644 61.2805 86.9992 61.2318C87.2995 61.1776 87.5069 61.0694 87.6216 60.9178C87.7363 60.7663 87.7963 60.5606 87.7963 60.3062V58.6715C87.7963 58.4008 87.7635 58.1735 87.698 57.9948C87.6325 57.8162 87.5342 57.6105 87.3977 57.3886L85.8089 54.9744C85.6724 54.7687 85.5413 54.6009 85.4103 54.4764C85.2793 54.3519 85.11 54.2599 84.8916 54.2058C84.8043 54.1733 84.7387 54.1408 84.6896 54.1084C84.6459 54.0759 84.624 54.0272 84.624 53.9514C84.624 53.8973 84.6459 53.8539 84.6896 53.8215C84.7333 53.789 84.7878 53.7728 84.8534 53.7728C85.0281 53.7728 85.2246 53.7782 85.443 53.789C85.656 53.7998 85.8143 53.8052 85.9235 53.8052C86.2566 53.8269 86.5951 53.8431 86.9391 53.8431C87.0592 53.8431 87.2011 53.8377 87.354 53.8323C87.5123 53.8269 87.6325 53.8161 87.7253 53.8106C88.0802 53.7782 88.3642 53.7619 88.5716 53.7619C88.6426 53.7619 88.719 53.7782 88.79 53.8161C88.861 53.854 88.8992 53.8918 88.8992 53.9406C88.8992 54.0596 88.7846 54.1463 88.5607 54.2058C88.3041 54.2599 88.1239 54.3195 88.0256 54.3844C87.9274 54.4494 87.8782 54.5468 87.8782 54.6821C87.8782 54.812 87.9219 54.9528 88.0092 55.1043L89.2814 57.2533C89.336 57.3561 89.4015 57.4102 89.4725 57.4102C89.5271 57.4102 89.5872 57.3561 89.6527 57.2533C90.0786 56.4955 90.4389 55.7972 90.7283 55.1639C90.8102 54.9907 90.8484 54.8337 90.8484 54.7092C90.8484 54.5576 90.7774 54.4385 90.6409 54.3574C90.5044 54.2762 90.3406 54.222 90.155 54.2058C90.0676 54.2004 89.9857 54.1679 89.9093 54.1138C89.8329 54.0596 89.7947 54.0055 89.7947 53.9406C89.7947 53.8918 89.8328 53.8539 89.9038 53.8215C89.9748 53.789 90.0567 53.7728 90.1441 53.7728C90.3789 53.7728 90.6027 53.7836 90.8211 53.8106C91.0941 53.8269 91.307 53.8323 91.449 53.8323C91.5636 53.8323 91.7493 53.8161 92.0059 53.7836C92.2625 53.7511 92.4864 53.7349 92.6721 53.7349C92.9123 53.7349 93.0378 53.8052 93.0378 53.9406C93.0378 54.0055 93.016 54.0488 92.9723 54.0813C92.9286 54.1084 92.8795 54.13 92.8249 54.1463C92.7703 54.1625 92.7376 54.1733 92.7212 54.1841C92.4864 54.2491 92.2789 54.3465 92.0987 54.4764C91.9186 54.6064 91.7766 54.7633 91.6783 54.9365C91.4053 55.3858 91.1924 55.716 91.0504 55.9325C90.6136 56.647 90.3242 57.1234 90.1768 57.3615C89.953 57.7513 89.8383 58.1518 89.8383 58.5524V60.2953C89.8383 60.5985 89.8929 60.8096 89.9967 60.9232C90.1004 61.0369 90.3133 61.1398 90.6354 61.2318C90.7556 61.2643 90.8429 61.2967 90.903 61.3292C90.9576 61.3617 90.9849 61.4158 90.9849 61.4862C90.9849 61.5403 90.9522 61.589 90.8921 61.6323C90.8321 61.6702 90.7556 61.6919 90.6682 61.6919C90.499 61.6919 90.1714 61.6756 89.6854 61.6432C89.2322 61.6107 88.932 61.5944 88.7791 61.5944C88.6317 61.5944 88.3423 61.6107 87.9055 61.6432C87.5396 61.681 87.2284 61.7027 86.9609 61.7027C86.8899 61.7027 86.808 61.681 86.748 61.6432Z" fill="#7D7D7D"/>
<path d="M57.0603 16.35L48.0146 25.3179L48.9837 26.2786L58.0293 17.3107L57.0603 16.35Z" fill="#7D7D7D"/>
<path d="M57.0456 76.1015L48 85.0693L48.969 86.03L58.0146 77.0622L57.0456 76.1015Z" fill="#7D7D7D"/>
</svg>
