<svg width="14" height="13" viewBox="0 0 14 13" fill="none" xmlns="http://www.w3.org/2000/svg">
<path d="M4.73268 0C2.64444 0 0.945312 1.70168 0.945312 3.79234V9.20867C0.945312 11.2991 2.64544 13 4.7342 13H10.1456C12.2341 13 13.9335 11.2983 13.9335 9.20766V3.79082C13.9335 1.70068 12.2333 0 10.1446 0H4.73268ZM11.3358 2.08C11.6226 2.08 11.8554 2.31296 11.8554 2.6C11.8554 2.88704 11.6226 3.12 11.3358 3.12C11.0491 3.12 10.8163 2.88704 10.8163 2.6C10.8163 2.31296 11.0491 2.08 11.3358 2.08ZM7.43939 3.12C9.30189 3.12 10.8163 4.6358 10.8163 6.5C10.8163 8.3642 9.30163 9.88 7.43939 9.88C5.57689 9.88 4.06247 8.36394 4.06247 6.5C4.06247 4.63606 5.57689 3.12 7.43939 3.12ZM7.43939 4.16C6.14811 4.16 5.10152 5.20754 5.10152 6.5C5.10152 7.79246 6.14811 8.84 7.43939 8.84C8.73067 8.84 9.77725 7.79246 9.77725 6.5C9.77725 5.20754 8.73067 4.16 7.43939 4.16Z" fill="#3A5B62"/>
</svg>
