<svg width="19" height="15" viewBox="0 0 19 15" fill="none" xmlns="http://www.w3.org/2000/svg">
<path d="M18.8859 1.77359C18.2249 2.07685 17.5142 2.27902 16.7644 2.37457C17.5268 1.90598 18.1131 1.15859 18.3884 0.275544C17.6751 0.708587 16.885 1.02652 16.0442 1.19413C15.3728 0.457174 14.4152 0 13.3542 0C11.3161 0 9.66441 1.69565 9.66441 3.7862C9.66441 4.08196 9.69779 4.37022 9.76078 4.65C6.69481 4.49054 3.97556 2.98141 2.15632 0.690978C1.83668 1.25054 1.65687 1.90598 1.65687 2.59761C1.65687 3.91207 2.30684 5.06902 3.29787 5.75087C2.69292 5.73163 2.12357 5.5575 1.62506 5.27804C1.62506 5.28946 1.62506 5.30641 1.62506 5.32239C1.62506 7.15924 2.8973 8.68859 4.58365 9.03685C4.27535 9.12424 3.94973 9.17283 3.61404 9.17283C3.37565 9.17283 3.14356 9.14478 2.91872 9.10304C3.38825 10.604 4.75055 11.7013 6.36447 11.7336C5.10168 12.7474 3.51138 13.3546 1.78189 13.3546C1.48304 13.3546 1.19112 13.337 0.902344 13.3008C2.53578 14.372 4.47595 15 6.55845 15C13.3445 15 17.0566 9.22957 17.0566 4.2238C17.0566 4.05978 17.0516 3.89641 17.044 3.735C17.7686 3.20544 18.3928 2.53696 18.8859 1.77359Z" fill="#3A5B62"/>
</svg>
