<svg width="20" height="13" viewBox="0 0 20 13" fill="none" xmlns="http://www.w3.org/2000/svg">
<path d="M19.3122 2.23438C19.1367 1.34094 18.3006 0.690308 17.3303 0.487183C15.8783 0.203125 13.1911 0 10.2836 0C7.3779 0 4.64765 0.203125 3.19393 0.487183C2.22536 0.690308 1.38753 1.29968 1.21205 2.23438C1.03485 3.25 0.859375 4.67188 0.859375 6.5C0.859375 8.32812 1.03485 9.75 1.25506 10.7656C1.43226 11.6591 2.26837 12.3097 3.23694 12.5128C4.7784 12.7969 7.42091 13 10.3284 13C13.2358 13 15.8783 12.7969 17.4198 12.5128C18.3883 12.3097 19.2244 11.7003 19.4016 10.7656C19.5771 9.75 19.7973 8.28687 19.8421 6.5C19.7526 4.67188 19.5324 3.25 19.3122 2.23438ZM7.90605 9.34375V3.65625L13.2788 6.5L7.90605 9.34375Z" fill="#3A5B62"/>
</svg>
