<svg width="95" height="43" viewBox="0 0 95 43" fill="none" xmlns="http://www.w3.org/2000/svg">
<path d="M14.7117 17.4014L15.1672 17.1261C15.2338 16.792 15.1005 16.6268 14.7784 16.6268C14.3118 16.6268 14.0785 16.9829 14.0785 17.6914C14.0785 17.9704 14.1155 18.2935 14.1933 18.6606C15.019 19.2076 15.4301 19.9124 15.4301 20.7678C15.4301 21.6231 15.1301 22.2876 14.534 22.7611C13.9378 23.2347 13.1269 23.4697 12.1086 23.4697C11.6864 23.4697 11.2458 23.4256 10.7903 23.3412C10.3126 23.6422 10.0757 23.8698 10.0757 24.0203C10.0757 24.1708 10.4237 24.2479 11.1162 24.2479H12.7788C15.2412 24.2479 16.4743 25.1253 16.4743 26.8801C16.4743 27.8272 16.104 28.5761 15.3597 29.1304C14.6154 29.6848 13.4564 29.9601 11.8827 29.9601C9.20178 29.9601 7.86133 29.3837 7.86133 28.2347C7.86133 27.6106 8.27976 27.1811 9.11662 26.9425L10.0942 27.3793C10.0053 27.6914 9.96458 27.9887 9.96458 28.2677C9.96458 29.1928 10.6607 29.6554 12.0493 29.6554C12.8973 29.6554 13.549 29.4975 14.0044 29.1855C14.4599 28.8735 14.6895 28.4843 14.6895 28.0218C14.6895 27.5592 14.5525 27.2509 14.2748 27.093C13.997 26.9351 13.4453 26.858 12.6233 26.858H11.0458C10.1682 26.858 9.53874 26.7112 9.15734 26.4212C8.77594 26.1312 8.5871 25.7714 8.5871 25.3492C8.5871 24.9234 8.7241 24.5673 8.99441 24.2846C9.26473 23.9983 9.74981 23.6459 10.4422 23.2274C9.18326 22.8713 8.55377 22.0563 8.55377 20.7751C8.55377 19.9675 8.84631 19.3177 9.43137 18.8221C10.0164 18.3265 10.8977 18.0806 12.0678 18.0806C12.7714 18.0806 13.375 18.2164 13.8748 18.4844C13.8082 18.1944 13.7786 17.93 13.7786 17.6951C13.7786 17.093 13.9415 16.6562 14.2674 16.3882C14.5932 16.1202 14.9561 15.9844 15.3597 15.9844C15.7633 15.9844 16.0855 16.0908 16.3299 16.3001C16.5742 16.5093 16.6965 16.7994 16.6965 17.1628C16.6965 17.5299 16.6002 17.8016 16.4039 17.9778C16.2077 18.154 15.9707 18.2457 15.6967 18.2457C15.4189 18.2457 15.1931 18.1723 15.0116 18.0292C14.8191 17.8786 14.7228 17.6731 14.7117 17.4014ZM11.2606 20.4227V21.2927C11.2606 22.0123 11.3235 22.5042 11.4494 22.7611C11.5753 23.0181 11.7642 23.1466 12.0197 23.1466C12.2752 23.1466 12.4603 23.0218 12.5714 22.7685C12.6862 22.5152 12.7418 21.9976 12.7418 21.212V20.4227C12.7418 19.582 12.6862 19.0314 12.5788 18.767C12.4714 18.5027 12.29 18.3706 12.0345 18.3706C11.779 18.3706 11.5865 18.5064 11.4569 18.7817C11.3235 19.0571 11.2606 19.604 11.2606 20.4227Z" fill="#3A5B62"/>
<path d="M23.7462 18.6929C23.3426 18.6929 22.9908 18.9499 22.6872 19.4675C22.3835 19.9851 22.2317 20.5982 22.2317 21.3067V25.6312H23.387V25.9212H18.3066V25.6312H19.2027V18.5277H18.3066V18.2377H22.2317V19.7869C22.3724 19.2399 22.6427 18.8177 23.0464 18.5204C23.4463 18.223 23.9054 18.0762 24.4127 18.0762C24.9237 18.0762 25.3385 18.2193 25.6569 18.5057C25.9754 18.792 26.1383 19.1958 26.1383 19.7171C26.1383 20.2384 26.0198 20.6386 25.7791 20.9212C25.5384 21.2002 25.1755 21.3397 24.6793 21.3397C24.1832 21.3397 23.8203 21.1782 23.587 20.8552C23.3537 20.5321 23.3241 20.0842 23.4981 19.5152H24.0832C24.3609 18.9682 24.2461 18.6929 23.7462 18.6929Z" fill="#3A5B62"/>
<path d="M29.046 25.0149C28.3461 24.2991 27.998 23.3042 27.998 22.0304C27.998 20.7565 28.3906 19.78 29.1793 19.1009C29.9643 18.4217 30.9678 18.084 32.1823 18.084C34.6448 18.084 35.8297 19.3101 35.7334 21.7624H31.1418V22.3938C31.1418 23.4474 31.2788 24.244 31.5491 24.7836C31.8194 25.3233 32.2934 25.5913 32.9673 25.5913C34.2263 25.5913 35.0521 24.9231 35.4409 23.5905L35.7334 23.6383C35.5261 24.4129 35.1558 25.0149 34.6188 25.4444C34.0819 25.8739 33.2747 26.0905 32.2008 26.0905C30.7974 26.0869 29.7458 25.7271 29.046 25.0149ZM31.1566 21.4393H32.834V20.65C32.834 19.78 32.7822 19.1853 32.6785 18.8659C32.5748 18.5502 32.3675 18.3887 32.0601 18.3887C31.7491 18.3887 31.5232 18.5576 31.3751 18.8953C31.227 19.233 31.1566 19.8167 31.1566 20.6464V21.4393Z" fill="#3A5B62"/>
<path d="M39.077 25.0149C38.3772 24.2991 38.0254 23.3042 38.0254 22.0304C38.0254 20.7565 38.4179 19.78 39.2066 19.1009C39.9916 18.4217 40.9951 18.084 42.2097 18.084C44.6721 18.084 45.8571 19.3101 45.7571 21.7624H41.1655V22.3938C41.1655 23.4474 41.3025 24.244 41.5728 24.7836C41.8431 25.3233 42.3171 25.5913 42.9873 25.5913C44.2463 25.5913 45.072 24.9231 45.4608 23.5905L45.7534 23.6383C45.546 24.4129 45.1757 25.0149 44.6388 25.4444C44.1019 25.8739 43.2946 26.0905 42.2208 26.0905C40.8248 26.0869 39.7769 25.7271 39.077 25.0149ZM41.184 21.4393H42.8614V20.65C42.8614 19.78 42.8096 19.1853 42.7059 18.8659C42.6022 18.5502 42.3948 18.3887 42.0875 18.3887C41.7764 18.3887 41.5506 18.5576 41.4025 18.8953C41.2543 19.233 41.184 19.8167 41.184 20.6464V21.4393Z" fill="#3A5B62"/>
<path d="M48.0049 18.2426H51.93V19.7257C52.104 19.2301 52.3706 18.8336 52.7261 18.5326C53.0853 18.2316 53.6259 18.0811 54.3554 18.0811C56.0365 18.0811 56.8808 18.9805 56.8808 20.7756V25.6323H57.7917V25.9224H53.1853V25.6323H53.8518V20.3865C53.8518 19.7404 53.8074 19.3255 53.7222 19.1346C53.637 18.9474 53.4778 18.852 53.2519 18.852C52.9038 18.852 52.5965 19.0796 52.3336 19.5311C52.067 19.9826 51.9337 20.5333 51.9337 21.1757V25.6323H52.6335V25.9224H48.0049V25.6323H48.901V18.5289H48.0049V18.2426Z" fill="#3A5B62"/>
<path d="M60.7616 25.0149C60.0617 24.2991 59.71 23.3042 59.71 22.0304C59.71 20.7565 60.1025 19.78 60.8912 19.1009C61.6762 18.4217 62.6797 18.084 63.8942 18.084C66.3567 18.084 67.5416 19.3101 67.4453 21.7624H62.8537V22.3938C62.8537 23.4474 62.9907 24.244 63.261 24.7836C63.5313 25.3233 64.0053 25.5913 64.6792 25.5913C65.9382 25.5913 66.764 24.9231 67.1528 23.5905L67.4453 23.6383C67.238 24.4129 66.8677 25.0149 66.3307 25.4444C65.7938 25.8739 64.9866 26.0905 63.9127 26.0905C62.513 26.0869 61.4614 25.7271 60.7616 25.0149ZM62.8722 21.4393H64.5497V20.65C64.5497 19.78 64.4978 19.1853 64.3941 18.8659C64.2904 18.5502 64.0831 18.3887 63.7757 18.3887C63.4647 18.3887 63.2388 18.5576 63.0907 18.8953C62.9426 19.233 62.8722 19.8167 62.8722 20.6464V21.4393Z" fill="#3A5B62"/>
<path d="M75.0987 18.6929C74.6988 18.6929 74.3434 18.9499 74.0397 19.4675C73.7361 19.9851 73.5842 20.5982 73.5842 21.3067V25.6312H74.7396V25.9212H69.6592V25.6312H70.5553V18.5277H69.6592V18.2377H73.5842V19.7869C73.725 19.2399 73.9953 18.8177 74.3989 18.5204C74.7988 18.223 75.258 18.0762 75.7653 18.0762C76.2763 18.0762 76.691 18.2193 77.0094 18.5057C77.3279 18.792 77.4908 19.1958 77.4908 19.7171C77.4908 20.2384 77.3723 20.6386 77.1316 20.9212C76.8947 21.2002 76.5281 21.3397 76.0319 21.3397C75.5394 21.3397 75.1728 21.1782 74.9395 20.8552C74.7062 20.5321 74.6766 20.0842 74.8507 19.5152H75.4357C75.7097 18.9682 75.5949 18.6929 75.0987 18.6929Z" fill="#3A5B62"/>
<path d="M79.0198 18.5322V18.2422H83.741V18.5322H82.8634L84.6371 23.8919L86.5256 18.5322H85.4332V18.2422H87.729V18.5322H86.9144L83.8706 27.2326C83.5114 28.2421 83.1115 28.9506 82.6672 29.3544C82.2228 29.7582 81.6785 29.9602 81.0379 29.9602C80.3973 29.9602 79.8937 29.8133 79.5234 29.5233C79.1531 29.2333 78.9717 28.8625 78.9717 28.411C78.9717 27.9594 79.0902 27.6144 79.3309 27.3794C79.5678 27.1408 79.8826 27.0233 80.2751 27.0233C81.1749 27.0233 81.6267 27.3941 81.6267 28.1356C81.6267 28.2972 81.5933 28.4917 81.5304 28.7157H80.9601C80.8713 28.9616 80.8638 29.1672 80.9268 29.3287C80.9935 29.4903 81.1379 29.571 81.3674 29.571C81.8118 29.571 82.208 29.3544 82.5561 28.9176C82.9042 28.4807 83.2337 27.8163 83.5485 26.9242L83.9076 25.922H82.4746L79.69 18.5285H79.0198V18.5322Z" fill="#3A5B62"/>
<path d="M47.3386 8.79697C47.2941 8.79697 47.2497 8.78595 47.209 8.75658C47.1016 8.68683 47.0756 8.54366 47.146 8.4372C47.9681 7.24043 48.1014 6.32634 48.2273 5.44161C48.2754 5.12223 48.3198 4.79183 48.4013 4.45409C48.5938 3.63912 48.8382 2.96364 49.1493 2.40564C48.7716 2.35057 48.3939 2.28449 48.0273 2.21841C47.4237 2.11195 46.7979 2.00182 46.1795 1.94676C45.1094 1.85498 43.606 1.92473 42.547 2.79477C42.2767 3.01871 41.9397 3.37847 41.8805 3.83735C41.8619 3.96217 41.7435 4.05028 41.6213 4.03559C41.4954 4.02091 41.4028 3.90343 41.4213 3.77861C41.5028 3.17289 41.9175 2.71768 42.2545 2.44235C43.4357 1.47318 45.0613 1.38875 46.224 1.48787C46.8609 1.54294 47.4978 1.65674 48.1125 1.7632C48.542 1.84029 48.9789 1.91738 49.4196 1.97245C49.6788 1.598 49.9787 1.28597 50.3157 1.03633C50.8526 0.636187 51.6932 0.324143 52.4301 0.643526C52.7078 0.764671 53.004 1.02165 53.0003 1.38508C52.9966 1.67143 52.8004 1.93574 52.4449 2.13031C51.8524 2.45336 51.1303 2.57083 50.1565 2.5121C49.9899 2.50108 49.8195 2.4864 49.6529 2.46805C49.3233 3.01504 49.0641 3.70519 48.8605 4.56055C48.7864 4.87626 48.742 5.18096 48.6938 5.50769C48.5568 6.44381 48.4161 7.41297 47.5348 8.69785C47.4867 8.76392 47.4126 8.79697 47.3386 8.79697ZM49.9454 2.03486C50.0232 2.0422 50.1046 2.04587 50.1824 2.05321C51.06 2.10828 51.7043 2.00549 52.219 1.72649C52.3116 1.67509 52.5337 1.53926 52.5337 1.38141C52.5337 1.25292 52.3893 1.13178 52.2412 1.06937C51.6821 0.830752 51.023 1.08773 50.5897 1.40711C50.3527 1.58332 50.1417 1.79257 49.9454 2.03486Z" fill="#3A5B62"/>
<path d="M50.0369 8.87373C49.8739 8.87373 49.7517 8.82234 49.6629 8.75993C49.4851 8.63512 49.3814 8.41485 49.3703 8.13585C49.3555 7.71735 49.5073 7.3429 49.6555 6.97946C49.7591 6.72616 49.8591 6.48754 49.8961 6.24158C49.8961 6.23424 49.8962 6.23056 49.8999 6.22322C49.8665 6.23056 49.8221 6.24525 49.7702 6.27462C49 6.72983 48.1743 7.61823 47.567 8.65347C47.5004 8.76361 47.3596 8.80031 47.2486 8.73791C47.1375 8.6755 47.1005 8.53233 47.1634 8.42219C47.8114 7.32087 48.6964 6.37006 49.5333 5.87814C49.8517 5.69092 50.1627 5.72029 50.3035 5.95524C50.3886 6.09107 50.3627 6.24525 50.3553 6.31133C50.3072 6.61236 50.1961 6.88769 50.085 7.15568C49.948 7.48607 49.8221 7.80178 49.8332 8.12116C49.8369 8.24965 49.8739 8.34877 49.9295 8.38548C50.0072 8.44055 50.1702 8.41485 50.3664 8.31206C50.5627 8.20927 50.7552 8.08813 50.9478 7.97065L51.0403 7.91192C51.2255 7.79811 51.4032 7.68064 51.5847 7.55582C51.5143 7.07858 51.6661 6.51324 51.9846 6.15715C52.2771 5.83042 52.6696 5.70928 53.0881 5.81941C53.2214 5.85612 53.325 5.9222 53.388 6.01397C53.4843 6.15715 53.4843 6.34437 53.388 6.54261C53.2028 6.91706 52.8548 7.18137 52.5511 7.41632L52.4437 7.50076C52.3401 7.58152 52.2327 7.66228 52.1253 7.73938C52.1734 7.84217 52.2475 7.95964 52.3623 8.02572C52.4585 8.08078 52.5882 8.10648 52.7807 8.11015C53.3991 8.11749 54.0138 7.90824 54.5026 7.52645C54.5544 7.48607 54.6136 7.46771 54.6803 7.47873C54.7432 7.48974 54.7988 7.52278 54.8358 7.57785C54.8358 7.57785 55.5023 8.32675 59.1719 8.32675H64.4263C64.5559 8.32675 64.6596 8.42953 64.6596 8.55802C64.6596 8.68651 64.5559 8.7893 64.4263 8.7893H59.1719C56.1281 8.7893 55.0136 8.28269 54.6322 8.00736C54.0878 8.38181 53.4472 8.56537 52.777 8.57271C52.5881 8.57271 52.3438 8.55068 52.129 8.42586C51.9772 8.33409 51.8439 8.19459 51.7476 8.01104C51.5995 8.11016 51.4514 8.20927 51.2995 8.30105L51.207 8.35979C51.007 8.4846 50.8034 8.60942 50.596 8.71955C50.3664 8.83335 50.185 8.87373 50.0369 8.87373ZM52.8103 6.23791C52.6215 6.23791 52.4623 6.31133 52.329 6.46185C52.1586 6.65274 52.0512 6.94642 52.0327 7.2291C52.0698 7.19973 52.1105 7.17036 52.1475 7.14099L52.2586 7.05656C52.5363 6.84363 52.8251 6.62337 52.9621 6.34437C52.9844 6.29664 52.9881 6.26728 52.9881 6.25994C52.9288 6.24158 52.8696 6.23791 52.8103 6.23791Z" fill="#3A5B62"/>
<path d="M37.0772 8.87364H33.078C32.9484 8.87364 32.8447 8.77085 32.8447 8.64236C32.8447 8.51388 32.9484 8.41109 33.078 8.41109H37.0772C41.3503 8.41109 42.4093 7.55573 42.4204 7.54839C42.4723 7.50434 42.5389 7.48965 42.6019 7.49333C42.6685 7.50067 42.7278 7.53738 42.7648 7.58877C43.4424 8.56527 44.0645 8.29729 44.0868 8.2826C44.7348 8.08436 45.0421 7.3575 45.1902 6.77747C45.3235 6.26352 45.405 5.72755 45.4827 5.20626C45.5605 4.70332 45.6383 4.1857 45.7642 3.67909C46.0789 2.40157 46.6714 1.44709 47.4823 0.914787C47.5897 0.845037 47.7341 0.874403 47.8045 0.980863C47.8748 1.08732 47.8452 1.23049 47.7378 1.30024C46.838 1.88761 46.4122 2.97792 46.2159 3.78923C46.0974 4.27381 46.0197 4.78408 45.9456 5.276C45.8641 5.80831 45.7827 6.3553 45.6457 6.89127C45.3902 7.88613 44.9088 8.51755 44.2571 8.71211C44.2534 8.71579 43.3869 9.12328 42.5167 8.03297C42.0242 8.3083 40.5838 8.87364 37.0772 8.87364Z" fill="#3A5B62"/>
<path d="M23.2766 37.9196L22.9582 38.9291L22.4102 38.7603L23.2729 36.04L24.2727 36.3521C24.5949 36.4549 24.817 36.6054 24.9318 36.811C25.0466 37.0165 25.0651 37.2515 24.98 37.5158C24.8985 37.7764 24.7467 37.9563 24.5282 38.0554C24.3097 38.1582 24.0431 38.1582 23.7321 38.0591L23.2766 37.9196ZM24.4208 37.3396C24.4653 37.2038 24.4616 37.0863 24.406 36.9908C24.3542 36.8954 24.2431 36.822 24.0728 36.7669L23.6802 36.6458L23.4136 37.4828L23.8061 37.6039C24.1283 37.7067 24.332 37.6186 24.4208 37.3396Z" fill="#3A5B62"/>
<path d="M28.6636 37.5748L28.2674 39.201C28.2156 39.4176 28.223 39.5939 28.2933 39.726C28.3637 39.8582 28.4896 39.9463 28.671 39.9903C28.8525 40.0344 29.0006 40.0123 29.1265 39.9279C29.2487 39.8435 29.3376 39.693 29.3894 39.4727L29.7856 37.8464L30.3411 37.9786L29.9449 39.6049C29.8819 39.8618 29.7819 40.0674 29.6412 40.2216C29.5005 40.3758 29.3376 40.4749 29.145 40.519C28.9525 40.563 28.7488 40.563 28.534 40.5116C28.1971 40.4308 27.9564 40.2693 27.8046 40.0197C27.6527 39.7737 27.6231 39.458 27.7157 39.0726L28.1119 37.4463L28.6636 37.5748Z" fill="#3A5B62"/>
<path d="M34.3847 41.6525L33.9107 40.4447L33.6626 40.4043L33.4738 41.4983L32.9072 41.4029L33.3886 38.5908L34.4699 38.7744C34.7994 38.8294 35.0364 38.9506 35.1808 39.1415C35.3252 39.3287 35.3771 39.5526 35.3326 39.8133C35.2956 40.0262 35.2067 40.1951 35.0623 40.3162C34.9179 40.4374 34.7291 40.5071 34.4958 40.5145L35.0105 41.7553L34.3847 41.6525ZM33.7256 40.0152L34.1921 40.0923C34.5143 40.1474 34.7031 40.0336 34.7513 39.7472C34.7735 39.6114 34.7513 39.5013 34.6883 39.4095C34.6217 39.3214 34.5069 39.2626 34.3403 39.2333L33.8737 39.1562L33.7256 40.0152Z" fill="#3A5B62"/>
<path d="M39.0025 39.8504L38.9248 40.5846L39.9356 40.691L39.8912 41.1242L38.8803 41.0178L38.7989 41.7814L39.9319 41.8988L39.8838 42.354L38.1768 42.1778L38.4767 39.3438L40.1837 39.52L40.1356 39.9715L39.0025 39.8504Z" fill="#3A5B62"/>
<path d="M49.2744 42.6849L48.7004 42.6886L47.4007 40.7613L47.4155 42.6996L46.8416 42.7032L46.8193 39.8545L47.3933 39.8509L48.693 41.7965L48.6782 39.8435L49.2522 39.8398L49.2744 42.6849Z" fill="#3A5B62"/>
<path d="M54.3033 41.8362L53.1554 41.9243L52.9962 42.5117L52.3926 42.5594L53.2257 39.6666L53.8812 39.6152L55.155 42.3428L54.5514 42.3905L54.3033 41.8362ZM54.1144 41.4177L53.5997 40.2503L53.2702 41.4838L54.1144 41.4177Z" fill="#3A5B62"/>
<path d="M59.7723 38.8887L59.839 39.3365L59.054 39.4503L59.402 41.8255L58.8318 41.9062L58.4837 39.5311L57.7024 39.6449L57.6357 39.197L59.7723 38.8887Z" fill="#3A5B62"/>
<path d="M63.2119 38.2572L63.5674 39.8908C63.6155 40.1111 63.697 40.2616 63.8192 40.3497C63.9377 40.4378 64.0932 40.4635 64.2746 40.4231C64.4561 40.3864 64.582 40.302 64.656 40.1698C64.7301 40.0414 64.7412 39.8652 64.6968 39.6486L64.3413 38.0149L64.9004 37.8975L65.2559 39.5311C65.3115 39.7881 65.3115 40.0157 65.2522 40.2139C65.193 40.4121 65.0893 40.5737 64.9375 40.6948C64.7856 40.8196 64.6005 40.9041 64.382 40.9481C64.0451 41.0215 63.7525 40.9775 63.5081 40.8196C63.2637 40.6618 63.0971 40.3901 63.0156 40.0046L62.6602 38.371L63.2119 38.2572Z" fill="#3A5B62"/>
<path d="M70.1477 39.4725L69.1923 38.5878L68.948 38.6575L69.259 39.7258L68.7073 39.8837L67.9111 37.145L68.9628 36.844C69.2849 36.7522 69.5515 36.7596 69.7626 36.866C69.9774 36.9725 70.1181 37.1524 70.1921 37.4057C70.2514 37.6113 70.244 37.8022 70.1699 37.9747C70.0959 38.1472 69.9551 38.2867 69.7478 38.3969L70.755 39.2963L70.1477 39.4725ZM68.8406 38.2831L69.296 38.1546C69.6108 38.0628 69.7293 37.8829 69.6478 37.6039C69.6108 37.4718 69.5404 37.38 69.4441 37.3286C69.3442 37.2772 69.2146 37.2735 69.0553 37.3212L68.5999 37.4497L68.8406 38.2831Z" fill="#3A5B62"/>
<path d="M73.5137 35.8672L73.7655 36.561L74.7246 36.2196L74.8727 36.6308L73.9136 36.9722L74.1766 37.6954L75.2504 37.3136L75.4059 37.7431L73.7914 38.3158L72.8213 35.6323L74.4358 35.0596L74.5913 35.4854L73.5137 35.8672Z" fill="#3A5B62"/>
<path d="M52.8147 32.0498H43.2686V32.9712H52.8147V32.0498Z" fill="#3A5B62"/>
<path d="M28.1871 8.13924C26.9874 8.08785 25.6358 7.9924 24.2769 7.72809C24.0288 7.11135 23.8992 6.45056 23.7733 5.75306C23.7325 5.52912 23.6918 5.30519 23.6474 5.08493C23.4622 4.18552 23.1475 3.0475 22.3402 2.23986C22.2736 2.17379 22.1033 2.00124 21.8515 2.00124C21.8478 2.00124 21.8478 2.00124 21.8441 2.00124C21.5737 2.00124 21.3479 2.18847 21.2183 2.51152C20.9294 3.2494 20.9924 4.04969 21.0664 4.58934C21.1849 5.46672 21.4034 6.13485 21.7515 6.68551C21.8552 6.85071 21.9737 7.00122 22.0996 7.13705C21.5589 6.93881 20.9665 6.67449 20.3703 6.32574C20.3296 6.267 20.274 6.22295 20.2111 6.20093C19.9334 4.60769 19.6334 2.97407 19.1076 1.40653C18.9299 0.874232 18.6707 0.301548 18.093 0.0702719C17.8708 -0.0178333 17.6524 -0.0141627 17.4783 0.0812846C17.1969 0.23914 17.1488 0.551179 17.1303 0.672324C16.9821 1.65617 17.1858 2.86394 17.619 3.98361C16.7007 3.05851 15.7306 2.13708 14.5382 1.49464C14.179 1.30008 13.7014 1.08715 13.1904 1.14222C13.0163 1.16057 12.883 1.30374 12.8793 1.47995C12.8645 2.12606 13.2422 2.72444 14.0346 3.31915C15.2677 4.24058 16.934 4.74352 17.619 4.91973C17.9079 5.26848 18.23 5.59887 18.5855 5.90724C16.8933 5.59887 15.1011 5.8999 13.6125 6.79197C13.5014 6.85805 13.4385 6.97919 13.4459 7.10401C13.4533 7.22882 13.5273 7.34262 13.6421 7.39769C14.2531 7.6877 14.9159 7.77948 15.5713 7.77948C16.0009 7.77948 16.4267 7.7391 16.8266 7.6877C18.0893 7.52985 19.1076 7.28022 20.0148 6.92046C20.5443 7.22882 21.1109 7.50415 21.7219 7.73543C20.9776 8.01443 20.2 8.34482 19.5446 8.85877C18.7855 9.45348 18.3041 10.2171 18.193 11.0137C18.1375 11.4028 18.3226 11.579 18.4374 11.6488C18.5263 11.7038 18.6188 11.7222 18.704 11.7222C18.8706 11.7222 19.015 11.6451 19.0743 11.6121C20.5406 10.8338 21.7515 9.67742 22.9216 8.56142L23.2808 8.22001C23.4956 8.27507 23.7066 8.3228 23.9214 8.37052C23.9288 8.37419 23.9362 8.37419 23.9473 8.37419C25.4174 8.67889 26.8726 8.78168 28.1612 8.83674C28.1649 8.83674 28.1723 8.83674 28.176 8.83674C28.3612 8.83674 28.5167 8.6899 28.5241 8.50635C28.5315 8.31178 28.3797 8.15025 28.1871 8.13924ZM14.4531 2.75748C14.0346 2.44544 13.768 2.14809 13.6495 1.85807C13.8458 1.90947 14.0346 2.00125 14.2087 2.09669C15.0455 2.54823 15.7787 3.1613 16.4674 3.81474C15.675 3.51005 14.9678 3.14294 14.4531 2.75748ZM21.8663 2.76115C21.8663 2.75748 21.8663 2.75748 21.87 2.75381C22.5328 3.43295 22.8031 4.42781 22.9623 5.22443C23.0068 5.44102 23.0475 5.66128 23.0882 5.88155C23.1697 6.32574 23.2512 6.78096 23.3734 7.22515C22.9734 7.05628 22.6069 6.74057 22.3402 6.31473C22.0477 5.85218 21.8589 5.27215 21.7552 4.49389C21.6552 3.74867 21.6885 3.21636 21.8663 2.76115ZM17.819 0.767769C17.8227 0.742072 17.8264 0.720046 17.8301 0.705362C18.1412 0.830178 18.3152 1.23766 18.4411 1.61578C18.878 2.93002 19.1595 4.31034 19.4038 5.66863C19.3964 5.66128 19.389 5.65761 19.3816 5.65027C18.2856 4.38009 17.6005 2.2472 17.819 0.767769ZM16.7377 6.99754C16.086 7.07831 15.364 7.13337 14.6937 7.00489C15.949 6.46524 17.3932 6.32574 18.7225 6.61943C18.1338 6.78095 17.4783 6.9021 16.7377 6.99754ZM18.9225 10.9035C19.0558 10.3566 19.4261 9.82793 19.9778 9.39842C20.5295 8.9689 21.1775 8.67889 21.9774 8.37786C22.0514 8.35217 22.1218 8.32279 22.1921 8.30077C21.1812 9.25524 20.1296 10.2244 18.9225 10.9035Z" fill="#3A5B62"/>
<path d="M83.4519 6.78149C81.9633 5.88942 80.1748 5.58839 78.4789 5.89676C78.8344 5.58839 79.1565 5.25799 79.4454 4.90924C80.1304 4.73303 81.793 4.23009 83.0298 3.30866C83.8222 2.71762 84.1999 2.11556 84.1851 1.46945C84.1814 1.29691 84.0481 1.15007 83.8741 1.13172C83.3556 1.08032 82.8817 1.29324 82.5262 1.48414C81.3339 2.12657 80.3637 3.04434 79.4454 3.97312C79.8786 2.85345 80.0823 1.64934 79.9342 0.665491C79.9156 0.548017 79.8712 0.232305 79.5861 0.074449C79.412 -0.0209987 79.1936 -0.0246693 78.9714 0.0634362C78.3938 0.294713 78.1345 0.867399 77.9605 1.3997C77.4384 2.96358 77.1385 4.60087 76.857 6.19411C76.7904 6.21614 76.7386 6.26387 76.6978 6.3226C76.1017 6.67135 75.5092 6.93567 74.9685 7.13391C75.0944 6.99441 75.2093 6.84389 75.3129 6.68237C75.661 6.13171 75.8795 5.46358 75.998 4.58619C76.072 4.04655 76.135 3.24625 75.8462 2.50837C75.7166 2.18164 75.4759 1.9834 75.2129 1.99809C74.9612 2.00176 74.7908 2.1743 74.7242 2.23671C73.9132 3.04801 73.5985 4.18237 73.4133 5.08178C73.3689 5.30572 73.3282 5.52965 73.2874 5.75359C73.1615 6.45109 73.0319 7.10821 72.7838 7.72495C71.4249 7.98926 70.0733 8.08472 68.8736 8.13611C68.681 8.14345 68.5329 8.30498 68.5403 8.49587C68.5477 8.6831 68.7032 8.82627 68.8884 8.82627C68.8921 8.82627 68.8995 8.82627 68.9032 8.82627C70.1918 8.7712 71.647 8.66841 73.1171 8.36372C73.1245 8.36372 73.1319 8.36005 73.1393 8.36005C73.3541 8.31599 73.5652 8.2646 73.7799 8.20953L74.1354 8.54727C75.3055 9.66327 76.5164 10.8197 77.9827 11.5979C78.042 11.631 78.1864 11.7044 78.353 11.7044C78.4382 11.7044 78.5308 11.686 78.6196 11.631C78.7344 11.5612 78.9196 11.3887 78.864 10.9995C78.7529 10.2066 78.2716 9.43934 77.5125 8.84462C76.857 8.33435 76.0794 8.00395 75.3352 7.72128C75.9424 7.49 76.509 7.21835 77.0385 6.90998C77.9457 7.26974 78.9677 7.51203 80.2341 7.67355C80.634 7.72495 81.0598 7.76533 81.4894 7.76533C82.1411 7.76533 82.8076 7.67356 83.4149 7.38354C83.5297 7.32847 83.6074 7.21467 83.6111 7.08985C83.6259 6.96871 83.563 6.84757 83.4519 6.78149ZM82.8595 2.09721C83.0335 2.00543 83.2223 1.90998 83.4149 1.85859C83.2964 2.1486 83.0261 2.44596 82.6076 2.758C82.0929 3.14346 81.3857 3.51057 80.597 3.81527C81.2894 3.15814 82.0263 2.54875 82.8595 2.09721ZM78.6233 1.6163C78.7492 1.2345 78.9196 0.830689 79.2343 0.705873C79.238 0.720557 79.2417 0.742583 79.2454 0.76828C79.4639 2.24772 78.7788 4.38061 77.6791 5.65447C77.6717 5.65814 77.6643 5.66548 77.6569 5.66915C77.905 4.31086 78.1864 2.93054 78.6233 1.6163ZM73.9762 5.88208C74.0169 5.66181 74.0576 5.44155 74.1021 5.22495C74.265 4.432 74.5353 3.43715 75.1981 2.75433C75.1981 2.758 75.1981 2.758 75.2018 2.76167C75.3796 3.21321 75.4129 3.74919 75.3129 4.49808C75.2093 5.27268 75.0241 5.85271 74.7279 6.31893C74.465 6.73744 74.0947 7.05682 73.6948 7.22569C73.8133 6.77782 73.8947 6.3226 73.9762 5.88208ZM78.1456 10.9041C76.9348 10.2249 75.8832 9.25945 74.8723 8.29396C74.9426 8.31966 75.0167 8.34536 75.0907 8.37473C75.8943 8.67575 76.5423 8.96577 77.0903 9.39528C77.6421 9.82847 78.0123 10.3571 78.1456 10.9041ZM80.3267 6.99808C79.5824 6.9063 78.9307 6.78148 78.3419 6.62363C79.6713 6.32994 81.1191 6.46577 82.3707 7.00909C81.7041 7.13391 80.9821 7.07884 80.3267 6.99808Z" fill="#3A5B62"/>
<path d="M1.58115 23.7561C2.45439 23.7561 3.16229 23.0543 3.16229 22.1886C3.16229 21.3229 2.45439 20.6211 1.58115 20.6211C0.707901 20.6211 0 21.3229 0 22.1886C0 23.0543 0.707901 23.7561 1.58115 23.7561Z" fill="#3A5B62"/>
<path d="M92.9835 23.7561C93.8567 23.7561 94.5646 23.0543 94.5646 22.1886C94.5646 21.3229 93.8567 20.6211 92.9835 20.6211C92.1103 20.6211 91.4023 21.3229 91.4023 22.1886C91.4023 23.0543 92.1103 23.7561 92.9835 23.7561Z" fill="#3A5B62"/>
</svg>
