<svg width="95" height="43" viewBox="0 0 95 43" fill="none" xmlns="http://www.w3.org/2000/svg">
<path d="M14.7117 17.4019L15.1672 17.1266C15.2338 16.7925 15.1005 16.6273 14.7784 16.6273C14.3118 16.6273 14.0785 16.9834 14.0785 17.6919C14.0785 17.9709 14.1155 18.294 14.1933 18.6611C15.019 19.2081 15.4301 19.9129 15.4301 20.7683C15.4301 21.6236 15.1301 22.2881 14.534 22.7616C13.9378 23.2352 13.1269 23.4702 12.1086 23.4702C11.6864 23.4702 11.2458 23.4261 10.7903 23.3417C10.3126 23.6427 10.0757 23.8703 10.0757 24.0208C10.0757 24.1713 10.4237 24.2484 11.1162 24.2484H12.7788C15.2412 24.2484 16.4743 25.1258 16.4743 26.8806C16.4743 27.8277 16.104 28.5766 15.3597 29.1309C14.6154 29.6853 13.4564 29.9606 11.8827 29.9606C9.20178 29.9606 7.86133 29.3842 7.86133 28.2352C7.86133 27.6111 8.27976 27.1816 9.11662 26.943L10.0942 27.3798C10.0053 27.6919 9.96458 27.9892 9.96458 28.2682C9.96458 29.1933 10.6607 29.6559 12.0493 29.6559C12.8973 29.6559 13.549 29.498 14.0044 29.186C14.4599 28.8739 14.6895 28.4848 14.6895 28.0223C14.6895 27.5597 14.5525 27.2513 14.2748 27.0935C13.997 26.9356 13.4453 26.8585 12.6233 26.8585H11.0458C10.1682 26.8585 9.53874 26.7117 9.15734 26.4217C8.77594 26.1317 8.5871 25.7719 8.5871 25.3497C8.5871 24.9239 8.7241 24.5678 8.99441 24.2851C9.26473 23.9988 9.74981 23.6464 10.4422 23.2279C9.18326 22.8718 8.55377 22.0568 8.55377 20.7756C8.55377 19.968 8.84631 19.3182 9.43137 18.8226C10.0164 18.327 10.8977 18.081 12.0678 18.081C12.7714 18.081 13.375 18.2169 13.8748 18.4849C13.8082 18.1948 13.7786 17.9305 13.7786 17.6956C13.7786 17.0935 13.9415 16.6567 14.2674 16.3887C14.5932 16.1207 14.9561 15.9849 15.3597 15.9849C15.7633 15.9849 16.0855 16.0913 16.3299 16.3006C16.5742 16.5098 16.6965 16.7998 16.6965 17.1633C16.6965 17.5304 16.6002 17.802 16.4039 17.9782C16.2077 18.1545 15.9707 18.2462 15.6967 18.2462C15.4189 18.2462 15.1931 18.1728 15.0116 18.0296C14.8191 17.8791 14.7228 17.6735 14.7117 17.4019ZM11.2606 20.4232V21.2932C11.2606 22.0127 11.3235 22.5047 11.4494 22.7616C11.5753 23.0186 11.7642 23.1471 12.0197 23.1471C12.2752 23.1471 12.4603 23.0223 12.5714 22.769C12.6862 22.5157 12.7418 21.9981 12.7418 21.2124V20.4232C12.7418 19.5825 12.6862 19.0318 12.5788 18.7675C12.4714 18.5032 12.29 18.371 12.0345 18.371C11.779 18.371 11.5865 18.5069 11.4569 18.7822C11.3235 19.0575 11.2606 19.6045 11.2606 20.4232Z" fill="white"/>
<path d="M23.7462 18.6939C23.3426 18.6939 22.9908 18.9509 22.6872 19.4685C22.3835 19.9861 22.2317 20.5992 22.2317 21.3077V25.6322H23.387V25.9222H18.3066V25.6322H19.2027V18.5287H18.3066V18.2387H22.2317V19.7879C22.3724 19.2409 22.6427 18.8187 23.0464 18.5213C23.4463 18.224 23.9054 18.0771 24.4127 18.0771C24.9237 18.0771 25.3385 18.2203 25.6569 18.5067C25.9754 18.793 26.1383 19.1968 26.1383 19.7181C26.1383 20.2394 26.0198 20.6396 25.7791 20.9222C25.5384 21.2012 25.1755 21.3407 24.6793 21.3407C24.1832 21.3407 23.8203 21.1792 23.587 20.8561C23.3537 20.5331 23.3241 20.0852 23.4981 19.5162H24.0832C24.3609 18.9692 24.2461 18.6939 23.7462 18.6939Z" fill="white"/>
<path d="M29.046 25.0154C28.3461 24.2995 27.998 23.3047 27.998 22.0308C27.998 20.757 28.3906 19.7805 29.1793 19.1014C29.9643 18.4222 30.9678 18.0845 32.1823 18.0845C34.6448 18.0845 35.8297 19.3106 35.7334 21.7629H31.1418V22.3943C31.1418 23.4479 31.2788 24.2445 31.5491 24.7841C31.8194 25.3238 32.2934 25.5918 32.9673 25.5918C34.2263 25.5918 35.0521 24.9236 35.4409 23.591L35.7334 23.6388C35.5261 24.4133 35.1558 25.0154 34.6188 25.4449C34.0819 25.8744 33.2747 26.091 32.2008 26.091C30.7974 26.0873 29.7458 25.7276 29.046 25.0154ZM31.1566 21.4398H32.834V20.6505C32.834 19.7805 32.7822 19.1858 32.6785 18.8664C32.5748 18.5507 32.3675 18.3892 32.0601 18.3892C31.7491 18.3892 31.5232 18.558 31.3751 18.8958C31.227 19.2335 31.1566 19.8172 31.1566 20.6469V21.4398Z" fill="white"/>
<path d="M39.077 25.0154C38.3772 24.2995 38.0254 23.3047 38.0254 22.0308C38.0254 20.757 38.4179 19.7805 39.2066 19.1014C39.9916 18.4222 40.9951 18.0845 42.2097 18.0845C44.6721 18.0845 45.8571 19.3106 45.7571 21.7629H41.1655V22.3943C41.1655 23.4479 41.3025 24.2445 41.5728 24.7841C41.8431 25.3238 42.3171 25.5918 42.9873 25.5918C44.2463 25.5918 45.072 24.9236 45.4608 23.591L45.7534 23.6388C45.546 24.4133 45.1757 25.0154 44.6388 25.4449C44.1019 25.8744 43.2946 26.091 42.2208 26.091C40.8248 26.0873 39.7769 25.7276 39.077 25.0154ZM41.184 21.4398H42.8614V20.6505C42.8614 19.7805 42.8096 19.1858 42.7059 18.8664C42.6022 18.5507 42.3948 18.3892 42.0875 18.3892C41.7764 18.3892 41.5506 18.558 41.4025 18.8958C41.2543 19.2335 41.184 19.8172 41.184 20.6469V21.4398Z" fill="white"/>
<path d="M48.0049 18.2426H51.93V19.7257C52.104 19.2301 52.3706 18.8336 52.7261 18.5326C53.0853 18.2316 53.6259 18.0811 54.3554 18.0811C56.0365 18.0811 56.8808 18.9805 56.8808 20.7756V25.6323H57.7917V25.9224H53.1853V25.6323H53.8518V20.3865C53.8518 19.7404 53.8074 19.3255 53.7222 19.1346C53.637 18.9474 53.4778 18.852 53.2519 18.852C52.9038 18.852 52.5965 19.0796 52.3336 19.5311C52.067 19.9826 51.9337 20.5333 51.9337 21.1757V25.6323H52.6335V25.9224H48.0049V25.6323H48.901V18.5289H48.0049V18.2426Z" fill="white"/>
<path d="M60.7616 25.0154C60.0617 24.2995 59.71 23.3047 59.71 22.0308C59.71 20.757 60.1025 19.7805 60.8912 19.1014C61.6762 18.4222 62.6797 18.0845 63.8942 18.0845C66.3567 18.0845 67.5416 19.3106 67.4453 21.7629H62.8537V22.3943C62.8537 23.4479 62.9907 24.2445 63.261 24.7841C63.5313 25.3238 64.0053 25.5918 64.6792 25.5918C65.9382 25.5918 66.764 24.9236 67.1528 23.591L67.4453 23.6388C67.238 24.4133 66.8677 25.0154 66.3307 25.4449C65.7938 25.8744 64.9866 26.091 63.9127 26.091C62.513 26.0873 61.4614 25.7276 60.7616 25.0154ZM62.8722 21.4398H64.5497V20.6505C64.5497 19.7805 64.4978 19.1858 64.3941 18.8664C64.2904 18.5507 64.0831 18.3892 63.7757 18.3892C63.4647 18.3892 63.2388 18.558 63.0907 18.8958C62.9426 19.2335 62.8722 19.8172 62.8722 20.6469V21.4398Z" fill="white"/>
<path d="M75.0987 18.6939C74.6988 18.6939 74.3434 18.9509 74.0397 19.4685C73.7361 19.9861 73.5842 20.5992 73.5842 21.3077V25.6322H74.7396V25.9222H69.6592V25.6322H70.5553V18.5287H69.6592V18.2387H73.5842V19.7879C73.725 19.2409 73.9953 18.8187 74.3989 18.5213C74.7988 18.224 75.258 18.0771 75.7653 18.0771C76.2763 18.0771 76.691 18.2203 77.0094 18.5067C77.3279 18.793 77.4908 19.1968 77.4908 19.7181C77.4908 20.2394 77.3723 20.6396 77.1316 20.9222C76.8947 21.2012 76.5281 21.3407 76.0319 21.3407C75.5394 21.3407 75.1728 21.1792 74.9395 20.8561C74.7062 20.5331 74.6766 20.0852 74.8507 19.5162H75.4357C75.7097 18.9692 75.5949 18.6939 75.0987 18.6939Z" fill="white"/>
<path d="M79.0198 18.5327V18.2427H83.741V18.5327H82.8634L84.6371 23.8924L86.5256 18.5327H85.4332V18.2427H87.729V18.5327H86.9144L83.8706 27.2331C83.5114 28.2426 83.1115 28.9511 82.6672 29.3549C82.2228 29.7587 81.6785 29.9606 81.0379 29.9606C80.3973 29.9606 79.8937 29.8138 79.5234 29.5238C79.1531 29.2338 78.9717 28.863 78.9717 28.4115C78.9717 27.9599 79.0902 27.6148 79.3309 27.3799C79.5678 27.1413 79.8826 27.0238 80.2751 27.0238C81.1749 27.0238 81.6267 27.3946 81.6267 28.1361C81.6267 28.2977 81.5933 28.4922 81.5304 28.7162H80.9601C80.8713 28.9621 80.8638 29.1677 80.9268 29.3292C80.9935 29.4907 81.1379 29.5715 81.3674 29.5715C81.8118 29.5715 82.208 29.3549 82.5561 28.9181C82.9042 28.4812 83.2337 27.8167 83.5485 26.9247L83.9076 25.9225H82.4746L79.69 18.529H79.0198V18.5327Z" fill="white"/>
<path d="M47.3386 8.79697C47.2941 8.79697 47.2497 8.78595 47.209 8.75658C47.1016 8.68683 47.0756 8.54366 47.146 8.4372C47.9681 7.24043 48.1014 6.32634 48.2273 5.44161C48.2754 5.12223 48.3198 4.79183 48.4013 4.45409C48.5938 3.63912 48.8382 2.96364 49.1493 2.40564C48.7716 2.35057 48.3939 2.28449 48.0273 2.21841C47.4237 2.11195 46.7979 2.00182 46.1795 1.94676C45.1094 1.85498 43.606 1.92473 42.547 2.79477C42.2767 3.01871 41.9397 3.37847 41.8805 3.83735C41.8619 3.96217 41.7435 4.05028 41.6213 4.03559C41.4954 4.02091 41.4028 3.90343 41.4213 3.77861C41.5028 3.17289 41.9175 2.71768 42.2545 2.44235C43.4357 1.47318 45.0613 1.38875 46.224 1.48787C46.8609 1.54294 47.4978 1.65674 48.1125 1.7632C48.542 1.84029 48.9789 1.91738 49.4196 1.97245C49.6788 1.598 49.9787 1.28597 50.3157 1.03633C50.8526 0.636187 51.6932 0.324143 52.4301 0.643526C52.7078 0.764671 53.004 1.02165 53.0003 1.38508C52.9966 1.67143 52.8004 1.93574 52.4449 2.13031C51.8524 2.45336 51.1303 2.57083 50.1565 2.5121C49.9899 2.50108 49.8195 2.4864 49.6529 2.46805C49.3233 3.01504 49.0641 3.70519 48.8605 4.56055C48.7864 4.87626 48.742 5.18096 48.6938 5.50769C48.5568 6.44381 48.4161 7.41297 47.5348 8.69785C47.4867 8.76392 47.4126 8.79697 47.3386 8.79697ZM49.9454 2.03486C50.0232 2.0422 50.1046 2.04587 50.1824 2.05321C51.06 2.10828 51.7043 2.00549 52.219 1.72649C52.3116 1.67509 52.5337 1.53926 52.5337 1.38141C52.5337 1.25292 52.3893 1.13178 52.2412 1.06937C51.6821 0.830752 51.023 1.08773 50.5897 1.40711C50.3527 1.58332 50.1417 1.79257 49.9454 2.03486Z" fill="white"/>
<path d="M50.0369 8.87422C49.8739 8.87422 49.7517 8.82283 49.6629 8.76042C49.4851 8.6356 49.3814 8.41534 49.3703 8.13634C49.3555 7.71784 49.5073 7.34339 49.6555 6.97995C49.7591 6.72665 49.8591 6.48803 49.8961 6.24207C49.8961 6.23473 49.8962 6.23105 49.8999 6.22371C49.8665 6.23105 49.8221 6.24574 49.7702 6.27511C49 6.73032 48.1743 7.61872 47.567 8.65396C47.5004 8.76409 47.3596 8.8008 47.2486 8.73839C47.1375 8.67599 47.1005 8.53281 47.1634 8.42268C47.8114 7.32136 48.6964 6.37055 49.5333 5.87863C49.8517 5.6914 50.1627 5.72078 50.3035 5.95572C50.3886 6.09155 50.3627 6.24574 50.3553 6.31182C50.3072 6.61285 50.1961 6.88818 50.085 7.15617C49.948 7.48656 49.8221 7.80227 49.8332 8.12165C49.8369 8.25014 49.8739 8.34926 49.9295 8.38597C50.0072 8.44104 50.1702 8.41534 50.3664 8.31255C50.5627 8.20976 50.7552 8.08862 50.9478 7.97114L51.0403 7.9124C51.2255 7.7986 51.4032 7.68113 51.5847 7.55631C51.5143 7.07907 51.6661 6.51373 51.9846 6.15763C52.2771 5.83091 52.6696 5.70976 53.0881 5.8199C53.2214 5.85661 53.325 5.92269 53.388 6.01446C53.4843 6.15763 53.4843 6.34486 53.388 6.5431C53.2028 6.91755 52.8548 7.18186 52.5511 7.41681L52.4437 7.50125C52.3401 7.58201 52.2327 7.66277 52.1253 7.73986C52.1734 7.84265 52.2475 7.96013 52.3623 8.02621C52.4585 8.08127 52.5882 8.10697 52.7807 8.11064C53.3991 8.11798 54.0138 7.90873 54.5026 7.52694C54.5544 7.48656 54.6136 7.4682 54.6803 7.47922C54.7432 7.49023 54.7988 7.52327 54.8358 7.57834C54.8358 7.57834 55.5023 8.32724 59.1719 8.32724H64.4263C64.5559 8.32724 64.6596 8.43002 64.6596 8.55851C64.6596 8.687 64.5559 8.78979 64.4263 8.78979H59.1719C56.1281 8.78979 55.0136 8.28318 54.6322 8.00785C54.0878 8.3823 53.4472 8.56586 52.777 8.5732C52.5881 8.5732 52.3438 8.55117 52.129 8.42635C51.9772 8.33458 51.8439 8.19508 51.7476 8.01152C51.5995 8.11064 51.4514 8.20976 51.2995 8.30154L51.207 8.36028C51.007 8.48509 50.8034 8.60991 50.596 8.72004C50.3664 8.83384 50.185 8.87422 50.0369 8.87422ZM52.8103 6.2384C52.6215 6.2384 52.4623 6.31182 52.329 6.46233C52.1586 6.65323 52.0512 6.94691 52.0327 7.22959C52.0698 7.20022 52.1105 7.17085 52.1475 7.14148L52.2586 7.05704C52.5363 6.84412 52.8251 6.62386 52.9621 6.34486C52.9844 6.29713 52.9881 6.26777 52.9881 6.26042C52.9288 6.24207 52.8696 6.2384 52.8103 6.2384Z" fill="white"/>
<path d="M37.0772 8.87413H33.078C32.9484 8.87413 32.8447 8.77134 32.8447 8.64285C32.8447 8.51436 32.9484 8.41158 33.078 8.41158H37.0772C41.3503 8.41158 42.4093 7.55622 42.4204 7.54888C42.4723 7.50483 42.5389 7.49014 42.6019 7.49381C42.6685 7.50116 42.7278 7.53786 42.7648 7.58926C43.4424 8.56576 44.0645 8.29777 44.0868 8.28309C44.7348 8.08485 45.0421 7.35799 45.1902 6.77796C45.3235 6.26401 45.405 5.72804 45.4827 5.20675C45.5605 4.70381 45.6383 4.18619 45.7642 3.67958C46.0789 2.40205 46.6714 1.44758 47.4823 0.915275C47.5897 0.845525 47.7341 0.874891 47.8045 0.981352C47.8748 1.08781 47.8452 1.23098 47.7378 1.30073C46.838 1.8881 46.4122 2.97841 46.2159 3.78972C46.0974 4.2743 46.0197 4.78457 45.9456 5.27649C45.8641 5.80879 45.7827 6.35579 45.6457 6.89176C45.3902 7.88662 44.9088 8.51804 44.2571 8.7126C44.2534 8.71627 43.3869 9.12376 42.5167 8.03346C42.0242 8.30879 40.5838 8.87413 37.0772 8.87413Z" fill="white"/>
<path d="M23.2766 37.9186L22.9582 38.9282L22.4102 38.7593L23.2729 36.0391L24.2727 36.3511C24.5949 36.4539 24.817 36.6044 24.9318 36.81C25.0466 37.0156 25.0651 37.2505 24.98 37.5148C24.8985 37.7755 24.7467 37.9553 24.5282 38.0545C24.3097 38.1572 24.0431 38.1572 23.7321 38.0581L23.2766 37.9186ZM24.4208 37.3386C24.4653 37.2028 24.4616 37.0853 24.406 36.9899C24.3542 36.8944 24.2431 36.821 24.0728 36.7659L23.6802 36.6448L23.4136 37.4818L23.8061 37.6029C24.1283 37.7057 24.332 37.6176 24.4208 37.3386Z" fill="white"/>
<path d="M28.6636 37.5738L28.2674 39.2001C28.2156 39.4167 28.223 39.5929 28.2933 39.725C28.3637 39.8572 28.4896 39.9453 28.671 39.9893C28.8525 40.0334 29.0006 40.0114 29.1265 39.9269C29.2487 39.8425 29.3376 39.692 29.3894 39.4717L29.7856 37.8455L30.3411 37.9776L29.9449 39.6039C29.8819 39.8609 29.7819 40.0664 29.6412 40.2206C29.5005 40.3748 29.3376 40.4739 29.145 40.518C28.9525 40.562 28.7488 40.562 28.534 40.5106C28.1971 40.4299 27.9564 40.2683 27.8046 40.0187C27.6527 39.7727 27.6231 39.457 27.7157 39.0716L28.1119 37.4453L28.6636 37.5738Z" fill="white"/>
<path d="M34.3847 41.652L33.9107 40.4442L33.6626 40.4039L33.4738 41.4978L32.9072 41.4024L33.3886 38.5903L34.4699 38.7739C34.7994 38.829 35.0364 38.9501 35.1808 39.141C35.3252 39.3282 35.3771 39.5522 35.3326 39.8128C35.2956 40.0257 35.2067 40.1946 35.0623 40.3157C34.9179 40.4369 34.7291 40.5066 34.4958 40.514L35.0105 41.7548L34.3847 41.652ZM33.7256 40.0147L34.1921 40.0918C34.5143 40.1469 34.7031 40.0331 34.7513 39.7467C34.7735 39.6109 34.7513 39.5008 34.6883 39.409C34.6217 39.3209 34.5069 39.2621 34.3403 39.2328L33.8737 39.1557L33.7256 40.0147Z" fill="white"/>
<path d="M39.0025 39.8499L38.9248 40.5841L39.9356 40.6906L39.8912 41.1237L38.8803 41.0173L38.7989 41.7809L39.9319 41.8983L39.8838 42.3536L38.1768 42.1773L38.4767 39.3433L40.1837 39.5195L40.1356 39.971L39.0025 39.8499Z" fill="white"/>
<path d="M49.2744 42.6839L48.7004 42.6876L47.4007 40.7603L47.4155 42.6986L46.8416 42.7023L46.8193 39.8536L47.3933 39.8499L48.693 41.7955L48.6782 39.8425L49.2522 39.8389L49.2744 42.6839Z" fill="white"/>
<path d="M54.3033 41.8357L53.1554 41.9238L52.9962 42.5112L52.3926 42.5589L53.2257 39.6661L53.8812 39.6147L55.155 42.3423L54.5514 42.39L54.3033 41.8357ZM54.1144 41.4172L53.5997 40.2498L53.2702 41.4833L54.1144 41.4172Z" fill="white"/>
<path d="M59.7723 38.8877L59.839 39.3356L59.054 39.4494L59.402 41.8245L58.8318 41.9053L58.4837 39.5301L57.7024 39.6439L57.6357 39.1961L59.7723 38.8877Z" fill="white"/>
<path d="M63.2119 38.2567L63.5674 39.8904C63.6155 40.1106 63.697 40.2611 63.8192 40.3492C63.9377 40.4373 64.0932 40.463 64.2746 40.4227C64.4561 40.3859 64.582 40.3015 64.656 40.1694C64.7301 40.0409 64.7412 39.8647 64.6968 39.6481L64.3413 38.0144L64.9004 37.897L65.2559 39.5306C65.3115 39.7876 65.3115 40.0152 65.2522 40.2134C65.193 40.4116 65.0893 40.5732 64.9375 40.6943C64.7856 40.8191 64.6005 40.9036 64.382 40.9476C64.0451 41.021 63.7525 40.977 63.5081 40.8191C63.2637 40.6613 63.0971 40.3896 63.0156 40.0042L62.6602 38.3705L63.2119 38.2567Z" fill="white"/>
<path d="M70.1477 39.4715L69.1923 38.5868L68.948 38.6565L69.259 39.7248L68.7073 39.8827L67.9111 37.1441L68.9628 36.843C69.2849 36.7513 69.5515 36.7586 69.7626 36.8651C69.9774 36.9715 70.1181 37.1514 70.1921 37.4047C70.2514 37.6103 70.244 37.8012 70.1699 37.9737C70.0959 38.1463 69.9551 38.2858 69.7478 38.3959L70.755 39.2953L70.1477 39.4715ZM68.8406 38.2821L69.296 38.1536C69.6108 38.0618 69.7293 37.8819 69.6478 37.6029C69.6108 37.4708 69.5404 37.379 69.4441 37.3276C69.3442 37.2762 69.2146 37.2725 69.0553 37.3203L68.5999 37.4488L68.8406 38.2821Z" fill="white"/>
<path d="M73.5137 35.8667L73.7655 36.5606L74.7246 36.2191L74.8727 36.6303L73.9136 36.9717L74.1766 37.6949L75.2504 37.3131L75.4059 37.7426L73.7914 38.3153L72.8213 35.6318L74.4358 35.0591L74.5913 35.4849L73.5137 35.8667Z" fill="white"/>
<path d="M52.8147 32.0493H43.2686V32.9707H52.8147V32.0493Z" fill="white"/>
<path d="M28.1871 8.13973C26.9874 8.08834 25.6358 7.99289 24.2769 7.72857C24.0288 7.11184 23.8992 6.45105 23.7733 5.75355C23.7325 5.52961 23.6918 5.30568 23.6474 5.08542C23.4622 4.18601 23.1475 3.04798 22.3402 2.24035C22.2736 2.17427 22.1033 2.00173 21.8515 2.00173C21.8478 2.00173 21.8478 2.00173 21.8441 2.00173C21.5737 2.00173 21.3479 2.18895 21.2183 2.51201C20.9294 3.24989 20.9924 4.05018 21.0664 4.58982C21.1849 5.46721 21.4034 6.13534 21.7515 6.686C21.8552 6.85119 21.9737 7.00171 22.0996 7.13753C21.5589 6.9393 20.9665 6.67498 20.3703 6.32623C20.3296 6.26749 20.274 6.22344 20.2111 6.20142C19.9334 4.60818 19.6334 2.97456 19.1076 1.40702C18.9299 0.87472 18.6707 0.302036 18.093 0.0707602C17.8708 -0.017345 17.6524 -0.0136744 17.4783 0.0817729C17.1969 0.239628 17.1488 0.551668 17.1303 0.672812C16.9821 1.65665 17.1858 2.86443 17.619 3.9841C16.7007 3.059 15.7306 2.13756 14.5382 1.49513C14.179 1.30056 13.7014 1.08764 13.1904 1.14271C13.0163 1.16106 12.883 1.30423 12.8793 1.48044C12.8645 2.12655 13.2422 2.72493 14.0346 3.31964C15.2677 4.24107 16.934 4.74401 17.619 4.92022C17.9079 5.26897 18.23 5.59936 18.5855 5.90773C16.8933 5.59936 15.1011 5.90039 13.6125 6.79245C13.5014 6.85853 13.4385 6.97968 13.4459 7.1045C13.4533 7.22931 13.5273 7.34311 13.6421 7.39818C14.2531 7.68819 14.9159 7.77997 15.5713 7.77997C16.0009 7.77997 16.4267 7.73959 16.8266 7.68819C18.0893 7.53034 19.1076 7.28071 20.0148 6.92094C20.5443 7.22931 21.1109 7.50464 21.7219 7.73592C20.9776 8.01492 20.2 8.34531 19.5446 8.85926C18.7855 9.45397 18.3041 10.2175 18.193 11.0142C18.1375 11.4033 18.3226 11.5795 18.4374 11.6493C18.5263 11.7043 18.6188 11.7227 18.704 11.7227C18.8706 11.7227 19.015 11.6456 19.0743 11.6125C20.5406 10.8343 21.7515 9.6779 22.9216 8.5619L23.2808 8.22049C23.4956 8.27556 23.7066 8.32328 23.9214 8.37101C23.9288 8.37468 23.9362 8.37468 23.9473 8.37468C25.4174 8.67937 26.8726 8.78217 28.1612 8.83723C28.1649 8.83723 28.1723 8.83723 28.176 8.83723C28.3612 8.83723 28.5167 8.69039 28.5241 8.50683C28.5315 8.31227 28.3797 8.15074 28.1871 8.13973ZM14.4531 2.75797C14.0346 2.44593 13.768 2.14857 13.6495 1.85856C13.8458 1.90996 14.0346 2.00173 14.2087 2.09718C15.0455 2.54872 15.7787 3.16178 16.4674 3.81523C15.675 3.51053 14.9678 3.14343 14.4531 2.75797ZM21.8663 2.76164C21.8663 2.75797 21.8663 2.75797 21.87 2.7543C22.5328 3.43344 22.8031 4.4283 22.9623 5.22491C23.0068 5.44151 23.0475 5.66177 23.0882 5.88204C23.1697 6.32623 23.2512 6.78144 23.3734 7.22564C22.9734 7.05677 22.6069 6.74106 22.3402 6.31522C22.0477 5.85266 21.8589 5.27264 21.7552 4.49438C21.6552 3.74916 21.6885 3.21685 21.8663 2.76164ZM17.819 0.768258C17.8227 0.74256 17.8264 0.720535 17.8301 0.705851C18.1412 0.830666 18.3152 1.23815 18.4411 1.61627C18.878 2.93051 19.1595 4.31082 19.4038 5.66911C19.3964 5.66177 19.389 5.6581 19.3816 5.65076C18.2856 4.38057 17.6005 2.24769 17.819 0.768258ZM16.7377 6.99803C16.086 7.0788 15.364 7.13386 14.6937 7.00538C15.949 6.46573 17.3932 6.32623 18.7225 6.61991C18.1338 6.78144 17.4783 6.90259 16.7377 6.99803ZM18.9225 10.904C19.0558 10.357 19.4261 9.82842 19.9778 9.3989C20.5295 8.96939 21.1775 8.67938 21.9774 8.37835C22.0514 8.35265 22.1218 8.32328 22.1921 8.30126C21.1812 9.25573 20.1296 10.2249 18.9225 10.904Z" fill="white"/>
<path d="M83.4519 6.78149C81.9633 5.88942 80.1748 5.58839 78.4789 5.89676C78.8344 5.58839 79.1565 5.25799 79.4454 4.90924C80.1304 4.73303 81.793 4.23009 83.0298 3.30866C83.8222 2.71762 84.1999 2.11556 84.1851 1.46945C84.1814 1.29691 84.0481 1.15007 83.8741 1.13172C83.3556 1.08032 82.8817 1.29324 82.5262 1.48414C81.3339 2.12657 80.3637 3.04434 79.4454 3.97312C79.8786 2.85345 80.0823 1.64934 79.9342 0.665491C79.9156 0.548017 79.8712 0.232305 79.5861 0.074449C79.412 -0.0209987 79.1936 -0.0246693 78.9714 0.0634362C78.3938 0.294713 78.1345 0.867399 77.9605 1.3997C77.4384 2.96358 77.1385 4.60087 76.857 6.19411C76.7904 6.21614 76.7386 6.26387 76.6978 6.3226C76.1017 6.67135 75.5092 6.93567 74.9685 7.13391C75.0944 6.99441 75.2093 6.84389 75.3129 6.68237C75.661 6.13171 75.8795 5.46358 75.998 4.58619C76.072 4.04655 76.135 3.24625 75.8462 2.50837C75.7166 2.18164 75.4759 1.9834 75.2129 1.99809C74.9612 2.00176 74.7908 2.1743 74.7242 2.23671C73.9132 3.04801 73.5985 4.18237 73.4133 5.08178C73.3689 5.30572 73.3282 5.52965 73.2874 5.75359C73.1615 6.45109 73.0319 7.10821 72.7838 7.72495C71.4249 7.98926 70.0733 8.08472 68.8736 8.13611C68.681 8.14345 68.5329 8.30498 68.5403 8.49587C68.5477 8.6831 68.7032 8.82627 68.8884 8.82627C68.8921 8.82627 68.8995 8.82627 68.9032 8.82627C70.1918 8.7712 71.647 8.66841 73.1171 8.36372C73.1245 8.36372 73.1319 8.36005 73.1393 8.36005C73.3541 8.31599 73.5652 8.2646 73.7799 8.20953L74.1354 8.54727C75.3055 9.66327 76.5164 10.8197 77.9827 11.5979C78.042 11.631 78.1864 11.7044 78.353 11.7044C78.4382 11.7044 78.5308 11.686 78.6196 11.631C78.7344 11.5612 78.9196 11.3887 78.864 10.9995C78.7529 10.2066 78.2716 9.43934 77.5125 8.84462C76.857 8.33435 76.0794 8.00395 75.3352 7.72128C75.9424 7.49 76.509 7.21835 77.0385 6.90998C77.9457 7.26974 78.9677 7.51203 80.2341 7.67355C80.634 7.72495 81.0598 7.76533 81.4894 7.76533C82.1411 7.76533 82.8076 7.67356 83.4149 7.38354C83.5297 7.32847 83.6074 7.21467 83.6111 7.08985C83.6259 6.96871 83.563 6.84757 83.4519 6.78149ZM82.8595 2.09721C83.0335 2.00543 83.2223 1.90998 83.4149 1.85859C83.2964 2.1486 83.0261 2.44596 82.6076 2.758C82.0929 3.14346 81.3857 3.51057 80.597 3.81527C81.2894 3.15814 82.0263 2.54875 82.8595 2.09721ZM78.6233 1.6163C78.7492 1.2345 78.9196 0.830689 79.2343 0.705873C79.238 0.720557 79.2417 0.742583 79.2454 0.76828C79.4639 2.24772 78.7788 4.38061 77.6791 5.65447C77.6717 5.65814 77.6643 5.66548 77.6569 5.66915C77.905 4.31086 78.1864 2.93054 78.6233 1.6163ZM73.9762 5.88208C74.0169 5.66181 74.0576 5.44155 74.1021 5.22495C74.265 4.432 74.5353 3.43715 75.1981 2.75433C75.1981 2.758 75.1981 2.758 75.2018 2.76167C75.3796 3.21321 75.4129 3.74919 75.3129 4.49808C75.2093 5.27268 75.0241 5.85271 74.7279 6.31893C74.465 6.73744 74.0947 7.05682 73.6948 7.22569C73.8133 6.77782 73.8947 6.3226 73.9762 5.88208ZM78.1456 10.9041C76.9348 10.2249 75.8832 9.25945 74.8723 8.29396C74.9426 8.31966 75.0167 8.34536 75.0907 8.37473C75.8943 8.67575 76.5423 8.96577 77.0903 9.39528C77.6421 9.82847 78.0123 10.3571 78.1456 10.9041ZM80.3267 6.99808C79.5824 6.9063 78.9307 6.78148 78.3419 6.62363C79.6713 6.32994 81.1191 6.46577 82.3707 7.00909C81.7041 7.13391 80.9821 7.07884 80.3267 6.99808Z" fill="white"/>
<path d="M1.58115 23.7566C2.45439 23.7566 3.16229 23.0548 3.16229 22.1891C3.16229 21.3234 2.45439 20.6216 1.58115 20.6216C0.707901 20.6216 0 21.3234 0 22.1891C0 23.0548 0.707901 23.7566 1.58115 23.7566Z" fill="white"/>
<path d="M92.9835 23.7566C93.8567 23.7566 94.5646 23.0548 94.5646 22.1891C94.5646 21.3234 93.8567 20.6216 92.9835 20.6216C92.1103 20.6216 91.4023 21.3234 91.4023 22.1891C91.4023 23.0548 92.1103 23.7566 92.9835 23.7566Z" fill="white"/>
</svg>
